G04*
G04 #@! TF.GenerationSoftware,Altium Limited,Altium Designer,21.1.1 (26)*
G04*
G04 Layer_Color=32768*
%FSLAX24Y24*%
%MOIN*%
G70*
G04*
G04 #@! TF.SameCoordinates,859D0C74-6F1A-4902-9F36-B784FAE930BA*
G04*
G04*
G04 #@! TF.FilePolarity,Positive*
G04*
G01*
G75*
%ADD24C,0.0080*%
%ADD271C,0.0075*%
%ADD272C,0.0075*%
G36*
X47997Y26660D02*
X47903D01*
Y26768D01*
X47997D01*
Y26660D01*
D02*
G37*
G36*
X50675Y26000D02*
X50587D01*
Y26070D01*
X50587Y26069D01*
X50585Y26067D01*
X50582Y26063D01*
X50577Y26058D01*
X50572Y26051D01*
X50565Y26044D01*
X50557Y26037D01*
X50548Y26029D01*
X50537Y26022D01*
X50526Y26014D01*
X50513Y26007D01*
X50499Y26001D01*
X50484Y25996D01*
X50467Y25991D01*
X50450Y25989D01*
X50431Y25988D01*
X50425D01*
X50420Y25988D01*
X50414Y25989D01*
X50407Y25990D01*
X50400Y25991D01*
X50391Y25992D01*
X50382Y25994D01*
X50373Y25997D01*
X50363Y25999D01*
X50352Y26003D01*
X50341Y26007D01*
X50330Y26012D01*
X50320Y26018D01*
X50309Y26024D01*
X50309Y26025D01*
X50307Y26026D01*
X50304Y26028D01*
X50300Y26031D01*
X50295Y26035D01*
X50290Y26039D01*
X50284Y26045D01*
X50278Y26051D01*
X50271Y26058D01*
X50264Y26065D01*
X50257Y26074D01*
X50249Y26083D01*
X50243Y26093D01*
X50235Y26103D01*
X50229Y26115D01*
X50223Y26127D01*
X50223Y26127D01*
X50222Y26129D01*
X50220Y26133D01*
X50218Y26138D01*
X50216Y26144D01*
X50214Y26152D01*
X50211Y26160D01*
X50208Y26170D01*
X50205Y26180D01*
X50202Y26192D01*
X50200Y26205D01*
X50198Y26218D01*
X50195Y26232D01*
X50194Y26246D01*
X50193Y26262D01*
X50193Y26277D01*
Y26279D01*
Y26281D01*
Y26286D01*
X50193Y26291D01*
X50194Y26299D01*
X50194Y26307D01*
X50195Y26317D01*
X50196Y26327D01*
X50198Y26339D01*
X50199Y26351D01*
X50204Y26376D01*
X50207Y26390D01*
X50211Y26402D01*
X50215Y26416D01*
X50220Y26428D01*
X50220Y26429D01*
X50221Y26431D01*
X50223Y26435D01*
X50225Y26440D01*
X50228Y26445D01*
X50232Y26452D01*
X50236Y26459D01*
X50241Y26467D01*
X50246Y26475D01*
X50253Y26483D01*
X50259Y26492D01*
X50266Y26501D01*
X50275Y26509D01*
X50284Y26517D01*
X50293Y26525D01*
X50303Y26532D01*
X50304Y26533D01*
X50306Y26534D01*
X50309Y26536D01*
X50313Y26538D01*
X50318Y26541D01*
X50324Y26544D01*
X50331Y26547D01*
X50339Y26551D01*
X50348Y26554D01*
X50358Y26557D01*
X50368Y26561D01*
X50379Y26563D01*
X50390Y26566D01*
X50402Y26567D01*
X50414Y26568D01*
X50427Y26569D01*
X50432D01*
X50435Y26568D01*
X50440D01*
X50445Y26568D01*
X50451Y26567D01*
X50457Y26566D01*
X50471Y26564D01*
X50486Y26560D01*
X50501Y26554D01*
X50516Y26547D01*
X50517D01*
X50518Y26546D01*
X50520Y26545D01*
X50523Y26543D01*
X50526Y26541D01*
X50530Y26539D01*
X50539Y26532D01*
X50550Y26524D01*
X50560Y26515D01*
X50571Y26504D01*
X50581Y26492D01*
Y26768D01*
X50675D01*
Y26000D01*
D02*
G37*
G36*
X49293Y26568D02*
X49299Y26568D01*
X49306Y26567D01*
X49314Y26566D01*
X49323Y26564D01*
X49332Y26562D01*
X49342Y26560D01*
X49353Y26557D01*
X49364Y26553D01*
X49375Y26549D01*
X49385Y26544D01*
X49396Y26538D01*
X49406Y26532D01*
X49407Y26531D01*
X49408Y26530D01*
X49411Y26528D01*
X49415Y26525D01*
X49420Y26521D01*
X49425Y26517D01*
X49431Y26511D01*
X49437Y26505D01*
X49444Y26498D01*
X49451Y26491D01*
X49457Y26482D01*
X49465Y26473D01*
X49471Y26463D01*
X49477Y26452D01*
X49483Y26441D01*
X49489Y26428D01*
X49489Y26428D01*
X49490Y26426D01*
X49492Y26422D01*
X49493Y26417D01*
X49496Y26411D01*
X49498Y26403D01*
X49500Y26395D01*
X49503Y26385D01*
X49506Y26375D01*
X49508Y26364D01*
X49510Y26351D01*
X49512Y26339D01*
X49514Y26325D01*
X49516Y26311D01*
X49516Y26297D01*
X49517Y26282D01*
Y26281D01*
Y26279D01*
Y26274D01*
X49516Y26268D01*
X49516Y26261D01*
X49515Y26252D01*
X49514Y26242D01*
X49513Y26231D01*
X49511Y26220D01*
X49509Y26208D01*
X49503Y26181D01*
X49500Y26168D01*
X49496Y26155D01*
X49491Y26142D01*
X49486Y26129D01*
X49485Y26128D01*
X49484Y26126D01*
X49482Y26122D01*
X49480Y26118D01*
X49477Y26112D01*
X49473Y26105D01*
X49468Y26098D01*
X49463Y26090D01*
X49457Y26082D01*
X49451Y26073D01*
X49443Y26064D01*
X49435Y26056D01*
X49427Y26047D01*
X49417Y26039D01*
X49407Y26031D01*
X49397Y26024D01*
X49396Y26023D01*
X49394Y26022D01*
X49391Y26021D01*
X49387Y26018D01*
X49381Y26016D01*
X49375Y26012D01*
X49368Y26009D01*
X49360Y26006D01*
X49351Y26002D01*
X49341Y25999D01*
X49331Y25996D01*
X49321Y25993D01*
X49310Y25991D01*
X49298Y25989D01*
X49286Y25988D01*
X49274Y25988D01*
X49270D01*
X49266Y25988D01*
X49262D01*
X49258Y25989D01*
X49252Y25989D01*
X49246Y25990D01*
X49233Y25993D01*
X49219Y25996D01*
X49204Y26001D01*
X49189Y26007D01*
X49189D01*
X49188Y26008D01*
X49186Y26009D01*
X49183Y26011D01*
X49180Y26013D01*
X49176Y26015D01*
X49168Y26021D01*
X49158Y26028D01*
X49148Y26037D01*
X49138Y26047D01*
X49128Y26058D01*
Y25787D01*
X49034D01*
Y26557D01*
X49120D01*
Y26484D01*
X49120Y26485D01*
X49121Y26486D01*
X49123Y26488D01*
X49125Y26491D01*
X49128Y26495D01*
X49132Y26498D01*
X49140Y26508D01*
X49150Y26518D01*
X49162Y26528D01*
X49174Y26538D01*
X49188Y26547D01*
X49189D01*
X49190Y26548D01*
X49192Y26549D01*
X49195Y26551D01*
X49199Y26552D01*
X49203Y26554D01*
X49208Y26556D01*
X49214Y26558D01*
X49220Y26560D01*
X49228Y26562D01*
X49235Y26564D01*
X49244Y26566D01*
X49261Y26568D01*
X49281Y26569D01*
X49287D01*
X49293Y26568D01*
D02*
G37*
G36*
X51695D02*
X51701Y26568D01*
X51706Y26567D01*
X51713Y26567D01*
X51727Y26564D01*
X51742Y26561D01*
X51758Y26557D01*
X51774Y26551D01*
X51775D01*
X51776Y26550D01*
X51778Y26549D01*
X51782Y26547D01*
X51785Y26546D01*
X51789Y26543D01*
X51798Y26538D01*
X51808Y26531D01*
X51819Y26523D01*
X51829Y26513D01*
X51838Y26503D01*
Y26502D01*
X51839Y26502D01*
X51840Y26500D01*
X51841Y26498D01*
X51843Y26495D01*
X51845Y26492D01*
X51849Y26483D01*
X51854Y26473D01*
X51859Y26461D01*
X51863Y26448D01*
X51867Y26433D01*
Y26433D01*
Y26432D01*
X51868Y26431D01*
X51868Y26428D01*
Y26426D01*
X51869Y26422D01*
X51869Y26417D01*
X51870Y26412D01*
X51870Y26406D01*
X51871Y26400D01*
X51872Y26392D01*
Y26384D01*
X51872Y26375D01*
X51873Y26365D01*
Y26354D01*
Y26342D01*
Y26000D01*
X51778D01*
Y26338D01*
Y26339D01*
Y26341D01*
Y26344D01*
Y26347D01*
X51778Y26352D01*
Y26358D01*
X51777Y26364D01*
Y26370D01*
X51776Y26385D01*
X51774Y26398D01*
X51771Y26412D01*
X51769Y26418D01*
X51767Y26424D01*
Y26425D01*
X51767Y26425D01*
X51766Y26427D01*
X51765Y26429D01*
X51762Y26434D01*
X51758Y26441D01*
X51753Y26448D01*
X51746Y26456D01*
X51738Y26463D01*
X51728Y26470D01*
X51727D01*
X51727Y26471D01*
X51725Y26472D01*
X51723Y26473D01*
X51717Y26476D01*
X51709Y26479D01*
X51700Y26482D01*
X51688Y26485D01*
X51676Y26487D01*
X51662Y26487D01*
X51656D01*
X51652Y26487D01*
X51647Y26486D01*
X51641Y26485D01*
X51634Y26484D01*
X51627Y26482D01*
X51618Y26481D01*
X51610Y26478D01*
X51602Y26475D01*
X51593Y26471D01*
X51584Y26467D01*
X51575Y26462D01*
X51566Y26456D01*
X51558Y26449D01*
X51557Y26448D01*
X51556Y26447D01*
X51554Y26445D01*
X51551Y26441D01*
X51548Y26437D01*
X51544Y26431D01*
X51540Y26425D01*
X51536Y26416D01*
X51532Y26407D01*
X51529Y26397D01*
X51525Y26385D01*
X51521Y26371D01*
X51519Y26357D01*
X51516Y26341D01*
X51515Y26323D01*
X51515Y26304D01*
Y26000D01*
X51420D01*
Y26557D01*
X51505D01*
Y26477D01*
X51506Y26478D01*
X51508Y26481D01*
X51512Y26486D01*
X51516Y26492D01*
X51523Y26498D01*
X51531Y26506D01*
X51540Y26514D01*
X51550Y26523D01*
X51562Y26532D01*
X51575Y26540D01*
X51590Y26548D01*
X51606Y26554D01*
X51623Y26561D01*
X51641Y26565D01*
X51661Y26568D01*
X51682Y26569D01*
X51691D01*
X51695Y26568D01*
D02*
G37*
G36*
X48731D02*
X48737D01*
X48744Y26567D01*
X48751Y26567D01*
X48760Y26565D01*
X48770Y26563D01*
X48780Y26561D01*
X48790Y26558D01*
X48801Y26554D01*
X48812Y26549D01*
X48822Y26544D01*
X48832Y26538D01*
X48841Y26531D01*
X48850Y26523D01*
X48851Y26522D01*
X48852Y26521D01*
X48855Y26518D01*
X48857Y26514D01*
X48861Y26509D01*
X48865Y26503D01*
X48868Y26496D01*
X48873Y26488D01*
X48877Y26478D01*
X48881Y26468D01*
X48885Y26457D01*
X48888Y26444D01*
X48891Y26430D01*
X48893Y26415D01*
X48895Y26399D01*
X48895Y26382D01*
Y26000D01*
X48801D01*
Y26350D01*
Y26351D01*
Y26353D01*
Y26356D01*
Y26360D01*
Y26364D01*
X48800Y26370D01*
X48800Y26382D01*
X48799Y26395D01*
X48797Y26408D01*
X48795Y26421D01*
X48793Y26427D01*
X48791Y26432D01*
Y26432D01*
X48791Y26433D01*
X48790Y26436D01*
X48787Y26441D01*
X48784Y26446D01*
X48779Y26452D01*
X48774Y26459D01*
X48766Y26466D01*
X48758Y26472D01*
X48757Y26472D01*
X48754Y26474D01*
X48749Y26477D01*
X48742Y26480D01*
X48734Y26482D01*
X48724Y26485D01*
X48713Y26487D01*
X48701Y26487D01*
X48696D01*
X48692Y26487D01*
X48687Y26486D01*
X48681Y26485D01*
X48674Y26484D01*
X48668Y26482D01*
X48660Y26480D01*
X48652Y26478D01*
X48644Y26475D01*
X48636Y26471D01*
X48628Y26466D01*
X48620Y26461D01*
X48612Y26455D01*
X48604Y26448D01*
X48604Y26447D01*
X48603Y26446D01*
X48601Y26444D01*
X48598Y26441D01*
X48595Y26436D01*
X48592Y26431D01*
X48589Y26425D01*
X48585Y26418D01*
X48582Y26410D01*
X48578Y26400D01*
X48574Y26390D01*
X48572Y26379D01*
X48569Y26366D01*
X48567Y26353D01*
X48566Y26339D01*
X48565Y26323D01*
Y26000D01*
X48471D01*
Y26361D01*
Y26362D01*
Y26364D01*
Y26367D01*
X48471Y26372D01*
Y26377D01*
X48470Y26383D01*
X48469Y26390D01*
X48468Y26397D01*
X48466Y26412D01*
X48461Y26427D01*
X48456Y26442D01*
X48452Y26450D01*
X48448Y26456D01*
Y26456D01*
X48447Y26457D01*
X48446Y26458D01*
X48443Y26461D01*
X48441Y26463D01*
X48438Y26466D01*
X48434Y26468D01*
X48430Y26472D01*
X48425Y26475D01*
X48419Y26477D01*
X48413Y26480D01*
X48406Y26482D01*
X48399Y26485D01*
X48391Y26486D01*
X48382Y26487D01*
X48372Y26487D01*
X48368D01*
X48366Y26487D01*
X48362D01*
X48358Y26486D01*
X48348Y26485D01*
X48337Y26482D01*
X48325Y26478D01*
X48312Y26473D01*
X48299Y26466D01*
X48298D01*
X48297Y26465D01*
X48296Y26464D01*
X48293Y26462D01*
X48287Y26457D01*
X48280Y26451D01*
X48272Y26442D01*
X48264Y26431D01*
X48256Y26419D01*
X48250Y26405D01*
Y26404D01*
X48249Y26403D01*
X48249Y26400D01*
X48247Y26397D01*
X48246Y26393D01*
X48245Y26388D01*
X48244Y26382D01*
X48242Y26375D01*
X48241Y26367D01*
X48240Y26359D01*
X48238Y26349D01*
X48237Y26339D01*
X48236Y26327D01*
X48235Y26315D01*
X48235Y26302D01*
Y26289D01*
Y26000D01*
X48140D01*
Y26557D01*
X48225D01*
Y26478D01*
X48225Y26478D01*
X48226Y26480D01*
X48227Y26482D01*
X48230Y26485D01*
X48232Y26488D01*
X48235Y26492D01*
X48243Y26502D01*
X48253Y26512D01*
X48265Y26523D01*
X48278Y26534D01*
X48294Y26544D01*
X48295Y26544D01*
X48296Y26545D01*
X48298Y26546D01*
X48302Y26548D01*
X48306Y26549D01*
X48311Y26552D01*
X48317Y26554D01*
X48323Y26557D01*
X48330Y26559D01*
X48337Y26561D01*
X48346Y26563D01*
X48355Y26565D01*
X48373Y26568D01*
X48383Y26569D01*
X48399D01*
X48404Y26568D01*
X48409D01*
X48415Y26568D01*
X48422Y26567D01*
X48429Y26566D01*
X48446Y26563D01*
X48462Y26558D01*
X48479Y26552D01*
X48487Y26547D01*
X48495Y26543D01*
X48495Y26542D01*
X48497Y26542D01*
X48499Y26540D01*
X48502Y26538D01*
X48504Y26536D01*
X48508Y26532D01*
X48517Y26524D01*
X48526Y26514D01*
X48535Y26502D01*
X48543Y26487D01*
X48550Y26471D01*
Y26472D01*
X48551Y26472D01*
X48554Y26476D01*
X48557Y26480D01*
X48563Y26487D01*
X48569Y26494D01*
X48577Y26502D01*
X48587Y26511D01*
X48597Y26520D01*
X48609Y26529D01*
X48622Y26538D01*
X48636Y26546D01*
X48651Y26554D01*
X48668Y26560D01*
X48685Y26564D01*
X48704Y26568D01*
X48713Y26569D01*
X48727D01*
X48731Y26568D01*
D02*
G37*
G36*
X47301D02*
X47307D01*
X47314Y26567D01*
X47322Y26567D01*
X47331Y26565D01*
X47341Y26563D01*
X47351Y26561D01*
X47361Y26558D01*
X47371Y26554D01*
X47382Y26549D01*
X47392Y26544D01*
X47402Y26538D01*
X47412Y26531D01*
X47420Y26523D01*
X47421Y26522D01*
X47423Y26521D01*
X47425Y26518D01*
X47428Y26514D01*
X47431Y26509D01*
X47435Y26503D01*
X47439Y26496D01*
X47443Y26488D01*
X47447Y26478D01*
X47451Y26468D01*
X47455Y26457D01*
X47458Y26444D01*
X47462Y26430D01*
X47464Y26415D01*
X47465Y26399D01*
X47465Y26382D01*
Y26000D01*
X47371D01*
Y26350D01*
Y26351D01*
Y26353D01*
Y26356D01*
Y26360D01*
Y26364D01*
X47371Y26370D01*
X47370Y26382D01*
X47369Y26395D01*
X47367Y26408D01*
X47365Y26421D01*
X47363Y26427D01*
X47362Y26432D01*
Y26432D01*
X47361Y26433D01*
X47360Y26436D01*
X47358Y26441D01*
X47354Y26446D01*
X47349Y26452D01*
X47344Y26459D01*
X47337Y26466D01*
X47328Y26472D01*
X47327Y26472D01*
X47324Y26474D01*
X47319Y26477D01*
X47312Y26480D01*
X47304Y26482D01*
X47294Y26485D01*
X47283Y26487D01*
X47272Y26487D01*
X47266D01*
X47262Y26487D01*
X47257Y26486D01*
X47251Y26485D01*
X47245Y26484D01*
X47238Y26482D01*
X47230Y26480D01*
X47222Y26478D01*
X47215Y26475D01*
X47206Y26471D01*
X47198Y26466D01*
X47190Y26461D01*
X47182Y26455D01*
X47175Y26448D01*
X47174Y26447D01*
X47173Y26446D01*
X47171Y26444D01*
X47168Y26441D01*
X47166Y26436D01*
X47162Y26431D01*
X47159Y26425D01*
X47155Y26418D01*
X47152Y26410D01*
X47148Y26400D01*
X47145Y26390D01*
X47142Y26379D01*
X47139Y26366D01*
X47137Y26353D01*
X47136Y26339D01*
X47136Y26323D01*
Y26000D01*
X47041D01*
Y26361D01*
Y26362D01*
Y26364D01*
Y26367D01*
X47041Y26372D01*
Y26377D01*
X47040Y26383D01*
X47040Y26390D01*
X47039Y26397D01*
X47036Y26412D01*
X47031Y26427D01*
X47026Y26442D01*
X47022Y26450D01*
X47018Y26456D01*
Y26456D01*
X47017Y26457D01*
X47016Y26458D01*
X47014Y26461D01*
X47011Y26463D01*
X47008Y26466D01*
X47004Y26468D01*
X47000Y26472D01*
X46995Y26475D01*
X46990Y26477D01*
X46984Y26480D01*
X46976Y26482D01*
X46969Y26485D01*
X46961Y26486D01*
X46952Y26487D01*
X46943Y26487D01*
X46939D01*
X46936Y26487D01*
X46933D01*
X46928Y26486D01*
X46919Y26485D01*
X46908Y26482D01*
X46895Y26478D01*
X46882Y26473D01*
X46869Y26466D01*
X46869D01*
X46868Y26465D01*
X46866Y26464D01*
X46864Y26462D01*
X46858Y26457D01*
X46850Y26451D01*
X46842Y26442D01*
X46834Y26431D01*
X46827Y26419D01*
X46820Y26405D01*
Y26404D01*
X46819Y26403D01*
X46819Y26400D01*
X46818Y26397D01*
X46817Y26393D01*
X46815Y26388D01*
X46814Y26382D01*
X46813Y26375D01*
X46811Y26367D01*
X46810Y26359D01*
X46808Y26349D01*
X46807Y26339D01*
X46807Y26327D01*
X46806Y26315D01*
X46805Y26302D01*
Y26289D01*
Y26000D01*
X46711D01*
Y26557D01*
X46795D01*
Y26478D01*
X46796Y26478D01*
X46796Y26480D01*
X46798Y26482D01*
X46800Y26485D01*
X46802Y26488D01*
X46806Y26492D01*
X46813Y26502D01*
X46823Y26512D01*
X46835Y26523D01*
X46849Y26534D01*
X46864Y26544D01*
X46865Y26544D01*
X46867Y26545D01*
X46869Y26546D01*
X46872Y26548D01*
X46876Y26549D01*
X46881Y26552D01*
X46887Y26554D01*
X46893Y26557D01*
X46900Y26559D01*
X46908Y26561D01*
X46916Y26563D01*
X46925Y26565D01*
X46944Y26568D01*
X46954Y26569D01*
X46970D01*
X46974Y26568D01*
X46979D01*
X46985Y26568D01*
X46993Y26567D01*
X47000Y26566D01*
X47016Y26563D01*
X47033Y26558D01*
X47050Y26552D01*
X47057Y26547D01*
X47065Y26543D01*
X47066Y26542D01*
X47067Y26542D01*
X47069Y26540D01*
X47072Y26538D01*
X47075Y26536D01*
X47079Y26532D01*
X47087Y26524D01*
X47096Y26514D01*
X47105Y26502D01*
X47114Y26487D01*
X47121Y26471D01*
Y26472D01*
X47121Y26472D01*
X47124Y26476D01*
X47127Y26480D01*
X47133Y26487D01*
X47140Y26494D01*
X47147Y26502D01*
X47157Y26511D01*
X47167Y26520D01*
X47179Y26529D01*
X47192Y26538D01*
X47206Y26546D01*
X47222Y26554D01*
X47238Y26560D01*
X47256Y26564D01*
X47274Y26568D01*
X47283Y26569D01*
X47297D01*
X47301Y26568D01*
D02*
G37*
G36*
X52251D02*
X52257D01*
X52264Y26567D01*
X52273Y26567D01*
X52283Y26565D01*
X52294Y26563D01*
X52306Y26561D01*
X52318Y26558D01*
X52330Y26554D01*
X52343Y26549D01*
X52355Y26544D01*
X52367Y26538D01*
X52379Y26531D01*
X52390Y26523D01*
X52390Y26522D01*
X52393Y26521D01*
X52395Y26518D01*
X52399Y26514D01*
X52404Y26509D01*
X52409Y26504D01*
X52415Y26497D01*
X52421Y26490D01*
X52427Y26481D01*
X52433Y26471D01*
X52440Y26460D01*
X52445Y26448D01*
X52452Y26436D01*
X52457Y26422D01*
X52461Y26408D01*
X52464Y26393D01*
X52373Y26379D01*
Y26380D01*
X52372Y26381D01*
X52371Y26385D01*
X52370Y26388D01*
X52369Y26393D01*
X52367Y26398D01*
X52364Y26404D01*
X52362Y26410D01*
X52356Y26424D01*
X52347Y26438D01*
X52338Y26451D01*
X52332Y26457D01*
X52326Y26463D01*
X52326Y26463D01*
X52324Y26464D01*
X52323Y26466D01*
X52320Y26467D01*
X52317Y26470D01*
X52313Y26472D01*
X52309Y26475D01*
X52303Y26477D01*
X52292Y26482D01*
X52278Y26487D01*
X52263Y26490D01*
X52255Y26491D01*
X52246Y26491D01*
X52242D01*
X52239Y26491D01*
X52234D01*
X52228Y26490D01*
X52221Y26488D01*
X52213Y26487D01*
X52205Y26485D01*
X52196Y26482D01*
X52186Y26479D01*
X52177Y26475D01*
X52167Y26470D01*
X52157Y26464D01*
X52148Y26457D01*
X52139Y26449D01*
X52130Y26440D01*
X52130Y26440D01*
X52129Y26438D01*
X52126Y26435D01*
X52124Y26431D01*
X52120Y26425D01*
X52116Y26418D01*
X52112Y26410D01*
X52108Y26401D01*
X52104Y26390D01*
X52100Y26379D01*
X52096Y26365D01*
X52093Y26350D01*
X52090Y26335D01*
X52087Y26317D01*
X52086Y26299D01*
X52086Y26279D01*
Y26278D01*
Y26277D01*
Y26276D01*
Y26274D01*
X52086Y26268D01*
Y26260D01*
X52087Y26251D01*
X52088Y26240D01*
X52089Y26229D01*
X52091Y26216D01*
X52094Y26203D01*
X52096Y26190D01*
X52100Y26176D01*
X52104Y26163D01*
X52109Y26150D01*
X52115Y26138D01*
X52121Y26126D01*
X52129Y26116D01*
X52129Y26115D01*
X52131Y26114D01*
X52133Y26112D01*
X52136Y26108D01*
X52141Y26104D01*
X52146Y26100D01*
X52152Y26095D01*
X52158Y26091D01*
X52166Y26086D01*
X52175Y26082D01*
X52184Y26077D01*
X52194Y26073D01*
X52205Y26070D01*
X52216Y26068D01*
X52228Y26066D01*
X52241Y26065D01*
X52246D01*
X52250Y26066D01*
X52255Y26067D01*
X52260Y26067D01*
X52266Y26068D01*
X52273Y26070D01*
X52288Y26074D01*
X52296Y26077D01*
X52303Y26080D01*
X52311Y26084D01*
X52319Y26088D01*
X52326Y26093D01*
X52333Y26099D01*
X52334Y26100D01*
X52335Y26101D01*
X52337Y26103D01*
X52339Y26106D01*
X52342Y26109D01*
X52346Y26114D01*
X52349Y26119D01*
X52353Y26125D01*
X52357Y26132D01*
X52361Y26140D01*
X52365Y26148D01*
X52369Y26158D01*
X52373Y26168D01*
X52376Y26179D01*
X52378Y26191D01*
X52380Y26204D01*
X52473Y26191D01*
Y26190D01*
X52473Y26187D01*
X52472Y26182D01*
X52470Y26175D01*
X52468Y26168D01*
X52465Y26158D01*
X52462Y26148D01*
X52458Y26137D01*
X52453Y26125D01*
X52447Y26113D01*
X52441Y26100D01*
X52434Y26088D01*
X52425Y26075D01*
X52417Y26063D01*
X52406Y26052D01*
X52395Y26042D01*
X52394Y26041D01*
X52392Y26039D01*
X52389Y26037D01*
X52384Y26033D01*
X52378Y26029D01*
X52371Y26024D01*
X52362Y26020D01*
X52352Y26015D01*
X52342Y26009D01*
X52330Y26005D01*
X52317Y26001D01*
X52304Y25996D01*
X52289Y25993D01*
X52274Y25990D01*
X52258Y25988D01*
X52241Y25988D01*
X52236D01*
X52230Y25988D01*
X52222Y25989D01*
X52213Y25990D01*
X52202Y25992D01*
X52189Y25994D01*
X52176Y25997D01*
X52161Y26001D01*
X52146Y26006D01*
X52131Y26012D01*
X52116Y26019D01*
X52101Y26028D01*
X52086Y26038D01*
X52071Y26049D01*
X52058Y26062D01*
X52057Y26063D01*
X52055Y26065D01*
X52051Y26070D01*
X52048Y26076D01*
X52042Y26084D01*
X52036Y26093D01*
X52030Y26104D01*
X52024Y26117D01*
X52017Y26131D01*
X52011Y26147D01*
X52005Y26165D01*
X52000Y26184D01*
X51995Y26204D01*
X51991Y26226D01*
X51989Y26250D01*
X51989Y26276D01*
Y26277D01*
Y26280D01*
Y26285D01*
X51989Y26291D01*
X51990Y26299D01*
X51990Y26308D01*
X51991Y26318D01*
X51993Y26329D01*
X51994Y26341D01*
X51996Y26354D01*
X52001Y26380D01*
X52004Y26394D01*
X52009Y26407D01*
X52013Y26421D01*
X52018Y26433D01*
X52019Y26434D01*
X52020Y26436D01*
X52021Y26440D01*
X52024Y26445D01*
X52027Y26450D01*
X52031Y26457D01*
X52035Y26464D01*
X52041Y26472D01*
X52047Y26480D01*
X52054Y26488D01*
X52061Y26497D01*
X52069Y26505D01*
X52078Y26513D01*
X52087Y26521D01*
X52098Y26528D01*
X52109Y26535D01*
X52110Y26536D01*
X52112Y26537D01*
X52115Y26538D01*
X52120Y26541D01*
X52125Y26543D01*
X52132Y26546D01*
X52140Y26549D01*
X52149Y26552D01*
X52158Y26555D01*
X52168Y26558D01*
X52179Y26561D01*
X52191Y26564D01*
X52203Y26566D01*
X52216Y26567D01*
X52228Y26568D01*
X52242Y26569D01*
X52246D01*
X52251Y26568D01*
D02*
G37*
G36*
X44473Y26668D02*
X44166D01*
X44125Y26461D01*
X44125Y26462D01*
X44128Y26463D01*
X44132Y26466D01*
X44137Y26469D01*
X44143Y26472D01*
X44150Y26477D01*
X44159Y26481D01*
X44169Y26486D01*
X44179Y26490D01*
X44190Y26495D01*
X44203Y26498D01*
X44215Y26502D01*
X44228Y26505D01*
X44241Y26507D01*
X44256Y26509D01*
X44270Y26509D01*
X44274D01*
X44280Y26509D01*
X44286Y26508D01*
X44295Y26507D01*
X44305Y26506D01*
X44317Y26503D01*
X44329Y26501D01*
X44342Y26497D01*
X44356Y26492D01*
X44370Y26487D01*
X44384Y26480D01*
X44398Y26472D01*
X44413Y26463D01*
X44427Y26452D01*
X44440Y26440D01*
X44441Y26439D01*
X44443Y26436D01*
X44447Y26432D01*
X44451Y26427D01*
X44456Y26420D01*
X44462Y26412D01*
X44468Y26402D01*
X44475Y26391D01*
X44481Y26379D01*
X44487Y26365D01*
X44493Y26350D01*
X44499Y26335D01*
X44503Y26317D01*
X44507Y26299D01*
X44509Y26280D01*
X44509Y26260D01*
Y26260D01*
Y26259D01*
Y26258D01*
Y26256D01*
X44509Y26250D01*
X44508Y26243D01*
X44508Y26234D01*
X44506Y26223D01*
X44504Y26211D01*
X44502Y26199D01*
X44498Y26185D01*
X44495Y26170D01*
X44490Y26155D01*
X44484Y26140D01*
X44477Y26125D01*
X44468Y26110D01*
X44459Y26095D01*
X44448Y26080D01*
X44447Y26079D01*
X44445Y26077D01*
X44441Y26072D01*
X44435Y26066D01*
X44427Y26059D01*
X44418Y26051D01*
X44408Y26043D01*
X44396Y26034D01*
X44382Y26025D01*
X44367Y26017D01*
X44350Y26009D01*
X44332Y26002D01*
X44312Y25996D01*
X44292Y25991D01*
X44270Y25988D01*
X44246Y25987D01*
X44242D01*
X44236Y25988D01*
X44229Y25988D01*
X44220Y25989D01*
X44210Y25991D01*
X44198Y25992D01*
X44186Y25994D01*
X44173Y25998D01*
X44159Y26002D01*
X44144Y26006D01*
X44130Y26012D01*
X44116Y26018D01*
X44102Y26026D01*
X44088Y26036D01*
X44075Y26046D01*
X44075Y26046D01*
X44073Y26048D01*
X44069Y26052D01*
X44065Y26056D01*
X44060Y26062D01*
X44054Y26069D01*
X44048Y26078D01*
X44041Y26087D01*
X44034Y26098D01*
X44028Y26109D01*
X44022Y26122D01*
X44016Y26136D01*
X44011Y26151D01*
X44006Y26167D01*
X44002Y26184D01*
X44000Y26201D01*
X44099Y26210D01*
Y26209D01*
X44099Y26206D01*
X44100Y26203D01*
X44101Y26198D01*
X44103Y26192D01*
X44104Y26185D01*
X44107Y26177D01*
X44109Y26169D01*
X44116Y26152D01*
X44120Y26142D01*
X44124Y26133D01*
X44130Y26124D01*
X44135Y26116D01*
X44142Y26108D01*
X44149Y26101D01*
X44150Y26100D01*
X44151Y26099D01*
X44153Y26098D01*
X44157Y26095D01*
X44160Y26093D01*
X44165Y26089D01*
X44170Y26087D01*
X44176Y26083D01*
X44183Y26079D01*
X44191Y26077D01*
X44199Y26073D01*
X44208Y26070D01*
X44216Y26068D01*
X44226Y26067D01*
X44236Y26065D01*
X44246Y26065D01*
X44250D01*
X44253Y26065D01*
X44258D01*
X44264Y26067D01*
X44271Y26068D01*
X44279Y26069D01*
X44287Y26072D01*
X44296Y26074D01*
X44305Y26077D01*
X44315Y26082D01*
X44325Y26087D01*
X44334Y26092D01*
X44344Y26099D01*
X44354Y26107D01*
X44362Y26116D01*
X44363Y26117D01*
X44365Y26118D01*
X44367Y26122D01*
X44370Y26125D01*
X44374Y26130D01*
X44377Y26137D01*
X44382Y26144D01*
X44386Y26152D01*
X44390Y26162D01*
X44395Y26171D01*
X44398Y26183D01*
X44402Y26195D01*
X44405Y26208D01*
X44407Y26222D01*
X44409Y26236D01*
X44410Y26252D01*
Y26253D01*
Y26255D01*
X44409Y26260D01*
Y26265D01*
X44408Y26272D01*
X44407Y26280D01*
X44406Y26289D01*
X44404Y26299D01*
X44401Y26309D01*
X44398Y26319D01*
X44395Y26329D01*
X44390Y26340D01*
X44385Y26351D01*
X44379Y26361D01*
X44372Y26371D01*
X44364Y26380D01*
X44364Y26380D01*
X44362Y26382D01*
X44360Y26384D01*
X44356Y26387D01*
X44351Y26391D01*
X44346Y26395D01*
X44340Y26398D01*
X44332Y26403D01*
X44324Y26407D01*
X44315Y26411D01*
X44306Y26416D01*
X44295Y26419D01*
X44284Y26422D01*
X44271Y26424D01*
X44259Y26426D01*
X44245Y26426D01*
X44241D01*
X44238Y26426D01*
X44234D01*
X44229Y26425D01*
X44224Y26425D01*
X44218Y26423D01*
X44205Y26421D01*
X44191Y26417D01*
X44176Y26412D01*
X44163Y26405D01*
X44162D01*
X44161Y26404D01*
X44159Y26403D01*
X44157Y26401D01*
X44150Y26397D01*
X44142Y26391D01*
X44133Y26383D01*
X44123Y26374D01*
X44114Y26364D01*
X44105Y26352D01*
X44017Y26364D01*
X44091Y26758D01*
X44473D01*
Y26668D01*
D02*
G37*
G36*
X51077Y26568D02*
X51084Y26568D01*
X51092Y26567D01*
X51100Y26567D01*
X51118Y26564D01*
X51138Y26562D01*
X51157Y26557D01*
X51166Y26554D01*
X51174Y26552D01*
X51175D01*
X51177Y26551D01*
X51179Y26550D01*
X51182Y26549D01*
X51186Y26547D01*
X51189Y26545D01*
X51199Y26540D01*
X51210Y26534D01*
X51221Y26527D01*
X51231Y26519D01*
X51240Y26509D01*
Y26509D01*
X51241Y26508D01*
X51242Y26507D01*
X51243Y26505D01*
X51247Y26500D01*
X51252Y26492D01*
X51257Y26482D01*
X51261Y26472D01*
X51266Y26459D01*
X51269Y26445D01*
Y26444D01*
X51270Y26442D01*
Y26441D01*
X51270Y26438D01*
X51271Y26434D01*
X51272Y26430D01*
X51272Y26425D01*
Y26420D01*
X51273Y26413D01*
X51273Y26406D01*
X51274Y26398D01*
Y26390D01*
X51274Y26380D01*
Y26370D01*
Y26359D01*
Y26233D01*
Y26233D01*
Y26231D01*
Y26230D01*
Y26228D01*
Y26224D01*
Y26221D01*
Y26212D01*
Y26201D01*
X51275Y26190D01*
Y26176D01*
Y26163D01*
X51276Y26135D01*
X51276Y26121D01*
X51277Y26107D01*
X51277Y26095D01*
X51278Y26084D01*
X51279Y26074D01*
X51279Y26070D01*
X51280Y26067D01*
Y26066D01*
X51280Y26065D01*
Y26063D01*
X51281Y26061D01*
X51282Y26058D01*
X51283Y26054D01*
X51285Y26045D01*
X51289Y26035D01*
X51293Y26024D01*
X51298Y26012D01*
X51304Y26000D01*
X51206D01*
Y26001D01*
X51206Y26001D01*
X51204Y26003D01*
X51204Y26005D01*
X51202Y26008D01*
X51201Y26012D01*
X51198Y26019D01*
X51194Y26030D01*
X51191Y26042D01*
X51189Y26054D01*
X51187Y26069D01*
X51186Y26068D01*
X51184Y26067D01*
X51182Y26064D01*
X51178Y26062D01*
X51173Y26058D01*
X51167Y26054D01*
X51161Y26049D01*
X51154Y26044D01*
X51147Y26039D01*
X51139Y26034D01*
X51122Y26023D01*
X51104Y26013D01*
X51095Y26009D01*
X51086Y26006D01*
X51085D01*
X51083Y26005D01*
X51081Y26004D01*
X51077Y26003D01*
X51073Y26002D01*
X51067Y26000D01*
X51061Y25998D01*
X51055Y25997D01*
X51047Y25995D01*
X51039Y25993D01*
X51021Y25991D01*
X51002Y25988D01*
X50982Y25988D01*
X50978D01*
X50973Y25988D01*
X50967D01*
X50959Y25989D01*
X50950Y25990D01*
X50940Y25992D01*
X50930Y25993D01*
X50919Y25996D01*
X50908Y25999D01*
X50895Y26002D01*
X50884Y26007D01*
X50873Y26012D01*
X50861Y26018D01*
X50851Y26024D01*
X50841Y26032D01*
X50840Y26033D01*
X50839Y26034D01*
X50836Y26037D01*
X50833Y26041D01*
X50830Y26045D01*
X50825Y26050D01*
X50821Y26056D01*
X50817Y26063D01*
X50812Y26071D01*
X50808Y26080D01*
X50803Y26089D01*
X50800Y26099D01*
X50797Y26110D01*
X50794Y26122D01*
X50793Y26134D01*
X50792Y26147D01*
Y26147D01*
Y26148D01*
Y26150D01*
X50793Y26154D01*
Y26157D01*
X50793Y26162D01*
X50794Y26171D01*
X50797Y26183D01*
X50800Y26195D01*
X50804Y26208D01*
X50810Y26221D01*
Y26221D01*
X50812Y26223D01*
X50812Y26224D01*
X50814Y26226D01*
X50818Y26233D01*
X50823Y26240D01*
X50830Y26249D01*
X50839Y26258D01*
X50848Y26267D01*
X50859Y26275D01*
X50859D01*
X50860Y26276D01*
X50862Y26277D01*
X50864Y26279D01*
X50867Y26280D01*
X50870Y26282D01*
X50879Y26287D01*
X50889Y26292D01*
X50900Y26297D01*
X50913Y26302D01*
X50927Y26306D01*
X50928D01*
X50928Y26307D01*
X50930D01*
X50932Y26307D01*
X50935Y26308D01*
X50939Y26309D01*
X50943Y26310D01*
X50948Y26311D01*
X50954Y26312D01*
X50960Y26313D01*
X50966Y26314D01*
X50974Y26315D01*
X50982Y26316D01*
X50991Y26318D01*
X51001Y26319D01*
X51011Y26320D01*
X51012D01*
X51014Y26321D01*
X51016D01*
X51022Y26322D01*
X51030Y26322D01*
X51039Y26324D01*
X51050Y26326D01*
X51062Y26327D01*
X51075Y26330D01*
X51088Y26332D01*
X51102Y26334D01*
X51130Y26340D01*
X51143Y26343D01*
X51156Y26346D01*
X51168Y26350D01*
X51179Y26353D01*
Y26354D01*
Y26356D01*
Y26359D01*
X51179Y26363D01*
Y26371D01*
Y26375D01*
Y26377D01*
Y26378D01*
Y26380D01*
Y26383D01*
X51179Y26387D01*
Y26391D01*
X51178Y26397D01*
X51176Y26409D01*
X51173Y26422D01*
X51168Y26436D01*
X51165Y26442D01*
X51161Y26448D01*
X51157Y26453D01*
X51152Y26458D01*
X51152Y26459D01*
X51151Y26460D01*
X51148Y26461D01*
X51146Y26463D01*
X51142Y26466D01*
X51137Y26468D01*
X51132Y26472D01*
X51126Y26475D01*
X51118Y26477D01*
X51110Y26481D01*
X51102Y26483D01*
X51092Y26486D01*
X51081Y26488D01*
X51070Y26490D01*
X51058Y26490D01*
X51045Y26491D01*
X51039D01*
X51034Y26490D01*
X51029D01*
X51022Y26490D01*
X51015Y26488D01*
X51008Y26488D01*
X50992Y26485D01*
X50976Y26481D01*
X50960Y26475D01*
X50953Y26471D01*
X50947Y26467D01*
X50946D01*
X50946Y26466D01*
X50944Y26464D01*
X50942Y26462D01*
X50939Y26460D01*
X50936Y26456D01*
X50933Y26452D01*
X50929Y26448D01*
X50925Y26442D01*
X50921Y26436D01*
X50918Y26430D01*
X50914Y26422D01*
X50910Y26414D01*
X50906Y26405D01*
X50903Y26395D01*
X50900Y26385D01*
X50808Y26397D01*
Y26398D01*
X50809Y26400D01*
X50809Y26403D01*
X50810Y26407D01*
X50812Y26412D01*
X50814Y26418D01*
X50815Y26425D01*
X50818Y26431D01*
X50824Y26447D01*
X50831Y26462D01*
X50839Y26478D01*
X50849Y26493D01*
X50850Y26493D01*
X50850Y26495D01*
X50852Y26496D01*
X50855Y26499D01*
X50858Y26502D01*
X50861Y26506D01*
X50865Y26509D01*
X50870Y26513D01*
X50876Y26518D01*
X50883Y26523D01*
X50889Y26527D01*
X50896Y26532D01*
X50905Y26537D01*
X50913Y26541D01*
X50923Y26545D01*
X50933Y26549D01*
X50933D01*
X50935Y26550D01*
X50938Y26551D01*
X50942Y26552D01*
X50947Y26553D01*
X50954Y26555D01*
X50961Y26557D01*
X50969Y26559D01*
X50977Y26561D01*
X50987Y26563D01*
X50998Y26564D01*
X51009Y26566D01*
X51021Y26567D01*
X51033Y26568D01*
X51059Y26569D01*
X51071D01*
X51077Y26568D01*
D02*
G37*
G36*
X47997Y26000D02*
X47903D01*
Y26557D01*
X47997D01*
Y26000D01*
D02*
G37*
G36*
X46208Y26492D02*
X46209Y26493D01*
X46211Y26496D01*
X46215Y26500D01*
X46220Y26504D01*
X46227Y26510D01*
X46234Y26517D01*
X46244Y26523D01*
X46254Y26531D01*
X46266Y26538D01*
X46278Y26544D01*
X46292Y26551D01*
X46307Y26557D01*
X46322Y26562D01*
X46339Y26566D01*
X46357Y26568D01*
X46375Y26569D01*
X46381D01*
X46385Y26568D01*
X46390D01*
X46396Y26568D01*
X46404Y26567D01*
X46411Y26566D01*
X46428Y26563D01*
X46446Y26558D01*
X46464Y26553D01*
X46473Y26549D01*
X46482Y26544D01*
X46483D01*
X46484Y26543D01*
X46486Y26542D01*
X46490Y26540D01*
X46493Y26537D01*
X46498Y26534D01*
X46507Y26527D01*
X46518Y26517D01*
X46529Y26506D01*
X46539Y26492D01*
X46544Y26485D01*
X46547Y26477D01*
Y26476D01*
X46549Y26475D01*
X46549Y26472D01*
X46551Y26469D01*
X46552Y26465D01*
X46554Y26459D01*
X46556Y26452D01*
X46557Y26445D01*
X46559Y26437D01*
X46561Y26428D01*
X46563Y26417D01*
X46564Y26406D01*
X46566Y26394D01*
X46566Y26381D01*
X46567Y26367D01*
Y26352D01*
Y26000D01*
X46473D01*
Y26352D01*
Y26353D01*
Y26356D01*
Y26359D01*
X46473Y26364D01*
X46472Y26370D01*
X46471Y26376D01*
X46470Y26384D01*
X46469Y26392D01*
X46465Y26408D01*
X46460Y26426D01*
X46456Y26433D01*
X46453Y26441D01*
X46448Y26448D01*
X46442Y26455D01*
X46441Y26456D01*
X46440Y26457D01*
X46439Y26458D01*
X46436Y26460D01*
X46433Y26463D01*
X46429Y26466D01*
X46425Y26468D01*
X46420Y26472D01*
X46414Y26475D01*
X46408Y26477D01*
X46400Y26480D01*
X46393Y26483D01*
X46384Y26485D01*
X46375Y26486D01*
X46365Y26487D01*
X46355Y26488D01*
X46352D01*
X46348Y26487D01*
X46344D01*
X46340Y26487D01*
X46335Y26486D01*
X46330Y26485D01*
X46318Y26482D01*
X46304Y26478D01*
X46290Y26473D01*
X46276Y26466D01*
X46276D01*
X46274Y26465D01*
X46273Y26463D01*
X46270Y26462D01*
X46264Y26457D01*
X46256Y26450D01*
X46247Y26442D01*
X46239Y26432D01*
X46231Y26420D01*
X46224Y26407D01*
Y26406D01*
X46223Y26405D01*
X46222Y26403D01*
X46222Y26400D01*
X46221Y26396D01*
X46219Y26392D01*
X46218Y26386D01*
X46216Y26380D01*
X46214Y26373D01*
X46213Y26365D01*
X46212Y26357D01*
X46211Y26348D01*
X46210Y26338D01*
X46209Y26327D01*
X46208Y26316D01*
Y26304D01*
Y26000D01*
X46114D01*
Y26768D01*
X46208D01*
Y26492D01*
D02*
G37*
G36*
X52793Y26568D02*
X52801Y26568D01*
X52811Y26567D01*
X52821Y26565D01*
X52833Y26563D01*
X52847Y26559D01*
X52861Y26556D01*
X52876Y26551D01*
X52891Y26544D01*
X52906Y26537D01*
X52922Y26528D01*
X52936Y26518D01*
X52950Y26506D01*
X52964Y26493D01*
X52965Y26492D01*
X52968Y26490D01*
X52971Y26485D01*
X52975Y26479D01*
X52981Y26471D01*
X52987Y26462D01*
X52993Y26451D01*
X53000Y26438D01*
X53007Y26423D01*
X53013Y26407D01*
X53019Y26390D01*
X53024Y26371D01*
X53029Y26350D01*
X53033Y26328D01*
X53035Y26304D01*
X53035Y26279D01*
Y26279D01*
Y26277D01*
Y26276D01*
Y26273D01*
Y26269D01*
Y26265D01*
X53035Y26260D01*
Y26254D01*
X52620D01*
Y26253D01*
X52620Y26250D01*
Y26245D01*
X52621Y26239D01*
X52622Y26231D01*
X52624Y26223D01*
X52626Y26213D01*
X52628Y26203D01*
X52631Y26191D01*
X52635Y26180D01*
X52639Y26168D01*
X52644Y26157D01*
X52649Y26145D01*
X52656Y26134D01*
X52663Y26123D01*
X52671Y26114D01*
X52672Y26113D01*
X52674Y26112D01*
X52676Y26109D01*
X52680Y26106D01*
X52684Y26103D01*
X52690Y26099D01*
X52696Y26094D01*
X52704Y26090D01*
X52711Y26085D01*
X52720Y26081D01*
X52730Y26077D01*
X52740Y26073D01*
X52751Y26070D01*
X52763Y26068D01*
X52775Y26066D01*
X52788Y26065D01*
X52793D01*
X52797Y26066D01*
X52801Y26067D01*
X52806Y26067D01*
X52812Y26068D01*
X52818Y26069D01*
X52832Y26072D01*
X52847Y26077D01*
X52855Y26080D01*
X52862Y26084D01*
X52869Y26088D01*
X52877Y26093D01*
X52877Y26093D01*
X52878Y26094D01*
X52880Y26095D01*
X52883Y26098D01*
X52886Y26101D01*
X52889Y26104D01*
X52893Y26109D01*
X52898Y26114D01*
X52902Y26120D01*
X52907Y26126D01*
X52912Y26133D01*
X52917Y26141D01*
X52922Y26150D01*
X52926Y26159D01*
X52931Y26169D01*
X52935Y26180D01*
X53032Y26168D01*
Y26167D01*
X53031Y26164D01*
X53029Y26159D01*
X53028Y26154D01*
X53025Y26147D01*
X53022Y26138D01*
X53018Y26129D01*
X53013Y26119D01*
X53007Y26109D01*
X53001Y26098D01*
X52994Y26087D01*
X52986Y26075D01*
X52978Y26065D01*
X52968Y26054D01*
X52958Y26044D01*
X52947Y26035D01*
X52946Y26034D01*
X52944Y26033D01*
X52941Y26031D01*
X52936Y26028D01*
X52929Y26024D01*
X52922Y26020D01*
X52913Y26016D01*
X52903Y26012D01*
X52892Y26007D01*
X52881Y26003D01*
X52867Y25999D01*
X52853Y25995D01*
X52838Y25992D01*
X52822Y25990D01*
X52805Y25988D01*
X52787Y25988D01*
X52782D01*
X52779Y25988D01*
X52776D01*
X52767Y25989D01*
X52757Y25990D01*
X52745Y25992D01*
X52732Y25994D01*
X52717Y25997D01*
X52702Y26001D01*
X52686Y26006D01*
X52670Y26012D01*
X52654Y26019D01*
X52638Y26028D01*
X52622Y26038D01*
X52607Y26049D01*
X52594Y26063D01*
X52593Y26064D01*
X52591Y26066D01*
X52587Y26070D01*
X52583Y26077D01*
X52577Y26084D01*
X52571Y26094D01*
X52565Y26104D01*
X52558Y26117D01*
X52551Y26132D01*
X52545Y26147D01*
X52539Y26164D01*
X52534Y26183D01*
X52529Y26204D01*
X52526Y26225D01*
X52523Y26249D01*
X52523Y26274D01*
Y26274D01*
Y26275D01*
Y26277D01*
Y26280D01*
X52523Y26283D01*
Y26287D01*
Y26291D01*
X52524Y26297D01*
X52525Y26309D01*
X52526Y26322D01*
X52529Y26337D01*
X52531Y26354D01*
X52535Y26370D01*
X52540Y26388D01*
X52546Y26406D01*
X52553Y26425D01*
X52561Y26442D01*
X52571Y26460D01*
X52582Y26476D01*
X52595Y26491D01*
X52596Y26492D01*
X52598Y26495D01*
X52602Y26498D01*
X52608Y26503D01*
X52615Y26509D01*
X52624Y26516D01*
X52634Y26523D01*
X52645Y26530D01*
X52658Y26537D01*
X52672Y26544D01*
X52687Y26551D01*
X52704Y26557D01*
X52722Y26562D01*
X52741Y26566D01*
X52761Y26568D01*
X52782Y26569D01*
X52787D01*
X52793Y26568D01*
D02*
G37*
G36*
X49870D02*
X49877Y26568D01*
X49887Y26567D01*
X49898Y26565D01*
X49910Y26563D01*
X49924Y26559D01*
X49938Y26556D01*
X49952Y26551D01*
X49968Y26544D01*
X49983Y26537D01*
X49998Y26528D01*
X50013Y26518D01*
X50027Y26506D01*
X50041Y26493D01*
X50042Y26492D01*
X50044Y26490D01*
X50048Y26485D01*
X50052Y26479D01*
X50058Y26471D01*
X50064Y26462D01*
X50070Y26451D01*
X50077Y26438D01*
X50083Y26423D01*
X50090Y26407D01*
X50096Y26390D01*
X50101Y26371D01*
X50106Y26350D01*
X50109Y26328D01*
X50112Y26304D01*
X50112Y26279D01*
Y26279D01*
Y26277D01*
Y26276D01*
Y26273D01*
Y26269D01*
Y26265D01*
X50112Y26260D01*
Y26254D01*
X49697D01*
Y26253D01*
X49697Y26250D01*
Y26245D01*
X49698Y26239D01*
X49699Y26231D01*
X49700Y26223D01*
X49703Y26213D01*
X49705Y26203D01*
X49708Y26191D01*
X49711Y26180D01*
X49715Y26168D01*
X49720Y26157D01*
X49726Y26145D01*
X49733Y26134D01*
X49740Y26123D01*
X49748Y26114D01*
X49749Y26113D01*
X49750Y26112D01*
X49753Y26109D01*
X49756Y26106D01*
X49761Y26103D01*
X49766Y26099D01*
X49773Y26094D01*
X49780Y26090D01*
X49788Y26085D01*
X49797Y26081D01*
X49806Y26077D01*
X49817Y26073D01*
X49828Y26070D01*
X49840Y26068D01*
X49852Y26066D01*
X49865Y26065D01*
X49870D01*
X49874Y26066D01*
X49878Y26067D01*
X49883Y26067D01*
X49889Y26068D01*
X49895Y26069D01*
X49909Y26072D01*
X49924Y26077D01*
X49932Y26080D01*
X49939Y26084D01*
X49946Y26088D01*
X49953Y26093D01*
X49954Y26093D01*
X49955Y26094D01*
X49957Y26095D01*
X49960Y26098D01*
X49963Y26101D01*
X49966Y26104D01*
X49970Y26109D01*
X49975Y26114D01*
X49979Y26120D01*
X49984Y26126D01*
X49988Y26133D01*
X49993Y26141D01*
X49998Y26150D01*
X50003Y26159D01*
X50007Y26169D01*
X50012Y26180D01*
X50109Y26168D01*
Y26167D01*
X50108Y26164D01*
X50106Y26159D01*
X50104Y26154D01*
X50102Y26147D01*
X50098Y26138D01*
X50094Y26129D01*
X50089Y26119D01*
X50084Y26109D01*
X50078Y26098D01*
X50071Y26087D01*
X50063Y26075D01*
X50054Y26065D01*
X50045Y26054D01*
X50035Y26044D01*
X50023Y26035D01*
X50023Y26034D01*
X50021Y26033D01*
X50017Y26031D01*
X50012Y26028D01*
X50006Y26024D01*
X49998Y26020D01*
X49990Y26016D01*
X49980Y26012D01*
X49969Y26007D01*
X49957Y26003D01*
X49944Y25999D01*
X49930Y25995D01*
X49915Y25992D01*
X49899Y25990D01*
X49882Y25988D01*
X49864Y25988D01*
X49859D01*
X49856Y25988D01*
X49852D01*
X49844Y25989D01*
X49834Y25990D01*
X49822Y25992D01*
X49809Y25994D01*
X49794Y25997D01*
X49779Y26001D01*
X49763Y26006D01*
X49747Y26012D01*
X49731Y26019D01*
X49715Y26028D01*
X49699Y26038D01*
X49684Y26049D01*
X49670Y26063D01*
X49670Y26064D01*
X49668Y26066D01*
X49664Y26070D01*
X49659Y26077D01*
X49654Y26084D01*
X49648Y26094D01*
X49642Y26104D01*
X49635Y26117D01*
X49628Y26132D01*
X49622Y26147D01*
X49616Y26164D01*
X49611Y26183D01*
X49606Y26204D01*
X49603Y26225D01*
X49600Y26249D01*
X49599Y26274D01*
Y26274D01*
Y26275D01*
Y26277D01*
Y26280D01*
X49600Y26283D01*
Y26287D01*
Y26291D01*
X49601Y26297D01*
X49602Y26309D01*
X49603Y26322D01*
X49605Y26337D01*
X49608Y26354D01*
X49612Y26370D01*
X49617Y26388D01*
X49623Y26406D01*
X49630Y26425D01*
X49638Y26442D01*
X49648Y26460D01*
X49659Y26476D01*
X49672Y26491D01*
X49673Y26492D01*
X49675Y26495D01*
X49679Y26498D01*
X49685Y26503D01*
X49692Y26509D01*
X49700Y26516D01*
X49710Y26523D01*
X49722Y26530D01*
X49735Y26537D01*
X49749Y26544D01*
X49764Y26551D01*
X49781Y26557D01*
X49799Y26562D01*
X49818Y26566D01*
X49838Y26568D01*
X49859Y26569D01*
X49864D01*
X49870Y26568D01*
D02*
G37*
G36*
X45754D02*
X45762Y26568D01*
X45772Y26567D01*
X45783Y26565D01*
X45795Y26563D01*
X45809Y26559D01*
X45824Y26556D01*
X45839Y26551D01*
X45855Y26544D01*
X45870Y26537D01*
X45886Y26528D01*
X45901Y26518D01*
X45916Y26507D01*
X45930Y26493D01*
X45931Y26492D01*
X45934Y26490D01*
X45937Y26486D01*
X45942Y26480D01*
X45947Y26472D01*
X45954Y26463D01*
X45960Y26452D01*
X45967Y26440D01*
X45974Y26425D01*
X45980Y26410D01*
X45986Y26393D01*
X45992Y26374D01*
X45997Y26354D01*
X46000Y26333D01*
X46003Y26310D01*
X46004Y26286D01*
Y26285D01*
Y26285D01*
Y26283D01*
Y26281D01*
Y26275D01*
X46003Y26268D01*
X46002Y26259D01*
X46002Y26249D01*
X46001Y26237D01*
X46000Y26225D01*
X45998Y26211D01*
X45996Y26198D01*
X45993Y26184D01*
X45990Y26169D01*
X45986Y26155D01*
X45982Y26142D01*
X45976Y26129D01*
X45971Y26117D01*
X45970Y26117D01*
X45969Y26114D01*
X45967Y26111D01*
X45965Y26107D01*
X45961Y26102D01*
X45957Y26096D01*
X45952Y26089D01*
X45947Y26082D01*
X45941Y26074D01*
X45934Y26067D01*
X45926Y26059D01*
X45918Y26051D01*
X45909Y26043D01*
X45899Y26036D01*
X45888Y26028D01*
X45877Y26022D01*
X45876Y26021D01*
X45874Y26020D01*
X45871Y26018D01*
X45866Y26017D01*
X45860Y26014D01*
X45854Y26011D01*
X45846Y26008D01*
X45838Y26005D01*
X45828Y26002D01*
X45818Y25998D01*
X45807Y25996D01*
X45795Y25993D01*
X45782Y25991D01*
X45769Y25989D01*
X45757Y25988D01*
X45743Y25988D01*
X45738D01*
X45735Y25988D01*
X45732D01*
X45723Y25989D01*
X45713Y25990D01*
X45702Y25992D01*
X45689Y25994D01*
X45676Y25997D01*
X45661Y26001D01*
X45646Y26006D01*
X45629Y26012D01*
X45614Y26019D01*
X45598Y26028D01*
X45583Y26038D01*
X45568Y26049D01*
X45554Y26062D01*
X45553Y26063D01*
X45551Y26065D01*
X45547Y26070D01*
X45543Y26076D01*
X45537Y26084D01*
X45531Y26093D01*
X45525Y26104D01*
X45518Y26117D01*
X45512Y26132D01*
X45505Y26148D01*
X45499Y26165D01*
X45493Y26185D01*
X45489Y26206D01*
X45486Y26228D01*
X45483Y26253D01*
X45482Y26278D01*
Y26279D01*
Y26280D01*
Y26282D01*
Y26285D01*
X45483Y26289D01*
Y26293D01*
X45484Y26298D01*
Y26304D01*
X45484Y26310D01*
X45485Y26316D01*
X45487Y26331D01*
X45490Y26347D01*
X45493Y26365D01*
X45497Y26383D01*
X45504Y26402D01*
X45510Y26421D01*
X45518Y26440D01*
X45528Y26458D01*
X45540Y26476D01*
X45553Y26492D01*
X45568Y26507D01*
X45569Y26507D01*
X45571Y26509D01*
X45575Y26512D01*
X45581Y26517D01*
X45588Y26521D01*
X45596Y26526D01*
X45606Y26532D01*
X45617Y26538D01*
X45629Y26543D01*
X45642Y26549D01*
X45657Y26554D01*
X45672Y26559D01*
X45688Y26563D01*
X45706Y26566D01*
X45724Y26568D01*
X45743Y26569D01*
X45750D01*
X45754Y26568D01*
D02*
G37*
G36*
X44857Y26770D02*
X44862D01*
X44869Y26770D01*
X44876Y26769D01*
X44884Y26768D01*
X44900Y26765D01*
X44919Y26760D01*
X44937Y26754D01*
X44946Y26750D01*
X44955Y26746D01*
X44956D01*
X44957Y26745D01*
X44960Y26743D01*
X44963Y26741D01*
X44967Y26739D01*
X44971Y26735D01*
X44977Y26732D01*
X44982Y26728D01*
X44995Y26718D01*
X45007Y26705D01*
X45020Y26690D01*
X45032Y26674D01*
X45032Y26673D01*
X45033Y26672D01*
X45035Y26669D01*
X45037Y26665D01*
X45040Y26661D01*
X45042Y26655D01*
X45046Y26649D01*
X45049Y26642D01*
X45053Y26634D01*
X45057Y26625D01*
X45061Y26616D01*
X45065Y26606D01*
X45069Y26596D01*
X45072Y26584D01*
X45076Y26572D01*
X45079Y26560D01*
Y26559D01*
X45080Y26557D01*
X45081Y26553D01*
X45082Y26548D01*
X45083Y26541D01*
X45085Y26533D01*
X45087Y26523D01*
X45088Y26512D01*
X45090Y26500D01*
X45092Y26486D01*
X45093Y26471D01*
X45094Y26455D01*
X45096Y26438D01*
X45097Y26419D01*
X45097Y26400D01*
Y26379D01*
Y26378D01*
Y26377D01*
Y26375D01*
Y26372D01*
Y26370D01*
Y26366D01*
X45097Y26361D01*
Y26356D01*
X45096Y26345D01*
X45096Y26331D01*
X45095Y26317D01*
X45094Y26301D01*
X45092Y26284D01*
X45091Y26266D01*
X45086Y26230D01*
X45082Y26211D01*
X45078Y26194D01*
X45074Y26176D01*
X45069Y26160D01*
X45068Y26159D01*
X45068Y26157D01*
X45066Y26153D01*
X45064Y26147D01*
X45061Y26140D01*
X45057Y26132D01*
X45053Y26123D01*
X45048Y26113D01*
X45043Y26103D01*
X45036Y26093D01*
X45030Y26082D01*
X45022Y26071D01*
X45014Y26061D01*
X45005Y26051D01*
X44996Y26041D01*
X44986Y26032D01*
X44985Y26032D01*
X44983Y26031D01*
X44980Y26028D01*
X44976Y26025D01*
X44970Y26022D01*
X44964Y26018D01*
X44956Y26014D01*
X44948Y26010D01*
X44938Y26006D01*
X44927Y26002D01*
X44916Y25998D01*
X44904Y25994D01*
X44891Y25992D01*
X44877Y25989D01*
X44862Y25988D01*
X44847Y25987D01*
X44842D01*
X44836Y25988D01*
X44829Y25988D01*
X44819Y25989D01*
X44808Y25992D01*
X44796Y25994D01*
X44783Y25997D01*
X44769Y26001D01*
X44755Y26007D01*
X44741Y26013D01*
X44726Y26021D01*
X44712Y26029D01*
X44698Y26040D01*
X44684Y26052D01*
X44672Y26066D01*
Y26067D01*
X44672Y26067D01*
X44670Y26069D01*
X44669Y26070D01*
X44667Y26073D01*
X44665Y26077D01*
X44663Y26080D01*
X44660Y26084D01*
X44658Y26089D01*
X44654Y26095D01*
X44652Y26101D01*
X44648Y26108D01*
X44645Y26115D01*
X44642Y26123D01*
X44638Y26132D01*
X44634Y26141D01*
X44631Y26151D01*
X44627Y26162D01*
X44624Y26173D01*
X44620Y26185D01*
X44617Y26197D01*
X44614Y26210D01*
X44611Y26224D01*
X44608Y26239D01*
X44606Y26254D01*
X44604Y26269D01*
X44602Y26286D01*
X44600Y26303D01*
X44598Y26321D01*
X44598Y26339D01*
X44597Y26359D01*
Y26379D01*
Y26379D01*
Y26380D01*
Y26382D01*
Y26385D01*
Y26388D01*
Y26392D01*
X44597Y26396D01*
Y26401D01*
X44598Y26412D01*
X44598Y26426D01*
X44599Y26441D01*
X44600Y26457D01*
X44602Y26474D01*
X44603Y26492D01*
X44608Y26528D01*
X44612Y26547D01*
X44616Y26564D01*
X44619Y26582D01*
X44624Y26598D01*
X44625Y26599D01*
X44625Y26602D01*
X44627Y26606D01*
X44629Y26612D01*
X44633Y26618D01*
X44636Y26627D01*
X44640Y26635D01*
X44645Y26645D01*
X44650Y26655D01*
X44657Y26665D01*
X44664Y26677D01*
X44671Y26687D01*
X44679Y26698D01*
X44688Y26708D01*
X44698Y26717D01*
X44708Y26726D01*
X44708Y26726D01*
X44710Y26728D01*
X44713Y26730D01*
X44718Y26733D01*
X44723Y26736D01*
X44730Y26740D01*
X44737Y26744D01*
X44746Y26749D01*
X44755Y26753D01*
X44766Y26756D01*
X44778Y26760D01*
X44790Y26764D01*
X44803Y26767D01*
X44817Y26769D01*
X44831Y26770D01*
X44847Y26771D01*
X44853D01*
X44857Y26770D01*
D02*
G37*
%LPC*%
G36*
X50436Y26491D02*
X50434D01*
X50430Y26490D01*
X50426D01*
X50421Y26489D01*
X50414Y26488D01*
X50407Y26486D01*
X50400Y26484D01*
X50391Y26481D01*
X50383Y26478D01*
X50375Y26474D01*
X50366Y26469D01*
X50357Y26463D01*
X50348Y26456D01*
X50340Y26448D01*
X50331Y26439D01*
X50331Y26438D01*
X50330Y26437D01*
X50328Y26433D01*
X50325Y26430D01*
X50322Y26424D01*
X50318Y26417D01*
X50315Y26409D01*
X50311Y26400D01*
X50307Y26389D01*
X50303Y26377D01*
X50299Y26364D01*
X50296Y26349D01*
X50294Y26334D01*
X50291Y26316D01*
X50290Y26297D01*
X50290Y26277D01*
Y26277D01*
Y26276D01*
Y26275D01*
Y26273D01*
X50290Y26268D01*
Y26260D01*
X50291Y26251D01*
X50292Y26241D01*
X50294Y26230D01*
X50295Y26218D01*
X50298Y26205D01*
X50301Y26192D01*
X50304Y26179D01*
X50309Y26165D01*
X50314Y26153D01*
X50320Y26140D01*
X50327Y26129D01*
X50335Y26118D01*
X50335Y26118D01*
X50337Y26116D01*
X50339Y26113D01*
X50343Y26110D01*
X50347Y26106D01*
X50352Y26102D01*
X50358Y26097D01*
X50365Y26092D01*
X50373Y26087D01*
X50380Y26082D01*
X50389Y26078D01*
X50399Y26074D01*
X50409Y26070D01*
X50419Y26068D01*
X50430Y26066D01*
X50441Y26065D01*
X50444D01*
X50447Y26066D01*
X50451D01*
X50456Y26067D01*
X50462Y26068D01*
X50470Y26070D01*
X50477Y26072D01*
X50485Y26074D01*
X50493Y26078D01*
X50502Y26082D01*
X50511Y26087D01*
X50520Y26092D01*
X50529Y26099D01*
X50537Y26107D01*
X50546Y26115D01*
X50546Y26116D01*
X50547Y26118D01*
X50550Y26121D01*
X50552Y26125D01*
X50556Y26130D01*
X50560Y26137D01*
X50563Y26145D01*
X50567Y26154D01*
X50571Y26164D01*
X50575Y26175D01*
X50579Y26188D01*
X50582Y26202D01*
X50585Y26217D01*
X50587Y26233D01*
X50588Y26251D01*
X50589Y26270D01*
Y26270D01*
Y26271D01*
Y26273D01*
Y26275D01*
Y26281D01*
X50588Y26289D01*
X50588Y26298D01*
X50587Y26309D01*
X50585Y26320D01*
X50583Y26334D01*
X50581Y26347D01*
X50578Y26361D01*
X50575Y26375D01*
X50570Y26388D01*
X50565Y26402D01*
X50559Y26415D01*
X50552Y26426D01*
X50545Y26437D01*
X50544Y26437D01*
X50542Y26439D01*
X50540Y26442D01*
X50537Y26445D01*
X50532Y26450D01*
X50527Y26454D01*
X50521Y26458D01*
X50515Y26464D01*
X50507Y26469D01*
X50499Y26473D01*
X50490Y26478D01*
X50480Y26482D01*
X50470Y26486D01*
X50460Y26488D01*
X50448Y26490D01*
X50436Y26491D01*
D02*
G37*
G36*
X49271Y26495D02*
X49269D01*
X49266Y26495D01*
X49261Y26494D01*
X49256Y26493D01*
X49250Y26492D01*
X49243Y26490D01*
X49236Y26488D01*
X49228Y26485D01*
X49219Y26481D01*
X49210Y26477D01*
X49201Y26471D01*
X49192Y26465D01*
X49183Y26457D01*
X49174Y26448D01*
X49165Y26438D01*
X49165Y26438D01*
X49163Y26436D01*
X49161Y26432D01*
X49158Y26428D01*
X49155Y26422D01*
X49151Y26415D01*
X49147Y26407D01*
X49143Y26397D01*
X49138Y26386D01*
X49134Y26374D01*
X49130Y26361D01*
X49127Y26346D01*
X49124Y26330D01*
X49122Y26313D01*
X49120Y26295D01*
X49119Y26275D01*
Y26275D01*
Y26274D01*
Y26273D01*
Y26271D01*
X49120Y26265D01*
Y26258D01*
X49120Y26249D01*
X49122Y26239D01*
X49123Y26227D01*
X49125Y26215D01*
X49127Y26203D01*
X49130Y26189D01*
X49133Y26176D01*
X49138Y26163D01*
X49143Y26150D01*
X49148Y26138D01*
X49155Y26127D01*
X49163Y26117D01*
X49163Y26116D01*
X49165Y26114D01*
X49167Y26112D01*
X49170Y26109D01*
X49175Y26105D01*
X49180Y26100D01*
X49185Y26096D01*
X49192Y26091D01*
X49199Y26086D01*
X49207Y26082D01*
X49216Y26077D01*
X49225Y26073D01*
X49235Y26070D01*
X49245Y26068D01*
X49256Y26066D01*
X49268Y26065D01*
X49270D01*
X49274Y26066D01*
X49278Y26067D01*
X49284Y26067D01*
X49290Y26068D01*
X49297Y26070D01*
X49305Y26072D01*
X49312Y26075D01*
X49321Y26078D01*
X49330Y26083D01*
X49339Y26088D01*
X49349Y26094D01*
X49357Y26101D01*
X49366Y26109D01*
X49375Y26118D01*
X49375Y26119D01*
X49377Y26121D01*
X49379Y26124D01*
X49382Y26128D01*
X49385Y26134D01*
X49389Y26141D01*
X49393Y26149D01*
X49397Y26159D01*
X49401Y26170D01*
X49405Y26182D01*
X49409Y26195D01*
X49412Y26210D01*
X49416Y26226D01*
X49418Y26244D01*
X49419Y26263D01*
X49420Y26283D01*
Y26284D01*
Y26284D01*
Y26286D01*
Y26287D01*
Y26293D01*
X49419Y26300D01*
X49418Y26309D01*
X49417Y26319D01*
X49416Y26331D01*
X49414Y26342D01*
X49412Y26355D01*
X49409Y26369D01*
X49405Y26382D01*
X49401Y26395D01*
X49396Y26407D01*
X49390Y26420D01*
X49384Y26431D01*
X49376Y26442D01*
X49375Y26442D01*
X49374Y26444D01*
X49371Y26447D01*
X49368Y26450D01*
X49364Y26454D01*
X49359Y26458D01*
X49353Y26463D01*
X49346Y26468D01*
X49339Y26473D01*
X49331Y26478D01*
X49322Y26483D01*
X49313Y26487D01*
X49304Y26490D01*
X49293Y26493D01*
X49282Y26495D01*
X49271Y26495D01*
D02*
G37*
G36*
X51179Y26279D02*
X51178D01*
X51177Y26278D01*
X51173Y26277D01*
X51169Y26276D01*
X51164Y26274D01*
X51157Y26272D01*
X51150Y26269D01*
X51140Y26267D01*
X51130Y26264D01*
X51118Y26261D01*
X51106Y26258D01*
X51092Y26255D01*
X51077Y26252D01*
X51061Y26249D01*
X51044Y26246D01*
X51025Y26243D01*
X51024D01*
X51022Y26243D01*
X51019D01*
X51015Y26241D01*
X51010Y26241D01*
X51005Y26240D01*
X50992Y26238D01*
X50979Y26235D01*
X50965Y26231D01*
X50953Y26228D01*
X50947Y26226D01*
X50942Y26224D01*
X50941Y26224D01*
X50939Y26223D01*
X50934Y26220D01*
X50929Y26216D01*
X50923Y26213D01*
X50917Y26207D01*
X50911Y26201D01*
X50905Y26194D01*
X50905Y26193D01*
X50903Y26190D01*
X50901Y26186D01*
X50899Y26181D01*
X50896Y26174D01*
X50895Y26167D01*
X50893Y26158D01*
X50893Y26149D01*
Y26149D01*
Y26148D01*
Y26145D01*
X50893Y26143D01*
X50894Y26140D01*
X50894Y26136D01*
X50896Y26127D01*
X50899Y26118D01*
X50905Y26107D01*
X50908Y26102D01*
X50911Y26097D01*
X50916Y26092D01*
X50921Y26087D01*
X50921D01*
X50922Y26085D01*
X50924Y26084D01*
X50926Y26083D01*
X50929Y26081D01*
X50933Y26079D01*
X50937Y26077D01*
X50942Y26074D01*
X50947Y26072D01*
X50954Y26069D01*
X50960Y26067D01*
X50968Y26065D01*
X50976Y26064D01*
X50985Y26063D01*
X50994Y26062D01*
X51004Y26062D01*
X51010D01*
X51014Y26062D01*
X51018D01*
X51024Y26063D01*
X51030Y26064D01*
X51037Y26064D01*
X51052Y26067D01*
X51068Y26072D01*
X51085Y26077D01*
X51101Y26085D01*
X51102Y26085D01*
X51103Y26086D01*
X51105Y26087D01*
X51108Y26089D01*
X51112Y26092D01*
X51116Y26095D01*
X51125Y26102D01*
X51135Y26112D01*
X51145Y26123D01*
X51155Y26135D01*
X51163Y26150D01*
Y26151D01*
X51164Y26152D01*
X51165Y26154D01*
X51166Y26157D01*
X51167Y26160D01*
X51168Y26164D01*
X51169Y26169D01*
X51171Y26174D01*
X51173Y26180D01*
X51174Y26187D01*
X51176Y26195D01*
X51177Y26203D01*
X51177Y26213D01*
X51178Y26223D01*
X51179Y26233D01*
Y26244D01*
Y26279D01*
D02*
G37*
G36*
X52783Y26491D02*
X52777D01*
X52772Y26491D01*
X52766Y26490D01*
X52760Y26489D01*
X52753Y26487D01*
X52745Y26486D01*
X52736Y26483D01*
X52728Y26481D01*
X52719Y26477D01*
X52710Y26473D01*
X52700Y26468D01*
X52691Y26462D01*
X52682Y26455D01*
X52674Y26447D01*
X52673Y26447D01*
X52672Y26445D01*
X52670Y26443D01*
X52666Y26440D01*
X52663Y26435D01*
X52659Y26430D01*
X52655Y26423D01*
X52651Y26417D01*
X52646Y26409D01*
X52642Y26400D01*
X52638Y26391D01*
X52634Y26380D01*
X52631Y26370D01*
X52628Y26357D01*
X52626Y26345D01*
X52625Y26332D01*
X52936D01*
Y26332D01*
X52936Y26335D01*
Y26339D01*
X52934Y26344D01*
X52934Y26349D01*
X52932Y26356D01*
X52931Y26364D01*
X52929Y26371D01*
X52924Y26388D01*
X52918Y26406D01*
X52910Y26422D01*
X52905Y26430D01*
X52900Y26437D01*
X52899Y26437D01*
X52898Y26439D01*
X52896Y26442D01*
X52892Y26445D01*
X52887Y26450D01*
X52882Y26454D01*
X52876Y26459D01*
X52868Y26464D01*
X52861Y26469D01*
X52852Y26474D01*
X52842Y26478D01*
X52832Y26483D01*
X52821Y26486D01*
X52808Y26489D01*
X52796Y26491D01*
X52783Y26491D01*
D02*
G37*
G36*
X49860D02*
X49854D01*
X49849Y26491D01*
X49843Y26490D01*
X49837Y26489D01*
X49830Y26487D01*
X49822Y26486D01*
X49813Y26483D01*
X49805Y26481D01*
X49795Y26477D01*
X49786Y26473D01*
X49777Y26468D01*
X49768Y26462D01*
X49759Y26455D01*
X49750Y26447D01*
X49750Y26447D01*
X49749Y26445D01*
X49746Y26443D01*
X49743Y26440D01*
X49740Y26435D01*
X49736Y26430D01*
X49732Y26423D01*
X49728Y26417D01*
X49723Y26409D01*
X49719Y26400D01*
X49715Y26391D01*
X49711Y26380D01*
X49708Y26370D01*
X49705Y26357D01*
X49703Y26345D01*
X49702Y26332D01*
X50013D01*
Y26332D01*
X50012Y26335D01*
Y26339D01*
X50011Y26344D01*
X50011Y26349D01*
X50009Y26356D01*
X50008Y26364D01*
X50006Y26371D01*
X50001Y26388D01*
X49995Y26406D01*
X49987Y26422D01*
X49982Y26430D01*
X49977Y26437D01*
X49976Y26437D01*
X49975Y26439D01*
X49972Y26442D01*
X49968Y26445D01*
X49964Y26450D01*
X49959Y26454D01*
X49952Y26459D01*
X49945Y26464D01*
X49937Y26469D01*
X49929Y26474D01*
X49919Y26478D01*
X49909Y26483D01*
X49897Y26486D01*
X49885Y26489D01*
X49873Y26491D01*
X49860Y26491D01*
D02*
G37*
G36*
X45743Y26491D02*
X45739D01*
X45736Y26490D01*
X45731D01*
X45725Y26489D01*
X45718Y26488D01*
X45710Y26486D01*
X45702Y26484D01*
X45693Y26481D01*
X45683Y26478D01*
X45673Y26473D01*
X45663Y26468D01*
X45654Y26462D01*
X45644Y26455D01*
X45634Y26447D01*
X45626Y26437D01*
X45625Y26437D01*
X45623Y26435D01*
X45621Y26432D01*
X45618Y26427D01*
X45615Y26422D01*
X45611Y26415D01*
X45607Y26407D01*
X45603Y26398D01*
X45598Y26387D01*
X45594Y26375D01*
X45590Y26362D01*
X45587Y26348D01*
X45584Y26332D01*
X45582Y26315D01*
X45580Y26297D01*
X45580Y26278D01*
Y26277D01*
Y26277D01*
Y26275D01*
Y26274D01*
X45580Y26268D01*
Y26261D01*
X45581Y26252D01*
X45582Y26241D01*
X45583Y26230D01*
X45585Y26218D01*
X45588Y26205D01*
X45591Y26192D01*
X45595Y26179D01*
X45599Y26166D01*
X45605Y26153D01*
X45611Y26140D01*
X45617Y26129D01*
X45626Y26118D01*
X45626Y26118D01*
X45628Y26116D01*
X45631Y26113D01*
X45634Y26110D01*
X45638Y26106D01*
X45644Y26102D01*
X45651Y26097D01*
X45658Y26092D01*
X45666Y26087D01*
X45674Y26082D01*
X45684Y26078D01*
X45694Y26074D01*
X45706Y26070D01*
X45718Y26068D01*
X45730Y26066D01*
X45743Y26065D01*
X45746D01*
X45749Y26066D01*
X45754Y26067D01*
X45760Y26067D01*
X45768Y26068D01*
X45775Y26070D01*
X45784Y26072D01*
X45793Y26075D01*
X45802Y26078D01*
X45812Y26083D01*
X45822Y26088D01*
X45831Y26094D01*
X45841Y26101D01*
X45851Y26109D01*
X45860Y26119D01*
X45860Y26119D01*
X45862Y26122D01*
X45864Y26124D01*
X45867Y26129D01*
X45871Y26134D01*
X45875Y26142D01*
X45879Y26150D01*
X45883Y26159D01*
X45888Y26170D01*
X45891Y26182D01*
X45896Y26195D01*
X45899Y26210D01*
X45902Y26226D01*
X45904Y26243D01*
X45906Y26261D01*
X45906Y26281D01*
Y26282D01*
Y26282D01*
Y26286D01*
X45906Y26291D01*
Y26298D01*
X45905Y26307D01*
X45904Y26317D01*
X45903Y26327D01*
X45900Y26340D01*
X45898Y26352D01*
X45895Y26365D01*
X45891Y26377D01*
X45886Y26391D01*
X45881Y26403D01*
X45875Y26415D01*
X45868Y26427D01*
X45859Y26437D01*
X45859Y26438D01*
X45857Y26440D01*
X45854Y26442D01*
X45851Y26446D01*
X45846Y26450D01*
X45841Y26454D01*
X45834Y26459D01*
X45827Y26464D01*
X45819Y26469D01*
X45810Y26474D01*
X45801Y26478D01*
X45790Y26482D01*
X45779Y26486D01*
X45768Y26488D01*
X45755Y26490D01*
X45743Y26491D01*
D02*
G37*
G36*
X44846Y26693D02*
X44843D01*
X44840Y26692D01*
X44835Y26692D01*
X44830Y26691D01*
X44823Y26690D01*
X44816Y26688D01*
X44809Y26686D01*
X44800Y26683D01*
X44792Y26679D01*
X44783Y26675D01*
X44775Y26669D01*
X44766Y26663D01*
X44758Y26656D01*
X44750Y26647D01*
X44742Y26638D01*
X44741Y26637D01*
X44740Y26634D01*
X44738Y26630D01*
X44734Y26624D01*
X44731Y26616D01*
X44727Y26606D01*
X44723Y26593D01*
X44718Y26579D01*
X44715Y26571D01*
X44713Y26562D01*
X44711Y26553D01*
X44709Y26543D01*
X44707Y26533D01*
X44705Y26522D01*
X44703Y26511D01*
X44702Y26498D01*
X44700Y26486D01*
X44698Y26472D01*
X44697Y26458D01*
X44696Y26444D01*
X44695Y26428D01*
X44694Y26412D01*
X44694Y26396D01*
Y26379D01*
Y26378D01*
Y26376D01*
Y26374D01*
Y26370D01*
Y26366D01*
X44694Y26361D01*
Y26355D01*
Y26348D01*
X44695Y26341D01*
Y26333D01*
X44696Y26315D01*
X44698Y26296D01*
X44699Y26276D01*
X44702Y26255D01*
X44704Y26234D01*
X44708Y26213D01*
X44712Y26193D01*
X44717Y26173D01*
X44723Y26156D01*
X44727Y26148D01*
X44730Y26140D01*
X44734Y26133D01*
X44738Y26127D01*
X44738Y26127D01*
X44740Y26124D01*
X44742Y26122D01*
X44745Y26118D01*
X44750Y26113D01*
X44755Y26108D01*
X44761Y26102D01*
X44768Y26096D01*
X44775Y26090D01*
X44784Y26084D01*
X44793Y26079D01*
X44803Y26075D01*
X44813Y26070D01*
X44824Y26068D01*
X44835Y26065D01*
X44847Y26065D01*
X44850D01*
X44853Y26065D01*
X44857Y26066D01*
X44863Y26067D01*
X44870Y26068D01*
X44877Y26070D01*
X44885Y26073D01*
X44893Y26076D01*
X44902Y26080D01*
X44911Y26085D01*
X44920Y26091D01*
X44929Y26098D01*
X44939Y26107D01*
X44947Y26116D01*
X44956Y26127D01*
X44956Y26128D01*
X44957Y26130D01*
X44960Y26134D01*
X44963Y26140D01*
X44966Y26148D01*
X44970Y26157D01*
X44974Y26168D01*
X44978Y26182D01*
X44980Y26190D01*
X44982Y26198D01*
X44984Y26206D01*
X44986Y26216D01*
X44988Y26226D01*
X44990Y26236D01*
X44992Y26248D01*
X44993Y26260D01*
X44995Y26272D01*
X44996Y26285D01*
X44997Y26299D01*
X44998Y26314D01*
X44999Y26329D01*
X45000Y26345D01*
X45000Y26361D01*
Y26379D01*
Y26379D01*
Y26381D01*
Y26384D01*
Y26387D01*
Y26391D01*
Y26396D01*
X45000Y26402D01*
Y26409D01*
X44999Y26416D01*
Y26425D01*
X44998Y26442D01*
X44996Y26461D01*
X44995Y26481D01*
X44992Y26502D01*
X44990Y26523D01*
X44986Y26544D01*
X44981Y26564D01*
X44976Y26584D01*
X44970Y26601D01*
X44967Y26609D01*
X44963Y26617D01*
X44960Y26624D01*
X44956Y26630D01*
X44955Y26630D01*
X44953Y26633D01*
X44951Y26635D01*
X44948Y26640D01*
X44943Y26644D01*
X44939Y26650D01*
X44932Y26655D01*
X44926Y26662D01*
X44918Y26667D01*
X44910Y26673D01*
X44901Y26678D01*
X44891Y26683D01*
X44880Y26687D01*
X44870Y26690D01*
X44858Y26692D01*
X44846Y26693D01*
D02*
G37*
%LPD*%
D24*
X52362Y15791D02*
G03*
X52600Y15218I811J0D01*
G01*
X53030Y13373D02*
G03*
X53500Y13843I0J470D01*
G01*
X51797Y10734D02*
G03*
X52413Y11350I0J616D01*
G01*
X52362Y15791D02*
Y16191D01*
X53500Y13843D02*
Y14282D01*
X52413Y13373D02*
X53030D01*
X52413Y12866D02*
Y13148D01*
Y12157D02*
Y12866D01*
Y11718D02*
Y12157D01*
X51264Y10734D02*
X51797D01*
D271*
X40600Y24158D02*
G03*
X40501Y23914I250J-244D01*
G01*
X40851Y24263D02*
G03*
X40600Y24158I0J-350D01*
G01*
X40501Y20901D02*
Y21414D01*
X40501Y21414D02*
X40501Y21414D01*
X40501Y22327D02*
X40501Y22327D01*
X40851Y24263D02*
X41187D01*
X40501Y22327D02*
Y23914D01*
D272*
X54718Y14219D02*
G03*
X54360Y13861I0J-358D01*
G01*
X53733Y9553D02*
G03*
X54360Y10180I0J627D01*
G01*
X51264Y9553D02*
X52496D01*
X53409Y9553D02*
X53733D01*
X54360Y10180D02*
Y13861D01*
X52496Y9553D02*
X52496Y9553D01*
X40600Y19772D02*
Y20586D01*
X52362Y16565D02*
Y16890D01*
X51228Y16937D02*
X52394D01*
X51220Y16929D02*
X51228Y16937D01*
X40600Y19376D02*
Y19548D01*
X41429Y24263D02*
X42073D01*
M02*
