G04*
G04 #@! TF.GenerationSoftware,Altium Limited,Altium Designer,21.1.1 (26)*
G04*
G04 Layer_Color=8388736*
%FSLAX24Y24*%
%MOIN*%
G70*
G04*
G04 #@! TF.SameCoordinates,859D0C74-6F1A-4902-9F36-B784FAE930BA*
G04*
G04*
G04 #@! TF.FilePolarity,Negative*
G04*
G01*
G75*
%ADD148C,0.0240*%
%ADD149R,0.0979X0.0610*%
%ADD150R,0.0166X0.0178*%
%ADD151R,0.0178X0.0166*%
%ADD152C,0.0139*%
%ADD153R,0.0926X0.0473*%
%ADD154R,0.0473X0.0454*%
%ADD155R,0.0257X0.0288*%
%ADD156R,0.0355X0.0375*%
%ADD157C,0.0454*%
%ADD158R,0.0434X0.0276*%
%ADD159R,0.0934X0.0462*%
%ADD160O,0.0287X0.0118*%
%ADD161O,0.0118X0.0287*%
%ADD162C,0.0787*%
%ADD163R,0.0462X0.0922*%
%ADD164R,0.0847X0.0847*%
%ADD165R,0.0454X0.0769*%
%ADD166R,0.1949X0.1949*%
%ADD167C,0.0148*%
%ADD168R,0.0359X0.1005*%
%ADD169R,0.0493X0.0257*%
%ADD170R,0.0651X0.0198*%
%ADD171R,0.0651X0.0336*%
%ADD172R,0.0454X0.0690*%
%ADD173R,0.1143X0.0611*%
%ADD174R,0.1312X0.0560*%
%ADD175R,0.0414X0.0336*%
%ADD176R,0.0178X0.0296*%
%ADD177R,0.0237X0.1202*%
%ADD178R,0.0237X0.0808*%
%ADD179R,0.0296X0.0296*%
%ADD180R,0.0355X0.0336*%
%ADD181R,0.0611X0.0257*%
%ADD182R,0.0532X0.0316*%
%ADD183R,0.0237X0.1005*%
%ADD184R,0.1560X0.0560*%
%ADD185R,0.0355X0.0375*%
%ADD186O,0.0157X0.0689*%
%ADD187O,0.0689X0.0157*%
%ADD188R,0.0454X0.0395*%
%ADD189R,0.0296X0.0395*%
%ADD190R,0.0592X0.0217*%
%ADD191R,0.0670X0.0808*%
%ADD192R,0.0611X0.0690*%
%ADD193R,0.0380X0.0360*%
%ADD194R,0.0375X0.0355*%
%ADD195R,0.0288X0.0257*%
%ADD196R,0.0150X0.0130*%
%ADD197R,0.0360X0.0380*%
%ADD198C,0.0138*%
%ADD199R,0.0257X0.0316*%
%ADD200R,0.0493X0.0611*%
%ADD201C,0.0370*%
%ADD202R,0.0316X0.0257*%
%ADD203R,0.0157X0.0252*%
%ADD204R,0.0354X0.0354*%
%ADD205R,0.0252X0.0252*%
%ADD206R,0.0252X0.0157*%
%ADD207R,0.0157X0.0157*%
%ADD208R,0.0242X0.0207*%
%ADD209R,0.0148X0.0207*%
%ADD210O,0.0265X0.0132*%
%ADD211O,0.0132X0.0265*%
%ADD212O,0.0132X0.0304*%
%ADD213R,0.0505X0.0505*%
%ADD214O,0.0434X0.0158*%
%ADD215O,0.0158X0.0434*%
%ADD216R,0.0395X0.0434*%
%ADD217R,0.0316X0.0198*%
%ADD218R,0.0453X0.0323*%
%ADD219R,0.0157X0.0177*%
%ADD220R,0.0256X0.0276*%
%ADD221C,0.0651*%
%ADD222R,0.0296X0.0257*%
%ADD223R,0.0158X0.0296*%
%ADD224R,0.0406X0.0323*%
%ADD225R,0.0220X0.0209*%
%ADD226R,0.0414X0.0769*%
%ADD227R,0.0237X0.0158*%
%ADD228R,0.0237X0.0198*%
%ADD229R,0.1123X0.0375*%
%ADD230R,0.0158X0.0202*%
%ADD231R,0.0257X0.0296*%
%ADD232R,0.0198X0.0414*%
%ADD233O,0.0611X0.0217*%
%ADD234R,0.0296X0.0611*%
%ADD235R,0.0296X0.0729*%
%ADD236R,0.0209X0.0150*%
%ADD237R,0.0209X0.0327*%
%ADD238R,0.0257X0.0257*%
%ADD239R,0.0146X0.0157*%
%ADD240R,0.0150X0.0209*%
%ADD241R,0.0327X0.0209*%
%ADD242R,0.0360X0.0460*%
%ADD243R,0.0157X0.0146*%
%ADD244R,0.0202X0.0158*%
%ADD245R,0.0690X0.0454*%
%ADD246R,0.0158X0.0296*%
%ADD247R,0.0157X0.0244*%
%ADD248R,0.0157X0.0232*%
%ADD249R,0.1063X0.0866*%
%ADD250R,0.2047X0.2047*%
%ADD251R,0.0513X0.0237*%
%ADD252R,0.1399X0.1635*%
%ADD253R,0.0560X0.1312*%
%ADD254O,0.0304X0.0132*%
%ADD255R,0.0118X0.0177*%
%ADD256R,0.0611X0.0493*%
%ADD257R,0.0323X0.0453*%
%ADD258R,0.0177X0.0157*%
G04:AMPARAMS|DCode=259|XSize=15.7mil|YSize=14.6mil|CornerRadius=0mil|HoleSize=0mil|Usage=FLASHONLY|Rotation=315.000|XOffset=0mil|YOffset=0mil|HoleType=Round|Shape=Rectangle|*
%AMROTATEDRECTD259*
4,1,4,-0.0107,0.0004,-0.0004,0.0107,0.0107,-0.0004,0.0004,-0.0107,-0.0107,0.0004,0.0*
%
%ADD259ROTATEDRECTD259*%

%ADD260R,0.0454X0.0690*%
%ADD261R,0.0296X0.0158*%
%ADD262R,0.1005X0.0359*%
%ADD263R,0.0454X0.0690*%
%ADD264C,0.0761*%
%ADD265R,0.0651X0.0651*%
%ADD266O,0.0690X0.0414*%
%ADD267C,0.0354*%
%ADD268O,0.0847X0.1635*%
%ADD269C,0.1320*%
G36*
X59502Y19219D02*
X58832D01*
Y20046D01*
X59502D01*
Y19219D01*
D02*
G37*
G36*
X60210Y19554D02*
X60637D01*
Y18904D01*
X59659D01*
Y20046D01*
X60210D01*
Y19554D01*
D02*
G37*
G36*
X58675Y18904D02*
X57691D01*
Y20046D01*
X58675D01*
Y18904D01*
D02*
G37*
G36*
X58931Y13274D02*
X57691D01*
Y14495D01*
X58931D01*
Y13274D01*
D02*
G37*
G36*
X58950Y11845D02*
X57691D01*
Y12920D01*
X58950D01*
Y11845D01*
D02*
G37*
G36*
X58163Y3806D02*
X57691D01*
Y4751D01*
X58163D01*
Y3806D01*
D02*
G37*
G36*
X3686Y2918D02*
X3690Y2916D01*
X3695Y2915D01*
X3697Y2913D01*
X3699Y2912D01*
X3702Y2909D01*
Y2909D01*
X3702D01*
X3705Y2905D01*
X3706Y2904D01*
X3708Y2901D01*
X3710Y2897D01*
X3711Y2893D01*
X3711Y2888D01*
D01*
Y2888D01*
X3711Y2322D01*
X3711Y2317D01*
X3710Y2312D01*
X3708Y2308D01*
X3706Y2305D01*
X3705Y2304D01*
X3702Y2300D01*
X3639Y2237D01*
X3635Y2234D01*
X3631Y2231D01*
X3629Y2230D01*
X3627Y2229D01*
X3622Y2228D01*
X3617Y2228D01*
X3287Y2228D01*
X3287D01*
X3287D01*
X3283Y2228D01*
X3278Y2229D01*
X3276Y2230D01*
X3274Y2231D01*
X3270Y2234D01*
X3266Y2237D01*
Y2237D01*
X3266D01*
X3263Y2240D01*
X3261Y2244D01*
X3260Y2247D01*
X3259Y2249D01*
X3258Y2253D01*
X3257Y2258D01*
Y2258D01*
Y2258D01*
Y2888D01*
X3258Y2893D01*
X3259Y2897D01*
X3261Y2901D01*
X3263Y2905D01*
X3266Y2909D01*
X3270Y2912D01*
X3274Y2915D01*
X3278Y2916D01*
X3283Y2918D01*
X3287Y2918D01*
X3681D01*
D01*
X3681D01*
X3686Y2918D01*
D02*
G37*
G36*
X1717D02*
X1722Y2916D01*
X1726Y2915D01*
X1730Y2912D01*
X1734Y2909D01*
X1737Y2905D01*
X1739Y2901D01*
X1741Y2897D01*
X1742Y2893D01*
X1743Y2888D01*
Y2258D01*
Y2258D01*
Y2258D01*
X1742Y2253D01*
X1741Y2249D01*
X1740Y2247D01*
X1739Y2244D01*
X1737Y2240D01*
X1734Y2237D01*
X1734D01*
Y2237D01*
X1730Y2234D01*
X1726Y2231D01*
X1724Y2230D01*
X1722Y2229D01*
X1717Y2228D01*
X1713Y2228D01*
X1713D01*
X1713D01*
X1383Y2228D01*
X1378Y2228D01*
X1373Y2229D01*
X1371Y2230D01*
X1369Y2231D01*
X1365Y2234D01*
X1361Y2237D01*
X1298Y2300D01*
X1295Y2304D01*
X1294Y2305D01*
X1292Y2308D01*
X1290Y2312D01*
X1289Y2317D01*
X1289Y2322D01*
X1289Y2888D01*
Y2888D01*
D01*
X1289Y2893D01*
X1290Y2897D01*
X1292Y2901D01*
X1294Y2904D01*
X1295Y2905D01*
X1298Y2909D01*
X1298D01*
Y2909D01*
X1301Y2912D01*
X1303Y2913D01*
X1305Y2915D01*
X1310Y2916D01*
X1314Y2918D01*
X1319Y2918D01*
X1319D01*
D01*
X1713D01*
X1717Y2918D01*
D02*
G37*
G36*
X9000Y4024D02*
X9005Y4023D01*
X9009Y4021D01*
X9013Y4019D01*
X9017Y4016D01*
X9273Y3760D01*
X9276Y3756D01*
X9278Y3752D01*
X9280Y3748D01*
X9281Y3743D01*
X9281Y3738D01*
Y2951D01*
X9281Y2946D01*
X9280Y2942D01*
X9278Y2937D01*
X9276Y2933D01*
X9273Y2930D01*
X9017Y2674D01*
X9013Y2671D01*
X9009Y2668D01*
X9005Y2667D01*
X9000Y2665D01*
X8995Y2665D01*
X8759D01*
X8754Y2665D01*
X8750Y2667D01*
X8745Y2668D01*
X8741Y2671D01*
X8738Y2674D01*
X8482Y2930D01*
X8479Y2933D01*
X8476Y2937D01*
X8475Y2942D01*
X8473Y2946D01*
X8473Y2951D01*
Y3738D01*
X8473Y3743D01*
X8475Y3748D01*
X8476Y3752D01*
X8479Y3756D01*
X8482Y3760D01*
X8738Y4016D01*
X8741Y4019D01*
X8745Y4021D01*
X8750Y4023D01*
X8754Y4024D01*
X8759Y4024D01*
X8995D01*
X9000Y4024D01*
D02*
G37*
G36*
X3617Y1973D02*
X3622Y1973D01*
X3627Y1972D01*
X3629Y1971D01*
X3631Y1970D01*
X3635Y1967D01*
X3639Y1964D01*
X3702Y1901D01*
X3705Y1897D01*
X3706Y1895D01*
X3708Y1893D01*
X3710Y1889D01*
X3711Y1884D01*
X3711Y1879D01*
X3711Y1313D01*
Y1313D01*
D01*
X3711Y1308D01*
X3710Y1304D01*
X3708Y1299D01*
X3706Y1297D01*
X3705Y1295D01*
X3702Y1292D01*
X3702D01*
Y1292D01*
X3699Y1289D01*
X3697Y1288D01*
X3695Y1286D01*
X3690Y1284D01*
X3686Y1283D01*
X3681Y1283D01*
X3681D01*
D01*
X3287D01*
X3283Y1283D01*
X3278Y1284D01*
X3274Y1286D01*
X3270Y1289D01*
X3266Y1292D01*
X3263Y1295D01*
X3261Y1299D01*
X3259Y1304D01*
X3258Y1308D01*
X3257Y1313D01*
Y1943D01*
Y1943D01*
Y1943D01*
X3258Y1948D01*
X3259Y1952D01*
X3260Y1954D01*
X3261Y1957D01*
X3263Y1961D01*
X3266Y1964D01*
X3266D01*
Y1964D01*
X3270Y1967D01*
X3274Y1970D01*
X3276Y1971D01*
X3278Y1972D01*
X3283Y1973D01*
X3287Y1973D01*
X3287D01*
X3287D01*
X3617Y1973D01*
D02*
G37*
G36*
X1717Y1973D02*
X1722Y1972D01*
X1724Y1971D01*
X1726Y1970D01*
X1730Y1967D01*
X1734Y1964D01*
Y1964D01*
X1734D01*
X1737Y1961D01*
X1739Y1957D01*
X1740Y1954D01*
X1741Y1952D01*
X1742Y1948D01*
X1743Y1943D01*
Y1943D01*
Y1943D01*
Y1313D01*
X1742Y1308D01*
X1741Y1304D01*
X1739Y1299D01*
X1737Y1295D01*
X1734Y1292D01*
X1730Y1289D01*
X1726Y1286D01*
X1722Y1284D01*
X1717Y1283D01*
X1713Y1283D01*
X1319D01*
D01*
X1319D01*
X1314Y1283D01*
X1310Y1284D01*
X1305Y1286D01*
X1303Y1288D01*
X1301Y1289D01*
X1298Y1292D01*
Y1292D01*
X1298D01*
X1295Y1295D01*
X1294Y1297D01*
X1292Y1299D01*
X1290Y1304D01*
X1289Y1308D01*
X1289Y1313D01*
D01*
Y1313D01*
X1289Y1879D01*
X1289Y1884D01*
X1290Y1889D01*
X1292Y1893D01*
X1294Y1895D01*
X1295Y1897D01*
X1298Y1901D01*
X1361Y1964D01*
X1365Y1967D01*
X1369Y1970D01*
X1371Y1971D01*
X1373Y1972D01*
X1378Y1973D01*
X1383Y1973D01*
X1713Y1973D01*
X1713D01*
X1713D01*
X1717Y1973D01*
D02*
G37*
G36*
X60643Y1148D02*
X60171D01*
Y715D01*
X59384D01*
Y1148D01*
X58950D01*
Y715D01*
X58163D01*
Y1148D01*
X57691D01*
Y1857D01*
X60643D01*
Y1148D01*
D02*
G37*
D148*
X6110Y17631D02*
G03*
X6110Y17631I-110J0D01*
G01*
X7419Y15424D02*
G03*
X7419Y15424I-110J0D01*
G01*
Y15402D02*
G03*
X7419Y15402I-110J0D01*
G01*
X36160Y8639D02*
G03*
X36160Y8639I-110J0D01*
G01*
Y8661D02*
G03*
X36160Y8661I-110J0D01*
G01*
X10271Y11844D02*
G03*
X10271Y11844I-110J0D01*
G01*
X10249D02*
G03*
X10249Y11844I-110J0D01*
G01*
X10006Y9817D02*
G03*
X10006Y9817I-110J0D01*
G01*
X9867Y14424D02*
G03*
X9867Y14424I-110J0D01*
G01*
X9845D02*
G03*
X9845Y14424I-110J0D01*
G01*
X3735Y14639D02*
G03*
X3735Y14639I-110J0D01*
G01*
X34609Y9800D02*
G03*
X34609Y9800I-110J0D01*
G01*
X34631D02*
G03*
X34631Y9800I-110J0D01*
G01*
X40387Y5502D02*
G03*
X40387Y5502I-110J0D01*
G01*
X29470Y13022D02*
G03*
X29470Y13022I-110J0D01*
G01*
X29448D02*
G03*
X29448Y13022I-110J0D01*
G01*
X43348Y9461D02*
G03*
X43348Y9461I-110J0D01*
G01*
Y9439D02*
G03*
X43348Y9439I-110J0D01*
G01*
X35660Y8649D02*
G03*
X35660Y8649I-110J0D01*
G01*
X36660Y8651D02*
G03*
X36660Y8651I-110J0D01*
G01*
X37660D02*
G03*
X37660Y8651I-110J0D01*
G01*
X37160D02*
G03*
X37160Y8651I-110J0D01*
G01*
X35160D02*
G03*
X35160Y8651I-110J0D01*
G01*
X29011Y18690D02*
G03*
X29011Y18690I-110J0D01*
G01*
X9011Y14470D02*
G03*
X9011Y14470I-110J0D01*
G01*
X11870Y15081D02*
G03*
X11870Y15081I-110J0D01*
G01*
X6879Y9560D02*
G03*
X6879Y9560I-110J0D01*
G01*
X3170Y5739D02*
G03*
X3170Y5739I-110J0D01*
G01*
X10210Y2439D02*
G03*
X10210Y2439I-110J0D01*
G01*
Y2461D02*
G03*
X10210Y2461I-110J0D01*
G01*
X10259Y10950D02*
G03*
X10259Y10950I-110J0D01*
G01*
X26660Y10511D02*
G03*
X26660Y10511I-110J0D01*
G01*
Y10489D02*
G03*
X26660Y10489I-110J0D01*
G01*
X27160Y10511D02*
G03*
X27160Y10511I-110J0D01*
G01*
Y10489D02*
G03*
X27160Y10489I-110J0D01*
G01*
X27660Y10511D02*
G03*
X27660Y10511I-110J0D01*
G01*
Y10489D02*
G03*
X27660Y10489I-110J0D01*
G01*
X28160Y10511D02*
G03*
X28160Y10511I-110J0D01*
G01*
Y10489D02*
G03*
X28160Y10489I-110J0D01*
G01*
X21561Y10474D02*
G03*
X21561Y10474I-110J0D01*
G01*
X21583D02*
G03*
X21583Y10474I-110J0D01*
G01*
X21401Y12120D02*
G03*
X21401Y12120I-110J0D01*
G01*
X21423D02*
G03*
X21423Y12120I-110J0D01*
G01*
X15948Y13622D02*
G03*
X15948Y13622I-110J0D01*
G01*
X15970D02*
G03*
X15970Y13622I-110J0D01*
G01*
X21401Y12620D02*
G03*
X21401Y12620I-110J0D01*
G01*
X21423D02*
G03*
X21423Y12620I-110J0D01*
G01*
X21401Y13120D02*
G03*
X21401Y13120I-110J0D01*
G01*
X21423D02*
G03*
X21423Y13120I-110J0D01*
G01*
X21401Y13628D02*
G03*
X21401Y13628I-110J0D01*
G01*
X21423D02*
G03*
X21423Y13628I-110J0D01*
G01*
X21561Y8445D02*
G03*
X21561Y8445I-110J0D01*
G01*
X21583D02*
G03*
X21583Y8445I-110J0D01*
G01*
X20599Y6420D02*
G03*
X20599Y6420I-110J0D01*
G01*
X20621D02*
G03*
X20621Y6420I-110J0D01*
G01*
X26121Y11000D02*
G03*
X26121Y11000I-110J0D01*
G01*
X26099D02*
G03*
X26099Y11000I-110J0D01*
G01*
X25509D02*
G03*
X25509Y11000I-110J0D01*
G01*
X3990Y21101D02*
G03*
X3990Y21101I-110J0D01*
G01*
X5616Y13990D02*
G03*
X5616Y13990I-110J0D01*
G01*
X35291Y9296D02*
G03*
X35291Y9296I-110J0D01*
G01*
D149*
X53050Y14750D02*
D03*
D150*
X29915Y10480D02*
D03*
X30140D02*
D03*
Y11599D02*
D03*
X29915D02*
D03*
X41411Y24263D02*
D03*
X41187Y24263D02*
D03*
X40726Y21151D02*
D03*
X40501D02*
D03*
X10458Y6190D02*
D03*
X10682D02*
D03*
X31588Y14580D02*
D03*
X31812D02*
D03*
X38522Y7410D02*
D03*
X38298D02*
D03*
X28788Y10480D02*
D03*
X45652Y12090D02*
D03*
X45428D02*
D03*
X55322Y13826D02*
D03*
X43746Y7343D02*
D03*
X43970D02*
D03*
X42907Y5854D02*
D03*
X42682D02*
D03*
X42907Y7921D02*
D03*
X42682D02*
D03*
X40545Y5854D02*
D03*
X40320D02*
D03*
X40545Y7921D02*
D03*
X40320D02*
D03*
X41232Y5650D02*
D03*
X41008D02*
D03*
X41672D02*
D03*
X41448D02*
D03*
X41012Y7717D02*
D03*
X41237D02*
D03*
X41452D02*
D03*
X41677D02*
D03*
X43408Y3890D02*
D03*
X43632D02*
D03*
X31182Y14920D02*
D03*
X30958D02*
D03*
X41762Y12690D02*
D03*
X41538D02*
D03*
X41762Y13010D02*
D03*
X41538D02*
D03*
X41762Y13330D02*
D03*
X41538D02*
D03*
X21288Y11065D02*
D03*
X21512D02*
D03*
X21288Y11300D02*
D03*
X21512D02*
D03*
X20194Y11615D02*
D03*
X19969D02*
D03*
X20194Y10947D02*
D03*
X19969D02*
D03*
X20194Y10710D02*
D03*
X19969D02*
D03*
X20194Y10474D02*
D03*
X19969D02*
D03*
X20194Y9843D02*
D03*
X19969D02*
D03*
Y9449D02*
D03*
X20194D02*
D03*
Y8919D02*
D03*
X19969D02*
D03*
X20194Y8682D02*
D03*
X19969D02*
D03*
X20194Y8445D02*
D03*
X19969D02*
D03*
X20194Y8208D02*
D03*
X19969D02*
D03*
X19966Y7950D02*
D03*
X20190D02*
D03*
X19966Y7700D02*
D03*
X20190D02*
D03*
X19966Y7454D02*
D03*
X20190D02*
D03*
X9152Y10210D02*
D03*
X8928D02*
D03*
X1338Y3250D02*
D03*
X1562D02*
D03*
X11351Y6813D02*
D03*
X11127D02*
D03*
X1062Y3750D02*
D03*
X838D02*
D03*
X9318Y6440D02*
D03*
X9542D02*
D03*
X39612Y13720D02*
D03*
X39388D02*
D03*
X39612Y13140D02*
D03*
X39388D02*
D03*
X39612Y12560D02*
D03*
X39388D02*
D03*
X39612Y11980D02*
D03*
X39388D02*
D03*
X43872Y5130D02*
D03*
X43648D02*
D03*
X41318Y5050D02*
D03*
X41542D02*
D03*
X36418Y18670D02*
D03*
X36642D02*
D03*
X27388Y7970D02*
D03*
X27612D02*
D03*
X34618Y14830D02*
D03*
X34842D02*
D03*
X25888Y10500D02*
D03*
X26112D02*
D03*
X20194Y12902D02*
D03*
X19969D02*
D03*
X37298Y11640D02*
D03*
X37522D02*
D03*
X35772Y12010D02*
D03*
X35548D02*
D03*
X29012Y10480D02*
D03*
X42578Y11010D02*
D03*
X42802D02*
D03*
X41777Y15542D02*
D03*
X42002D02*
D03*
X55098Y13826D02*
D03*
X3948Y23010D02*
D03*
X4172D02*
D03*
X15282Y6120D02*
D03*
X15058D02*
D03*
X20438Y12124D02*
D03*
X20662D02*
D03*
D151*
X33386Y10750D02*
D03*
Y10975D02*
D03*
X54203Y15310D02*
D03*
Y15534D02*
D03*
X56332Y14511D02*
D03*
X56332Y14286D02*
D03*
X40600Y19548D02*
D03*
Y19772D02*
D03*
X40590Y13702D02*
D03*
Y13478D02*
D03*
X2220Y5638D02*
D03*
Y5863D02*
D03*
X4325Y15623D02*
D03*
Y15398D02*
D03*
X47150Y7402D02*
D03*
Y7178D02*
D03*
X41430Y3747D02*
D03*
Y3972D02*
D03*
X38010Y8188D02*
D03*
Y8412D02*
D03*
Y8862D02*
D03*
Y8638D02*
D03*
X13960Y6178D02*
D03*
Y6402D02*
D03*
X20170Y17232D02*
D03*
Y17008D02*
D03*
X53524Y15566D02*
D03*
Y15790D02*
D03*
X7600Y7288D02*
D03*
Y7513D02*
D03*
Y6913D02*
D03*
Y6688D02*
D03*
X7334Y3318D02*
D03*
Y3094D02*
D03*
X6980Y3088D02*
D03*
Y3313D02*
D03*
X6650Y3088D02*
D03*
Y3313D02*
D03*
X6152Y6163D02*
D03*
Y5938D02*
D03*
X5363Y11303D02*
D03*
Y11078D02*
D03*
Y10863D02*
D03*
Y10638D02*
D03*
X10606Y12067D02*
D03*
Y11843D02*
D03*
X12300Y11543D02*
D03*
Y11767D02*
D03*
X38330Y12128D02*
D03*
Y12352D02*
D03*
X38100Y12512D02*
D03*
Y12288D02*
D03*
X38330Y11618D02*
D03*
Y11842D02*
D03*
X38100Y12022D02*
D03*
Y11798D02*
D03*
X39440Y10692D02*
D03*
Y10468D02*
D03*
X40480Y9478D02*
D03*
Y9702D02*
D03*
X40820Y13702D02*
D03*
Y13478D02*
D03*
X40360Y13478D02*
D03*
Y13702D02*
D03*
X54429Y15534D02*
D03*
Y15310D02*
D03*
X14220Y6402D02*
D03*
Y6178D02*
D03*
X35470Y11502D02*
D03*
Y11278D02*
D03*
X34380Y12188D02*
D03*
Y12412D02*
D03*
X14730Y6002D02*
D03*
Y5778D02*
D03*
X21400Y7238D02*
D03*
Y7463D02*
D03*
X6635Y14956D02*
D03*
Y14732D02*
D03*
X16824Y14059D02*
D03*
Y14283D02*
D03*
X17061Y14059D02*
D03*
Y14283D02*
D03*
X15663Y6246D02*
D03*
Y6471D02*
D03*
X12500Y8288D02*
D03*
Y8512D02*
D03*
X3396Y22353D02*
D03*
Y22128D02*
D03*
X4955Y21242D02*
D03*
Y21467D02*
D03*
X4946Y22638D02*
D03*
Y22863D02*
D03*
X18419Y6521D02*
D03*
Y6296D02*
D03*
X17875Y6521D02*
D03*
Y6296D02*
D03*
X23800Y9388D02*
D03*
Y9613D02*
D03*
X20700Y12642D02*
D03*
Y12867D02*
D03*
X48782Y5855D02*
D03*
Y6080D02*
D03*
X44004Y5856D02*
D03*
Y6080D02*
D03*
D152*
X6000Y17507D02*
D03*
Y17753D02*
D03*
X7309Y15546D02*
D03*
Y15280D02*
D03*
X36050Y8517D02*
D03*
Y8783D02*
D03*
X10283Y11844D02*
D03*
X10017D02*
D03*
X9896Y9941D02*
D03*
Y9695D02*
D03*
X9879Y14424D02*
D03*
X9613D02*
D03*
X3625Y14763D02*
D03*
Y14517D02*
D03*
X34377Y9800D02*
D03*
X34643D02*
D03*
X40399Y5502D02*
D03*
X40153D02*
D03*
X29482Y13022D02*
D03*
X29216D02*
D03*
X43238Y9317D02*
D03*
Y9583D02*
D03*
X35550Y8527D02*
D03*
Y8773D02*
D03*
X36550D02*
D03*
Y8527D02*
D03*
X37550Y8773D02*
D03*
Y8527D02*
D03*
X37050Y8773D02*
D03*
Y8527D02*
D03*
X35050Y8773D02*
D03*
Y8527D02*
D03*
X29023Y18690D02*
D03*
X28777D02*
D03*
X9023Y14470D02*
D03*
X8777D02*
D03*
X11760Y14957D02*
D03*
Y15203D02*
D03*
X6647Y9560D02*
D03*
X6893D02*
D03*
X3060Y5617D02*
D03*
Y5863D02*
D03*
X10100Y2317D02*
D03*
Y2583D02*
D03*
X10273Y10950D02*
D03*
X10027D02*
D03*
X26550Y10633D02*
D03*
Y10367D02*
D03*
X27050Y10633D02*
D03*
Y10367D02*
D03*
X27550Y10633D02*
D03*
Y10367D02*
D03*
X28050Y10633D02*
D03*
Y10367D02*
D03*
X21329Y10474D02*
D03*
X21595D02*
D03*
X21169Y12120D02*
D03*
X21435D02*
D03*
X15716Y13622D02*
D03*
X15982D02*
D03*
X21169Y12620D02*
D03*
X21435D02*
D03*
X21169Y13120D02*
D03*
X21435D02*
D03*
X21169Y13628D02*
D03*
X21435D02*
D03*
X21329Y8445D02*
D03*
X21595D02*
D03*
X20367Y6420D02*
D03*
X20633D02*
D03*
X26133Y11000D02*
D03*
X25867D02*
D03*
X25277D02*
D03*
X25523D02*
D03*
X3880Y20977D02*
D03*
Y21223D02*
D03*
X5382Y13990D02*
D03*
X5628D02*
D03*
X35057Y9296D02*
D03*
X35303D02*
D03*
D153*
X53437Y12738D02*
D03*
Y11577D02*
D03*
D154*
X52837Y12157D02*
D03*
D155*
X40501Y22327D02*
D03*
Y21414D02*
D03*
D156*
X40905Y22244D02*
D03*
X40098D02*
D03*
Y21496D02*
D03*
X40905Y21496D02*
D03*
D157*
X53346Y7799D02*
D03*
X27407Y5740D02*
D03*
Y4740D02*
D03*
X53346Y6299D02*
D03*
X54096D02*
D03*
X53346Y7049D02*
D03*
X54096D02*
D03*
Y7799D02*
D03*
X43307Y11614D02*
D03*
Y12598D02*
D03*
X30707Y4740D02*
D03*
D158*
X43255Y24263D02*
D03*
Y24775D02*
D03*
X42073Y24263D02*
D03*
Y24775D02*
D03*
D159*
X38612Y21000D02*
D03*
X36388D02*
D03*
X38612Y20000D02*
D03*
X36388D02*
D03*
D160*
X35029Y14406D02*
D03*
Y14249D02*
D03*
Y14091D02*
D03*
Y13934D02*
D03*
X34065D02*
D03*
Y14091D02*
D03*
Y14249D02*
D03*
Y14406D02*
D03*
X40082Y10112D02*
D03*
Y10270D02*
D03*
Y10427D02*
D03*
Y10585D02*
D03*
X41047D02*
D03*
Y10427D02*
D03*
Y10270D02*
D03*
Y10112D02*
D03*
X26475Y7799D02*
D03*
Y7956D02*
D03*
Y8114D02*
D03*
Y8271D02*
D03*
X27125D02*
D03*
Y8114D02*
D03*
Y7956D02*
D03*
Y7799D02*
D03*
X32262Y12666D02*
D03*
Y12509D02*
D03*
Y12351D02*
D03*
Y12194D02*
D03*
X31298D02*
D03*
Y12351D02*
D03*
Y12509D02*
D03*
Y12666D02*
D03*
X28613Y11181D02*
D03*
X38485Y10544D02*
D03*
Y10701D02*
D03*
Y10859D02*
D03*
Y11016D02*
D03*
X39135Y11016D02*
D03*
Y10859D02*
D03*
Y10701D02*
D03*
Y10544D02*
D03*
X41185Y12866D02*
D03*
Y12709D02*
D03*
Y12551D02*
D03*
Y12394D02*
D03*
X40535D02*
D03*
X40535Y12551D02*
D03*
Y12709D02*
D03*
Y12866D02*
D03*
X32982Y7116D02*
D03*
Y6958D02*
D03*
Y6801D02*
D03*
Y6643D02*
D03*
X32018D02*
D03*
Y6801D02*
D03*
Y6958D02*
D03*
Y7116D02*
D03*
X35804Y9346D02*
D03*
Y9503D02*
D03*
Y9661D02*
D03*
Y9818D02*
D03*
X36769D02*
D03*
Y9661D02*
D03*
Y9503D02*
D03*
Y9346D02*
D03*
X23059Y9983D02*
D03*
Y9826D02*
D03*
Y9668D02*
D03*
Y9511D02*
D03*
X22410D02*
D03*
Y9668D02*
D03*
Y9826D02*
D03*
Y9983D02*
D03*
X29578Y11339D02*
D03*
Y11181D02*
D03*
Y11024D02*
D03*
Y10866D02*
D03*
X28613D02*
D03*
Y11024D02*
D03*
Y11339D02*
D03*
X41965Y10112D02*
D03*
Y10270D02*
D03*
Y10427D02*
D03*
Y10585D02*
D03*
X42930D02*
D03*
Y10427D02*
D03*
Y10270D02*
D03*
Y10112D02*
D03*
D161*
X34783Y13845D02*
D03*
X34626D02*
D03*
X34468D02*
D03*
X34311D02*
D03*
Y14495D02*
D03*
X34468D02*
D03*
X34626D02*
D03*
X34783D02*
D03*
X40328Y10673D02*
D03*
X40486D02*
D03*
X40643D02*
D03*
X40800D02*
D03*
Y10024D02*
D03*
X40643D02*
D03*
X40486D02*
D03*
X40328D02*
D03*
X27036Y7553D02*
D03*
X26879D02*
D03*
X26721D02*
D03*
X26564D02*
D03*
Y8517D02*
D03*
X26721D02*
D03*
X26879D02*
D03*
X27036D02*
D03*
X32016Y12105D02*
D03*
X31859D02*
D03*
X31701D02*
D03*
X31544D02*
D03*
Y12755D02*
D03*
X31701Y12755D02*
D03*
X31859D02*
D03*
X32016D02*
D03*
X39046Y10298D02*
D03*
X38889D02*
D03*
X38731D02*
D03*
X38574D02*
D03*
Y11262D02*
D03*
X38731D02*
D03*
X38889D02*
D03*
X39046D02*
D03*
X40624Y13112D02*
D03*
X40781D02*
D03*
X40939D02*
D03*
X41096D02*
D03*
Y12148D02*
D03*
X40939D02*
D03*
X40781D02*
D03*
X40624D02*
D03*
X32736Y6555D02*
D03*
X32579D02*
D03*
X32421D02*
D03*
X32264D02*
D03*
Y7204D02*
D03*
X32421D02*
D03*
X32579D02*
D03*
X32736D02*
D03*
X36050Y9907D02*
D03*
X36208D02*
D03*
X36365D02*
D03*
X36523D02*
D03*
Y9257D02*
D03*
X36365D02*
D03*
X36208D02*
D03*
X36050D02*
D03*
X22498Y10229D02*
D03*
X22656D02*
D03*
X22813D02*
D03*
X22971D02*
D03*
Y9265D02*
D03*
X22813D02*
D03*
X22656D02*
D03*
X22498D02*
D03*
X29332Y10778D02*
D03*
X29174D02*
D03*
X29017D02*
D03*
X28859D02*
D03*
Y11427D02*
D03*
X29017D02*
D03*
X29174D02*
D03*
X29332D02*
D03*
X42211Y10673D02*
D03*
X42369D02*
D03*
X42526D02*
D03*
X42684D02*
D03*
Y10024D02*
D03*
X42526D02*
D03*
X42369D02*
D03*
X42211D02*
D03*
D162*
X3282Y24450D02*
D03*
X5200Y1100D02*
D03*
X53500Y24100D02*
D03*
D163*
X31000Y21424D02*
D03*
Y22577D02*
D03*
X27000Y21424D02*
D03*
X30000D02*
D03*
X29000Y21424D02*
D03*
X34000Y21424D02*
D03*
X33000D02*
D03*
X27000Y22577D02*
D03*
X30000D02*
D03*
X29000D02*
D03*
X34000D02*
D03*
X33000D02*
D03*
X28000Y21424D02*
D03*
X32000D02*
D03*
X28000Y22577D02*
D03*
X32000D02*
D03*
X7400Y21424D02*
D03*
X13400D02*
D03*
X7400Y22577D02*
D03*
X13400D02*
D03*
X8400Y21424D02*
D03*
X9400Y21424D02*
D03*
X11400D02*
D03*
X12400D02*
D03*
X15400D02*
D03*
X16400D02*
D03*
X8400Y22577D02*
D03*
X9400D02*
D03*
X11400D02*
D03*
X12400D02*
D03*
X15400D02*
D03*
X16400D02*
D03*
X10400Y21424D02*
D03*
X14400Y21424D02*
D03*
X10400Y22577D02*
D03*
X14400D02*
D03*
X14000Y3577D02*
D03*
Y2424D02*
D03*
X18000Y3577D02*
D03*
X15000D02*
D03*
X16000Y3577D02*
D03*
X11000Y3577D02*
D03*
X12000D02*
D03*
X18000Y2424D02*
D03*
X15000D02*
D03*
X16000D02*
D03*
X11000D02*
D03*
X12000D02*
D03*
X17000Y3577D02*
D03*
X13000D02*
D03*
X17000Y2424D02*
D03*
X13000D02*
D03*
X23000Y3577D02*
D03*
X23000Y2424D02*
D03*
X25000Y3577D02*
D03*
X24000D02*
D03*
X21000D02*
D03*
X20000D02*
D03*
X25000Y2424D02*
D03*
X24000D02*
D03*
X21000D02*
D03*
X20000D02*
D03*
X22000Y3577D02*
D03*
Y2424D02*
D03*
X19400Y18577D02*
D03*
Y17424D02*
D03*
X18400Y18577D02*
D03*
Y17424D02*
D03*
X17400Y18577D02*
D03*
Y17424D02*
D03*
X13400Y18577D02*
D03*
Y17424D02*
D03*
X14400Y18577D02*
D03*
Y17424D02*
D03*
X8400Y18577D02*
D03*
Y17424D02*
D03*
X9400D02*
D03*
Y18577D02*
D03*
X10400Y17424D02*
D03*
Y18577D02*
D03*
X12400Y17424D02*
D03*
Y18577D02*
D03*
X11400Y17424D02*
D03*
Y18577D02*
D03*
X7400D02*
D03*
Y17424D02*
D03*
X16400D02*
D03*
Y18577D02*
D03*
X15400Y17424D02*
D03*
Y18577D02*
D03*
X22000Y21424D02*
D03*
Y22577D02*
D03*
X18000Y21424D02*
D03*
X21000D02*
D03*
X20000Y21424D02*
D03*
X25000Y21424D02*
D03*
X24000D02*
D03*
X18000Y22577D02*
D03*
X21000D02*
D03*
X20000D02*
D03*
X25000D02*
D03*
X24000D02*
D03*
X19000Y21424D02*
D03*
X23000D02*
D03*
X19000Y22577D02*
D03*
X23000D02*
D03*
D164*
X58266Y12400D02*
D03*
Y13900D02*
D03*
D165*
X39188Y15150D02*
D03*
X40172D02*
D03*
D166*
X40903Y17583D02*
D03*
D167*
X42183Y18666D02*
D03*
Y18469D02*
D03*
Y18272D02*
D03*
Y18075D02*
D03*
Y17878D02*
D03*
Y17681D02*
D03*
Y17485D02*
D03*
Y17288D02*
D03*
Y17091D02*
D03*
Y16894D02*
D03*
Y16697D02*
D03*
Y16500D02*
D03*
X41986Y18863D02*
D03*
Y18370D02*
D03*
Y18174D02*
D03*
Y17977D02*
D03*
Y17780D02*
D03*
Y17583D02*
D03*
Y17386D02*
D03*
Y17189D02*
D03*
Y16796D02*
D03*
X41887Y16500D02*
D03*
X41789Y18863D02*
D03*
X41691Y18666D02*
D03*
Y16500D02*
D03*
X41592Y18863D02*
D03*
Y16304D02*
D03*
X41494Y18666D02*
D03*
X41395Y18863D02*
D03*
Y16304D02*
D03*
X41297Y18666D02*
D03*
Y16500D02*
D03*
X41198Y18863D02*
D03*
Y16304D02*
D03*
X41100Y18666D02*
D03*
Y16500D02*
D03*
X41002Y18863D02*
D03*
Y16304D02*
D03*
X40903Y16500D02*
D03*
X40805Y18863D02*
D03*
Y16304D02*
D03*
X40706Y16500D02*
D03*
X40608Y18863D02*
D03*
Y16304D02*
D03*
X40509Y18666D02*
D03*
Y16500D02*
D03*
X40411Y16304D02*
D03*
X40313Y18666D02*
D03*
Y16500D02*
D03*
X40214Y18863D02*
D03*
X40116Y16500D02*
D03*
X40017Y16304D02*
D03*
X40116Y18666D02*
D03*
X39820Y18863D02*
D03*
Y18174D02*
D03*
Y17977D02*
D03*
Y17780D02*
D03*
Y17583D02*
D03*
Y17386D02*
D03*
Y17189D02*
D03*
Y16993D02*
D03*
Y16796D02*
D03*
Y16599D02*
D03*
Y16304D02*
D03*
X39624Y18666D02*
D03*
Y18272D02*
D03*
Y18075D02*
D03*
Y17878D02*
D03*
Y17681D02*
D03*
Y17485D02*
D03*
Y17288D02*
D03*
Y17091D02*
D03*
Y18469D02*
D03*
D168*
X29300Y16083D02*
D03*
X28800D02*
D03*
X28300D02*
D03*
X27800D02*
D03*
X27300D02*
D03*
X29300Y17618D02*
D03*
X28800D02*
D03*
X28300D02*
D03*
X27800D02*
D03*
X27300D02*
D03*
X36450Y6068D02*
D03*
X36950D02*
D03*
X37450D02*
D03*
X37950D02*
D03*
X38450D02*
D03*
X36450Y4533D02*
D03*
X36950D02*
D03*
X37450D02*
D03*
X37950D02*
D03*
X38450D02*
D03*
X31300Y17618D02*
D03*
X30800D02*
D03*
X29800D02*
D03*
X31800Y16083D02*
D03*
X31300D02*
D03*
X30800D02*
D03*
X30300D02*
D03*
X29800D02*
D03*
X31800Y17618D02*
D03*
X30300D02*
D03*
X37486Y16083D02*
D03*
X36986D02*
D03*
X36486D02*
D03*
X35986D02*
D03*
X35486D02*
D03*
X37486Y17618D02*
D03*
X36986D02*
D03*
X36486D02*
D03*
X35986D02*
D03*
X35486D02*
D03*
D169*
X30140Y4740D02*
D03*
Y5240D02*
D03*
Y5740D02*
D03*
Y6240D02*
D03*
X27974Y4740D02*
D03*
Y5240D02*
D03*
Y5740D02*
D03*
Y6240D02*
D03*
D170*
X28683Y4809D02*
D03*
X29431D02*
D03*
Y6172D02*
D03*
X28683D02*
D03*
D171*
X29431Y5740D02*
D03*
X28683D02*
D03*
X29431Y5240D02*
D03*
X28683D02*
D03*
D172*
X23764Y5803D02*
D03*
X23075D02*
D03*
X22386D02*
D03*
Y7259D02*
D03*
X23075D02*
D03*
X23764D02*
D03*
X44921Y5984D02*
D03*
X45906Y5039D02*
D03*
X46890Y5984D02*
D03*
X37323Y1752D02*
D03*
X36634Y846D02*
D03*
X38012D02*
D03*
X22216Y18472D02*
D03*
X23200Y17528D02*
D03*
X24184Y18472D02*
D03*
X8048Y1880D02*
D03*
X7359Y974D02*
D03*
X8737D02*
D03*
X2500Y2573D02*
D03*
Y1628D02*
D03*
X24184Y17528D02*
D03*
X49703Y5984D02*
D03*
X50687Y5039D02*
D03*
X51672Y5984D02*
D03*
D173*
X30359Y1313D02*
D03*
Y2887D02*
D03*
X27701Y1313D02*
D03*
Y2887D02*
D03*
X49459Y2388D02*
D03*
Y813D02*
D03*
X52116Y2388D02*
D03*
Y813D02*
D03*
X44477Y2388D02*
D03*
Y813D02*
D03*
X47134Y2388D02*
D03*
Y813D02*
D03*
D174*
X4650Y17130D02*
D03*
Y18130D02*
D03*
X4670Y8300D02*
D03*
Y7300D02*
D03*
D175*
X32259Y2519D02*
D03*
X33259D02*
D03*
X34259D02*
D03*
X32299Y1270D02*
D03*
X33259D02*
D03*
X34220D02*
D03*
D176*
X32779Y542D02*
D03*
X33740D02*
D03*
D177*
X31450Y995D02*
D03*
X35850D02*
D03*
D178*
X31450Y2904D02*
D03*
X35850D02*
D03*
D179*
X31539Y3830D02*
D03*
D180*
X31647Y4538D02*
D03*
D181*
X32393Y5700D02*
D03*
X34126D02*
D03*
D182*
X33043Y5276D02*
D03*
D183*
X35850Y4932D02*
D03*
D184*
X24675Y14000D02*
D03*
X26425D02*
D03*
X24675Y13000D02*
D03*
X26425D02*
D03*
X24675Y12000D02*
D03*
X26425D02*
D03*
D185*
X42304Y15883D02*
D03*
X41773D02*
D03*
X39210Y16373D02*
D03*
X38679D02*
D03*
X7866Y12350D02*
D03*
X7334Y12350D02*
D03*
D186*
X18812Y13022D02*
D03*
X18615D02*
D03*
X18419D02*
D03*
X18222D02*
D03*
X18025D02*
D03*
X17828D02*
D03*
X17631D02*
D03*
X17434D02*
D03*
X17237D02*
D03*
X17041D02*
D03*
X16844D02*
D03*
X16647D02*
D03*
X16450D02*
D03*
X16253D02*
D03*
X16056D02*
D03*
X15859D02*
D03*
X15663D02*
D03*
X15466D02*
D03*
X15269D02*
D03*
X15072D02*
D03*
X14875D02*
D03*
X14678D02*
D03*
X14482D02*
D03*
X14285D02*
D03*
X14088D02*
D03*
Y7058D02*
D03*
X14285D02*
D03*
X14482D02*
D03*
X14678D02*
D03*
X14875D02*
D03*
X15072D02*
D03*
X15269D02*
D03*
X15466D02*
D03*
X15663D02*
D03*
X15859D02*
D03*
X16056D02*
D03*
X16253D02*
D03*
X16450D02*
D03*
X16647D02*
D03*
X16844D02*
D03*
X17041D02*
D03*
X17237D02*
D03*
X17434D02*
D03*
X17631D02*
D03*
X17828D02*
D03*
X18025D02*
D03*
X18222D02*
D03*
X18419D02*
D03*
X18615D02*
D03*
X18812D02*
D03*
D187*
X13468Y12402D02*
D03*
Y12205D02*
D03*
Y12008D02*
D03*
Y11811D02*
D03*
Y11615D02*
D03*
Y11418D02*
D03*
Y11221D02*
D03*
Y11024D02*
D03*
Y10827D02*
D03*
Y10630D02*
D03*
Y10433D02*
D03*
Y10237D02*
D03*
Y10040D02*
D03*
Y9843D02*
D03*
Y9646D02*
D03*
Y9449D02*
D03*
Y9252D02*
D03*
Y9056D02*
D03*
Y8859D02*
D03*
Y8662D02*
D03*
Y8465D02*
D03*
Y8268D02*
D03*
Y8071D02*
D03*
Y7874D02*
D03*
Y7678D02*
D03*
X19432D02*
D03*
Y7874D02*
D03*
Y8071D02*
D03*
Y8268D02*
D03*
Y8465D02*
D03*
Y8662D02*
D03*
Y8859D02*
D03*
Y9056D02*
D03*
Y9252D02*
D03*
Y9449D02*
D03*
Y9646D02*
D03*
Y9843D02*
D03*
Y10040D02*
D03*
Y10237D02*
D03*
Y10433D02*
D03*
Y10630D02*
D03*
Y10827D02*
D03*
Y11024D02*
D03*
Y11221D02*
D03*
Y11418D02*
D03*
Y11615D02*
D03*
Y11811D02*
D03*
Y12008D02*
D03*
Y12205D02*
D03*
Y12402D02*
D03*
D188*
X3163Y12218D02*
D03*
D189*
X3833D02*
D03*
Y13025D02*
D03*
X3085D02*
D03*
D190*
X2418Y12500D02*
D03*
Y12756D02*
D03*
Y13012D02*
D03*
Y12244D02*
D03*
Y11989D02*
D03*
D191*
X1365Y12973D02*
D03*
Y12028D02*
D03*
D192*
X2330Y11241D02*
D03*
Y13760D02*
D03*
D193*
X12500Y7382D02*
D03*
Y7932D02*
D03*
D194*
X52579Y9149D02*
D03*
Y9956D02*
D03*
X53327D02*
D03*
Y9149D02*
D03*
D195*
X52496Y9553D02*
D03*
X53409D02*
D03*
D196*
X40600Y20586D02*
D03*
X40501Y20743D02*
D03*
Y20901D02*
D03*
X40698Y20743D02*
D03*
Y20901D02*
D03*
D197*
X42245Y6201D02*
D03*
X42795D02*
D03*
X39882D02*
D03*
X40432D02*
D03*
X42245Y8268D02*
D03*
X42795D02*
D03*
X39882D02*
D03*
X40432D02*
D03*
D198*
X34355Y6729D02*
D03*
X34552D02*
D03*
X34748D02*
D03*
X34945D02*
D03*
X34453Y6557D02*
D03*
X34847D02*
D03*
X34355Y6386D02*
D03*
X34552D02*
D03*
X34748D02*
D03*
X34945D02*
D03*
D199*
X45150Y12173D02*
D03*
Y12547D02*
D03*
X38256Y16760D02*
D03*
Y16386D02*
D03*
X2925Y14727D02*
D03*
Y14353D02*
D03*
X2971Y11518D02*
D03*
Y11144D02*
D03*
D200*
X44415Y9275D02*
D03*
X43825D02*
D03*
D201*
X11150Y8050D02*
D03*
Y8550D02*
D03*
X11150Y9050D02*
D03*
X11150Y9550D02*
D03*
Y10050D02*
D03*
X11650D02*
D03*
Y9550D02*
D03*
X11650Y9050D02*
D03*
X11650Y8550D02*
D03*
Y8050D02*
D03*
D202*
X52030Y12866D02*
D03*
X52404D02*
D03*
X52030Y12157D02*
D03*
X52404D02*
D03*
X51939Y15846D02*
D03*
X52313D02*
D03*
X53130Y13946D02*
D03*
X52756D02*
D03*
X1448Y10600D02*
D03*
X1822D02*
D03*
D203*
X45508Y11765D02*
D03*
X45311D02*
D03*
X47280Y7734D02*
D03*
X45311D02*
D03*
X45705Y11765D02*
D03*
X45902D02*
D03*
X46099D02*
D03*
X46295D02*
D03*
X46492D02*
D03*
X46689D02*
D03*
X46886D02*
D03*
X47083D02*
D03*
X47280D02*
D03*
X47477D02*
D03*
X47673D02*
D03*
X47870D02*
D03*
X48067D02*
D03*
X48264D02*
D03*
X48461D02*
D03*
X48658D02*
D03*
X48854D02*
D03*
X49051D02*
D03*
X49248D02*
D03*
X49445D02*
D03*
X49642D02*
D03*
X49839D02*
D03*
X50036D02*
D03*
X50232D02*
D03*
X50429D02*
D03*
X50626D02*
D03*
X50823D02*
D03*
X51020D02*
D03*
X50823Y7734D02*
D03*
X50626D02*
D03*
X50429D02*
D03*
X50232D02*
D03*
X50036D02*
D03*
X49839D02*
D03*
X49642D02*
D03*
X49445D02*
D03*
X49248D02*
D03*
X49051D02*
D03*
X48854D02*
D03*
X48658D02*
D03*
X48461D02*
D03*
X48264D02*
D03*
X48067D02*
D03*
X47870D02*
D03*
X47673D02*
D03*
X47477D02*
D03*
X47083D02*
D03*
X46886D02*
D03*
X46689D02*
D03*
X46492D02*
D03*
X46295D02*
D03*
X46099D02*
D03*
X45902D02*
D03*
X45705D02*
D03*
X45508D02*
D03*
X51020D02*
D03*
D204*
X45803Y11009D02*
D03*
Y10380D02*
D03*
Y9120D02*
D03*
Y9750D02*
D03*
Y8490D02*
D03*
X46591D02*
D03*
Y9750D02*
D03*
Y9120D02*
D03*
Y10380D02*
D03*
Y11009D02*
D03*
X47378D02*
D03*
Y10380D02*
D03*
Y9120D02*
D03*
Y9750D02*
D03*
Y8490D02*
D03*
X48953Y11009D02*
D03*
Y10380D02*
D03*
Y9120D02*
D03*
Y9750D02*
D03*
Y8490D02*
D03*
X48165Y11009D02*
D03*
Y10380D02*
D03*
Y9120D02*
D03*
Y9750D02*
D03*
Y8490D02*
D03*
X49740Y11009D02*
D03*
Y10380D02*
D03*
Y9120D02*
D03*
Y9750D02*
D03*
Y8490D02*
D03*
X50528Y10380D02*
D03*
Y9120D02*
D03*
Y9750D02*
D03*
Y8490D02*
D03*
Y11009D02*
D03*
D205*
X45067Y11765D02*
D03*
X51264D02*
D03*
X45067Y7734D02*
D03*
X51264D02*
D03*
D206*
Y11521D02*
D03*
Y11324D02*
D03*
Y11128D02*
D03*
Y10931D02*
D03*
Y10734D02*
D03*
Y10537D02*
D03*
Y10340D02*
D03*
Y10143D02*
D03*
Y9946D02*
D03*
Y9750D02*
D03*
Y9553D02*
D03*
Y9159D02*
D03*
Y8962D02*
D03*
Y8765D02*
D03*
Y8569D02*
D03*
Y8372D02*
D03*
Y8175D02*
D03*
Y7978D02*
D03*
X45067Y8175D02*
D03*
Y8372D02*
D03*
Y8569D02*
D03*
Y8765D02*
D03*
Y8962D02*
D03*
Y9159D02*
D03*
Y9356D02*
D03*
Y9553D02*
D03*
Y9750D02*
D03*
Y9946D02*
D03*
Y10143D02*
D03*
Y10340D02*
D03*
Y10537D02*
D03*
Y10734D02*
D03*
Y10931D02*
D03*
Y11128D02*
D03*
Y11324D02*
D03*
Y11521D02*
D03*
X51264Y9356D02*
D03*
X45067Y7978D02*
D03*
D207*
X45902Y11462D02*
D03*
X46295D02*
D03*
X46099D02*
D03*
X46492D02*
D03*
X48067D02*
D03*
X47673D02*
D03*
X47870D02*
D03*
X47477D02*
D03*
X49445D02*
D03*
X50036D02*
D03*
X49642D02*
D03*
X49839D02*
D03*
X45902Y8037D02*
D03*
X46295D02*
D03*
X46099D02*
D03*
X46492D02*
D03*
X48067D02*
D03*
X47673D02*
D03*
X47870D02*
D03*
X47477D02*
D03*
X49445D02*
D03*
X50036D02*
D03*
X49642D02*
D03*
X49839D02*
D03*
D208*
X53500Y14282D02*
D03*
X52600D02*
D03*
Y15218D02*
D03*
X53500D02*
D03*
D209*
X53247Y14282D02*
D03*
X53050D02*
D03*
X52853D02*
D03*
Y15218D02*
D03*
X53050D02*
D03*
X53247D02*
D03*
D210*
X35153Y11827D02*
D03*
Y11670D02*
D03*
Y11513D02*
D03*
X34547D02*
D03*
Y11670D02*
D03*
Y11827D02*
D03*
X30394Y12609D02*
D03*
Y12451D02*
D03*
X29946D02*
D03*
X42113Y4567D02*
D03*
X41665D02*
D03*
Y4409D02*
D03*
X43415Y4409D02*
D03*
X43863D02*
D03*
Y4567D02*
D03*
X29385Y14181D02*
D03*
Y14024D02*
D03*
Y13866D02*
D03*
X28780D02*
D03*
Y14024D02*
D03*
Y14181D02*
D03*
X36663Y11937D02*
D03*
Y11780D02*
D03*
Y11623D02*
D03*
X36057D02*
D03*
Y11780D02*
D03*
Y11937D02*
D03*
D211*
X34929Y11446D02*
D03*
X34771D02*
D03*
Y11894D02*
D03*
X30013Y12833D02*
D03*
X30170D02*
D03*
X30327D02*
D03*
Y12227D02*
D03*
X30170D02*
D03*
X30013D02*
D03*
X42046Y4791D02*
D03*
X41889Y4791D02*
D03*
X41731Y4791D02*
D03*
Y4185D02*
D03*
X41889D02*
D03*
X42046D02*
D03*
X43481Y4185D02*
D03*
X43639D02*
D03*
X43796D02*
D03*
X43796Y4791D02*
D03*
X43639Y4791D02*
D03*
X43481D02*
D03*
X29161Y13800D02*
D03*
X29004D02*
D03*
Y14248D02*
D03*
X36439Y11556D02*
D03*
X36281D02*
D03*
Y12004D02*
D03*
D212*
X34929Y11874D02*
D03*
X29161Y14228D02*
D03*
X36439Y11984D02*
D03*
D213*
X19381Y14550D02*
D03*
D214*
X19913Y14747D02*
D03*
Y14550D02*
D03*
Y14354D02*
D03*
X18850D02*
D03*
Y14550D02*
D03*
Y14747D02*
D03*
D215*
X19578Y14019D02*
D03*
X19381D02*
D03*
X19184D02*
D03*
Y15082D02*
D03*
X19381D02*
D03*
X19578D02*
D03*
D216*
X38766Y18305D02*
D03*
X38314D02*
D03*
Y18875D02*
D03*
X38766D02*
D03*
D217*
X41043Y6398D02*
D03*
Y6201D02*
D03*
Y6004D02*
D03*
X41634D02*
D03*
Y6201D02*
D03*
Y6398D02*
D03*
X6442Y7054D02*
D03*
Y7250D02*
D03*
Y7447D02*
D03*
X7033D02*
D03*
Y7250D02*
D03*
Y7054D02*
D03*
X41634Y8268D02*
D03*
X41043D02*
D03*
Y8465D02*
D03*
Y8071D02*
D03*
X41634D02*
D03*
Y8465D02*
D03*
D218*
X13323Y6257D02*
D03*
Y6643D02*
D03*
X12160Y6257D02*
D03*
Y6643D02*
D03*
X5835Y14567D02*
D03*
Y14953D02*
D03*
X4203Y22563D02*
D03*
Y22177D02*
D03*
D219*
X12978Y6706D02*
D03*
Y6450D02*
D03*
Y6194D02*
D03*
X13667D02*
D03*
Y6450D02*
D03*
Y6706D02*
D03*
X11816D02*
D03*
Y6450D02*
D03*
Y6194D02*
D03*
X12504D02*
D03*
Y6450D02*
D03*
Y6706D02*
D03*
X5491Y15016D02*
D03*
Y14760D02*
D03*
Y14504D02*
D03*
X6180D02*
D03*
Y14760D02*
D03*
Y15016D02*
D03*
X4548Y22114D02*
D03*
Y22370D02*
D03*
Y22626D02*
D03*
X3859D02*
D03*
Y22370D02*
D03*
Y22114D02*
D03*
D220*
X6500Y17826D02*
D03*
Y17433D02*
D03*
X52362Y16575D02*
D03*
Y16181D02*
D03*
D221*
X28800Y8800D02*
D03*
X31400Y13570D02*
D03*
X30400D02*
D03*
X32400D02*
D03*
X28800Y7800D02*
D03*
X29800D02*
D03*
Y8800D02*
D03*
X25650D02*
D03*
X24650D02*
D03*
X25650Y7800D02*
D03*
X24650D02*
D03*
X7400Y24500D02*
D03*
Y23500D02*
D03*
X8400D02*
D03*
Y24500D02*
D03*
X10400D02*
D03*
Y23500D02*
D03*
X11400D02*
D03*
Y24500D02*
D03*
X13400Y23500D02*
D03*
Y24500D02*
D03*
X16400Y23500D02*
D03*
X15400Y24500D02*
D03*
Y23500D02*
D03*
X14400Y24500D02*
D03*
Y23500D02*
D03*
X12400Y24500D02*
D03*
Y23500D02*
D03*
X9400D02*
D03*
Y24500D02*
D03*
X25000Y1500D02*
D03*
Y500D02*
D03*
X23000Y1500D02*
D03*
Y500D02*
D03*
X20000Y1500D02*
D03*
X21000Y500D02*
D03*
Y1500D02*
D03*
X22000Y500D02*
D03*
Y1500D02*
D03*
X24000Y500D02*
D03*
Y1500D02*
D03*
X18000Y500D02*
D03*
Y1500D02*
D03*
X15000D02*
D03*
Y500D02*
D03*
X13000Y1500D02*
D03*
Y500D02*
D03*
X12000Y1500D02*
D03*
Y500D02*
D03*
X11000Y1500D02*
D03*
X14000Y500D02*
D03*
Y1500D02*
D03*
X16000Y500D02*
D03*
Y1500D02*
D03*
X17000D02*
D03*
Y500D02*
D03*
X36600Y23050D02*
D03*
X28000Y24500D02*
D03*
Y23500D02*
D03*
X29000D02*
D03*
Y24500D02*
D03*
X31000Y23500D02*
D03*
Y24500D02*
D03*
X34000Y23500D02*
D03*
X33000Y24500D02*
D03*
Y23500D02*
D03*
X32000Y24500D02*
D03*
Y23500D02*
D03*
X30000Y24500D02*
D03*
Y23500D02*
D03*
X27000D02*
D03*
Y24500D02*
D03*
X18000Y24500D02*
D03*
Y23500D02*
D03*
X21000D02*
D03*
Y24500D02*
D03*
X23000Y23500D02*
D03*
Y24500D02*
D03*
X24000Y23500D02*
D03*
Y24500D02*
D03*
X25000Y23500D02*
D03*
X22000Y24500D02*
D03*
Y23500D02*
D03*
X20000Y24500D02*
D03*
Y23500D02*
D03*
X19000D02*
D03*
Y24500D02*
D03*
D222*
X52392Y16929D02*
D03*
X52785D02*
D03*
X14153Y13600D02*
D03*
X14547D02*
D03*
X39227Y15970D02*
D03*
X38833D02*
D03*
D223*
X39372Y11690D02*
D03*
X39628D02*
D03*
X39372Y12270D02*
D03*
X39628D02*
D03*
X39372Y12850D02*
D03*
X39628D02*
D03*
X39372Y13430D02*
D03*
X39628D02*
D03*
D224*
X11515Y11618D02*
D03*
Y11992D02*
D03*
D225*
X11871Y12061D02*
D03*
Y11805D02*
D03*
Y11549D02*
D03*
X11159D02*
D03*
Y11805D02*
D03*
Y12061D02*
D03*
D226*
X7265Y11159D02*
D03*
D227*
X6881Y10962D02*
D03*
Y11159D02*
D03*
Y11356D02*
D03*
X7649D02*
D03*
Y11159D02*
D03*
D228*
Y10943D02*
D03*
D229*
X8488Y10936D02*
D03*
Y11802D02*
D03*
D230*
X9650Y11516D02*
D03*
Y11185D02*
D03*
X6060Y11426D02*
D03*
Y11095D02*
D03*
X2570Y5906D02*
D03*
Y5575D02*
D03*
D231*
X6471Y10916D02*
D03*
Y10522D02*
D03*
X44625Y9813D02*
D03*
Y10207D02*
D03*
X39266Y16796D02*
D03*
Y17190D02*
D03*
D232*
X5591Y6190D02*
D03*
X5335D02*
D03*
X5079D02*
D03*
Y5442D02*
D03*
X5591D02*
D03*
X1586Y4766D02*
D03*
X1330Y4766D02*
D03*
X1074Y4766D02*
D03*
Y5514D02*
D03*
X1330D02*
D03*
X1586D02*
D03*
D233*
X7716Y5863D02*
D03*
Y5607D02*
D03*
Y5351D02*
D03*
Y5096D02*
D03*
X10039Y5863D02*
D03*
Y5607D02*
D03*
Y5351D02*
D03*
Y5096D02*
D03*
D234*
X9468Y4388D02*
D03*
X8287D02*
D03*
D235*
X8877Y4329D02*
D03*
D236*
X1038Y3439D02*
D03*
Y3262D02*
D03*
D237*
X762Y3350D02*
D03*
D238*
X3484Y2573D02*
D03*
X1516D02*
D03*
X3484Y1628D02*
D03*
X1516D02*
D03*
D239*
X1362Y4400D02*
D03*
X1138D02*
D03*
X29448Y12320D02*
D03*
X29672D02*
D03*
X43982Y12530D02*
D03*
X43758D02*
D03*
X51699Y12157D02*
D03*
X56008Y13826D02*
D03*
X43982Y12290D02*
D03*
X43758D02*
D03*
X51474Y12157D02*
D03*
Y12866D02*
D03*
X51699D02*
D03*
X56232Y13826D02*
D03*
X38618Y9950D02*
D03*
X38842D02*
D03*
X33042Y12110D02*
D03*
X32818D02*
D03*
X30112Y6750D02*
D03*
X29888D02*
D03*
X7712Y11950D02*
D03*
X7488D02*
D03*
X5356Y5096D02*
D03*
X5580D02*
D03*
X3113Y13430D02*
D03*
X3337D02*
D03*
X33370Y6801D02*
D03*
X33594D02*
D03*
X33788Y6330D02*
D03*
X34012D02*
D03*
X36672Y12380D02*
D03*
X36448D02*
D03*
X35162Y12350D02*
D03*
X34938D02*
D03*
X30140Y11024D02*
D03*
X29915D02*
D03*
X11128Y6550D02*
D03*
X11352D02*
D03*
X19969Y10237D02*
D03*
X20194D02*
D03*
X18838Y6500D02*
D03*
X19062D02*
D03*
X16058Y6490D02*
D03*
X16282D02*
D03*
X42491Y17683D02*
D03*
X42715D02*
D03*
X40565Y20083D02*
D03*
X40341D02*
D03*
X40515Y19283D02*
D03*
X40291D02*
D03*
X39078Y19090D02*
D03*
X39302D02*
D03*
X39822Y15920D02*
D03*
X39598D02*
D03*
X38652Y19210D02*
D03*
X38428D02*
D03*
X38428Y17980D02*
D03*
X38652D02*
D03*
X30458Y14920D02*
D03*
X30682D02*
D03*
D240*
X8359Y8413D02*
D03*
X8181D02*
D03*
D241*
X8270Y8688D02*
D03*
D242*
X10650Y15700D02*
D03*
X11024Y14874D02*
D03*
X10276D02*
D03*
D243*
X11400Y15463D02*
D03*
Y15238D02*
D03*
X3255Y14878D02*
D03*
Y15103D02*
D03*
X47380Y7402D02*
D03*
X55427Y14288D02*
D03*
X55900D02*
D03*
X43975Y7117D02*
D03*
X43754D02*
D03*
X47380Y7178D02*
D03*
X43975Y6893D02*
D03*
X43754D02*
D03*
X44338Y9865D02*
D03*
Y10090D02*
D03*
X52413Y13373D02*
D03*
Y13148D02*
D03*
Y11718D02*
D03*
Y11494D02*
D03*
X55900Y14513D02*
D03*
X55427D02*
D03*
X55000D02*
D03*
Y14288D02*
D03*
X32580Y12128D02*
D03*
Y12352D02*
D03*
X42513Y4414D02*
D03*
Y4189D02*
D03*
X43000Y4568D02*
D03*
X43000Y4792D02*
D03*
X41692Y24278D02*
D03*
Y24503D02*
D03*
X39770Y19258D02*
D03*
Y19482D02*
D03*
X7200Y5063D02*
D03*
Y4838D02*
D03*
X9870Y15080D02*
D03*
Y14856D02*
D03*
X35397Y13866D02*
D03*
Y14090D02*
D03*
X41680Y10659D02*
D03*
Y10435D02*
D03*
X39800Y10622D02*
D03*
Y10398D02*
D03*
X35477Y10044D02*
D03*
Y9820D02*
D03*
X22813Y10741D02*
D03*
Y10517D02*
D03*
X29290Y14872D02*
D03*
Y14648D02*
D03*
X39870Y11628D02*
D03*
Y11852D02*
D03*
Y12208D02*
D03*
Y12432D02*
D03*
Y12788D02*
D03*
Y13012D02*
D03*
Y13592D02*
D03*
Y13368D02*
D03*
X41050Y13478D02*
D03*
Y13702D02*
D03*
X26721Y7040D02*
D03*
Y7265D02*
D03*
X16647Y13784D02*
D03*
Y13559D02*
D03*
X18420Y14078D02*
D03*
Y14303D02*
D03*
X17434Y13559D02*
D03*
Y13784D02*
D03*
X12900Y8282D02*
D03*
Y8058D02*
D03*
Y9652D02*
D03*
Y9428D02*
D03*
Y11628D02*
D03*
Y11852D02*
D03*
X42503Y18771D02*
D03*
Y18995D02*
D03*
X40876Y24503D02*
D03*
Y24278D02*
D03*
X40510Y15038D02*
D03*
Y15262D02*
D03*
X38850Y15262D02*
D03*
Y15038D02*
D03*
X39303Y18471D02*
D03*
Y18695D02*
D03*
X38976Y16771D02*
D03*
Y16995D02*
D03*
X53750Y15566D02*
D03*
Y15790D02*
D03*
X53976Y15566D02*
D03*
Y15790D02*
D03*
X53297Y15566D02*
D03*
Y15790D02*
D03*
X53071Y15566D02*
D03*
Y15790D02*
D03*
D244*
X3340Y14120D02*
D03*
X3670D02*
D03*
X6935Y10060D02*
D03*
X6605D02*
D03*
D245*
X4345Y14320D02*
D03*
X12480Y15440D02*
D03*
X9040Y9400D02*
D03*
X9000Y7700D02*
D03*
X3830Y5740D02*
D03*
D246*
X4640Y14744D02*
D03*
X4443D02*
D03*
X4247D02*
D03*
X4050D02*
D03*
X4640Y13897D02*
D03*
X4443D02*
D03*
X4247D02*
D03*
X4050D02*
D03*
X12775Y15864D02*
D03*
X12578D02*
D03*
X12382D02*
D03*
X12185D02*
D03*
X12775Y15017D02*
D03*
X12578D02*
D03*
X12382D02*
D03*
X12185D02*
D03*
X9335Y9824D02*
D03*
X9138D02*
D03*
X8942D02*
D03*
X8745D02*
D03*
X9335Y8977D02*
D03*
X9138D02*
D03*
X8942D02*
D03*
X8745D02*
D03*
X8705Y7277D02*
D03*
X8902D02*
D03*
X9098D02*
D03*
X9295D02*
D03*
X8705Y8124D02*
D03*
X8902D02*
D03*
X9098D02*
D03*
X9295D02*
D03*
X4125Y6164D02*
D03*
X3928D02*
D03*
X3732D02*
D03*
X3535D02*
D03*
X4125Y5317D02*
D03*
X3928D02*
D03*
X3732D02*
D03*
X3535D02*
D03*
D247*
X30877Y14550D02*
D03*
D248*
X30680Y14548D02*
D03*
X30483D02*
D03*
X30877Y14252D02*
D03*
X30680D02*
D03*
X30483D02*
D03*
D249*
X51220Y16929D02*
D03*
D250*
X50394Y19291D02*
D03*
Y14567D02*
D03*
X48032Y19291D02*
D03*
Y16929D02*
D03*
Y14567D02*
D03*
X45669Y19291D02*
D03*
Y16929D02*
D03*
Y14567D02*
D03*
D251*
X30689Y11570D02*
D03*
Y11070D02*
D03*
Y10570D02*
D03*
Y10070D02*
D03*
X32870Y11570D02*
D03*
Y11070D02*
D03*
Y10570D02*
D03*
Y10070D02*
D03*
D252*
X31780Y10820D02*
D03*
D253*
X39776Y4646D02*
D03*
X40776D02*
D03*
D254*
X29966Y12609D02*
D03*
X42093Y4409D02*
D03*
X43434Y4567D02*
D03*
D255*
X38548Y8313D02*
D03*
X38410D02*
D03*
X38272D02*
D03*
Y8647D02*
D03*
X38410D02*
D03*
X38548D02*
D03*
Y7633D02*
D03*
X38410D02*
D03*
X38272D02*
D03*
Y7967D02*
D03*
X38410D02*
D03*
X38548D02*
D03*
D256*
X44433Y7373D02*
D03*
Y7964D02*
D03*
X44620Y12855D02*
D03*
Y12265D02*
D03*
D257*
X4011Y23660D02*
D03*
X4396D02*
D03*
D258*
X4459Y24005D02*
D03*
X4203D02*
D03*
X3948D02*
D03*
Y23316D02*
D03*
X4203D02*
D03*
X4459D02*
D03*
D259*
X41351Y19252D02*
D03*
X41510Y19411D02*
D03*
D260*
X8894Y15209D02*
D03*
X6790Y8680D02*
D03*
D261*
X8470Y15504D02*
D03*
Y15307D02*
D03*
Y15111D02*
D03*
Y14914D02*
D03*
X9317Y15504D02*
D03*
Y15307D02*
D03*
Y15111D02*
D03*
Y14914D02*
D03*
X7213Y8385D02*
D03*
Y8582D02*
D03*
Y8779D02*
D03*
Y8976D02*
D03*
X6367Y8385D02*
D03*
Y8582D02*
D03*
Y8779D02*
D03*
Y8976D02*
D03*
D262*
X762Y22240D02*
D03*
Y22740D02*
D03*
Y23240D02*
D03*
Y23740D02*
D03*
Y24240D02*
D03*
X2298Y22240D02*
D03*
Y22740D02*
D03*
Y23240D02*
D03*
Y23740D02*
D03*
Y24240D02*
D03*
D263*
X45909Y5971D02*
D03*
X22213Y17551D02*
D03*
X44918Y5036D02*
D03*
X46887D02*
D03*
X51669D02*
D03*
X49700D02*
D03*
X23203Y18485D02*
D03*
X50691Y5971D02*
D03*
D264*
X2880Y17630D02*
D03*
X27500Y20660D02*
D03*
X31500D02*
D03*
X40276Y2876D02*
D03*
X2900Y7800D02*
D03*
D265*
X16400Y24500D02*
D03*
X20000Y500D02*
D03*
X11000D02*
D03*
X34000Y24500D02*
D03*
X25000Y24500D02*
D03*
D266*
X1365Y11201D02*
D03*
Y13800D02*
D03*
D267*
X1161Y2100D02*
D03*
X3839D02*
D03*
D268*
X48292Y1467D02*
D03*
X42741Y1378D02*
D03*
D269*
X5500Y3000D02*
D03*
X26000Y5000D02*
D03*
Y16000D02*
D03*
X6000Y22000D02*
D03*
X38000Y3000D02*
D03*
X35500Y22000D02*
D03*
M02*
