G04*
G04 #@! TF.GenerationSoftware,Altium Limited,Altium Designer,21.1.1 (26)*
G04*
G04 Layer_Color=8421504*
%FSLAX24Y24*%
%MOIN*%
G70*
G04*
G04 #@! TF.SameCoordinates,859D0C74-6F1A-4902-9F36-B784FAE930BA*
G04*
G04*
G04 #@! TF.FilePolarity,Positive*
G04*
G01*
G75*
G04:AMPARAMS|DCode=37|XSize=37mil|YSize=37mil|CornerRadius=2.8mil|HoleSize=0mil|Usage=FLASHONLY|Rotation=270.000|XOffset=0mil|YOffset=0mil|HoleType=Round|Shape=RoundedRectangle|*
%AMROUNDEDRECTD37*
21,1,0.0370,0.0315,0,0,270.0*
21,1,0.0315,0.0370,0,0,270.0*
1,1,0.0056,-0.0157,-0.0157*
1,1,0.0056,-0.0157,0.0157*
1,1,0.0056,0.0157,0.0157*
1,1,0.0056,0.0157,-0.0157*
%
%ADD37ROUNDEDRECTD37*%
%ADD38O,0.0787X0.0591*%
%ADD39R,0.0293X0.0610*%
%ADD40R,0.0264X0.0610*%
%ADD41R,0.0138X0.0098*%
%ADD42R,0.0138X0.0138*%
%ADD43R,0.0315X0.0118*%
%ADD44R,0.0197X0.0148*%
%ADD45R,0.0366X0.0445*%
%ADD46R,0.0106X0.0118*%
%ADD47R,0.0118X0.0106*%
%ADD48R,0.0866X0.0413*%
%ADD49R,0.0413X0.0394*%
%ADD50R,0.0197X0.0228*%
%ADD51R,0.0295X0.0315*%
%ADD52R,0.0394X0.0236*%
%ADD53R,0.0874X0.0402*%
%ADD54O,0.0240X0.0071*%
%ADD55O,0.0071X0.0240*%
%ADD56C,0.0394*%
%ADD57R,0.0402X0.0862*%
%ADD58R,0.0787X0.0787*%
%ADD59R,0.0394X0.0709*%
%ADD60C,0.0118*%
%ADD61R,0.0394X0.0630*%
%ADD62R,0.1083X0.0551*%
%ADD63R,0.1252X0.0500*%
%ADD64R,0.0354X0.0276*%
%ADD65R,0.0118X0.0236*%
%ADD66R,0.0177X0.1142*%
%ADD67R,0.0177X0.0748*%
%ADD68R,0.0236X0.0236*%
%ADD69R,0.0295X0.0276*%
%ADD70R,0.0551X0.0197*%
%ADD71R,0.0472X0.0256*%
%ADD72R,0.0177X0.0945*%
%ADD73R,0.0299X0.0945*%
%ADD74R,0.1500X0.0500*%
%ADD75R,0.0295X0.0315*%
%ADD76O,0.0118X0.0650*%
%ADD77O,0.0650X0.0118*%
%ADD78R,0.0394X0.0335*%
%ADD79R,0.0236X0.0335*%
%ADD80R,0.0531X0.0157*%
%ADD81R,0.0610X0.0748*%
%ADD82R,0.0551X0.0630*%
%ADD83R,0.0320X0.0300*%
%ADD84R,0.0315X0.0295*%
%ADD85R,0.0228X0.0197*%
%ADD86R,0.0098X0.0079*%
%ADD87R,0.0300X0.0320*%
%ADD88C,0.0098*%
%ADD89R,0.0197X0.0256*%
%ADD90R,0.0433X0.0551*%
%ADD91R,0.0256X0.0197*%
%ADD92R,0.0118X0.0213*%
%ADD93R,0.0315X0.0315*%
%ADD94R,0.0213X0.0213*%
%ADD95R,0.0213X0.0118*%
%ADD96R,0.0118X0.0118*%
%ADD97R,0.0203X0.0167*%
%ADD98R,0.0108X0.0167*%
%ADD99O,0.0222X0.0089*%
%ADD100O,0.0089X0.0222*%
%ADD101O,0.0089X0.0261*%
%ADD102R,0.0445X0.0445*%
%ADD103O,0.0374X0.0098*%
%ADD104O,0.0098X0.0374*%
%ADD105R,0.0335X0.0374*%
%ADD106R,0.0256X0.0138*%
%ADD107R,0.0413X0.0283*%
%ADD108R,0.0118X0.0138*%
%ADD109R,0.0217X0.0236*%
%ADD110R,0.0236X0.0197*%
%ADD111R,0.0098X0.0236*%
%ADD112R,0.0362X0.0280*%
%ADD113R,0.0177X0.0165*%
%ADD114R,0.0138X0.0059*%
%ADD115R,0.0138X0.0098*%
%ADD116R,0.1063X0.0315*%
%ADD117R,0.0098X0.0142*%
%ADD118R,0.0197X0.0236*%
%ADD119R,0.0138X0.0354*%
%ADD120O,0.0551X0.0157*%
%ADD121R,0.0236X0.0551*%
%ADD122R,0.0236X0.0669*%
%ADD123R,0.0157X0.0098*%
%ADD124R,0.0157X0.0276*%
%ADD125R,0.0197X0.0197*%
%ADD126R,0.0098X0.0157*%
%ADD127R,0.0276X0.0157*%
%ADD128R,0.0300X0.0400*%
%ADD129R,0.0142X0.0098*%
%ADD130R,0.0630X0.0394*%
%ADD131R,0.0098X0.0236*%
%ADD132R,0.0118X0.0205*%
%ADD133R,0.0118X0.0193*%
%ADD134R,0.0787X0.0591*%
%ADD135R,0.1496X0.1496*%
%ADD136R,0.0453X0.0177*%
%ADD137R,0.0500X0.1252*%
%ADD138O,0.0261X0.0089*%
%ADD139R,0.0079X0.0138*%
%ADD140R,0.0551X0.0433*%
%ADD141R,0.0283X0.0413*%
%ADD142R,0.0138X0.0118*%
G04:AMPARAMS|DCode=143|XSize=11.8mil|YSize=10.6mil|CornerRadius=0mil|HoleSize=0mil|Usage=FLASHONLY|Rotation=315.000|XOffset=0mil|YOffset=0mil|HoleType=Round|Shape=Rectangle|*
%AMROTATEDRECTD143*
4,1,4,-0.0079,0.0004,-0.0004,0.0079,0.0079,-0.0004,0.0004,-0.0079,-0.0079,0.0004,0.0*
%
%ADD143ROTATEDRECTD143*%

%ADD144R,0.0394X0.0630*%
%ADD145R,0.0236X0.0098*%
%ADD146R,0.0945X0.0299*%
%ADD147R,0.0394X0.0630*%
G36*
X59502Y19219D02*
X58832D01*
Y20046D01*
X59502D01*
Y19219D01*
D02*
G37*
G36*
X60210Y19554D02*
X60637D01*
Y18904D01*
X59659D01*
Y20046D01*
X60210D01*
Y19554D01*
D02*
G37*
G36*
X58675Y18904D02*
X57691D01*
Y20046D01*
X58675D01*
Y18904D01*
D02*
G37*
G36*
X58163Y3806D02*
X57691D01*
Y4751D01*
X58163D01*
Y3806D01*
D02*
G37*
G36*
X9251Y3738D02*
Y2951D01*
X8995Y2695D01*
X8759D01*
X8503Y2951D01*
Y3738D01*
X8759Y3994D01*
X8995D01*
X9251Y3738D01*
D02*
G37*
G36*
X3681Y2322D02*
X3617Y2258D01*
X3287Y2258D01*
Y2888D01*
X3681D01*
X3681Y2322D01*
D02*
G37*
G36*
X1713Y2258D02*
X1383Y2258D01*
X1319Y2322D01*
X1319Y2888D01*
X1713D01*
Y2258D01*
D02*
G37*
G36*
X3617Y1943D02*
X3681Y1879D01*
X3681Y1313D01*
X3287D01*
Y1943D01*
X3617Y1943D01*
D02*
G37*
G36*
X1713Y1313D02*
X1319D01*
X1319Y1879D01*
X1383Y1943D01*
X1713Y1943D01*
Y1313D01*
D02*
G37*
G36*
X60643Y1148D02*
X60171D01*
Y715D01*
X59384D01*
Y1148D01*
X58950D01*
Y715D01*
X58163D01*
Y1148D01*
X57691D01*
Y1857D01*
X60643D01*
Y1148D01*
D02*
G37*
D37*
X41576Y18256D02*
D03*
Y17807D02*
D03*
Y17359D02*
D03*
Y16910D02*
D03*
X41128D02*
D03*
Y17359D02*
D03*
Y17807D02*
D03*
Y18256D02*
D03*
X40679Y16910D02*
D03*
Y17359D02*
D03*
Y17807D02*
D03*
Y18256D02*
D03*
X40230Y16910D02*
D03*
Y17359D02*
D03*
Y17807D02*
D03*
Y18256D02*
D03*
D38*
X1365Y13800D02*
D03*
Y11201D02*
D03*
D39*
X53393Y14750D02*
D03*
X52707D02*
D03*
D40*
X53050Y14750D02*
D03*
D41*
X6881Y10962D02*
D03*
Y11159D02*
D03*
Y11356D02*
D03*
X7649Y11356D02*
D03*
Y11159D02*
D03*
D42*
Y10943D02*
D03*
D43*
X7265Y11336D02*
D03*
X7265Y10982D02*
D03*
D44*
X7265Y11361D02*
D03*
X7265Y10957D02*
D03*
D45*
X31335Y11344D02*
D03*
X31335Y10820D02*
D03*
X31335Y10296D02*
D03*
X31780Y11344D02*
D03*
Y10820D02*
D03*
Y10296D02*
D03*
X32225Y11344D02*
D03*
X32225Y10820D02*
D03*
X32225Y10296D02*
D03*
D46*
X29915Y10480D02*
D03*
X30140D02*
D03*
Y11599D02*
D03*
X29915D02*
D03*
X41411Y24263D02*
D03*
X41187Y24263D02*
D03*
X40726Y21151D02*
D03*
X40501D02*
D03*
X10458Y6190D02*
D03*
X10682D02*
D03*
X1362Y4400D02*
D03*
X1138D02*
D03*
X31588Y14580D02*
D03*
X31812D02*
D03*
X29448Y12320D02*
D03*
X29672D02*
D03*
X38522Y7410D02*
D03*
X38298D02*
D03*
X43982Y12530D02*
D03*
X43758D02*
D03*
X28788Y10480D02*
D03*
X45652Y12090D02*
D03*
X45428D02*
D03*
X51699Y12157D02*
D03*
X55322Y13826D02*
D03*
X56008Y13826D02*
D03*
X43746Y7343D02*
D03*
X43970D02*
D03*
X43982Y12290D02*
D03*
X43758D02*
D03*
X51474Y12157D02*
D03*
Y12866D02*
D03*
X51699D02*
D03*
X56232Y13826D02*
D03*
X38618Y9950D02*
D03*
X38842D02*
D03*
X42907Y5854D02*
D03*
X42682D02*
D03*
X42907Y7921D02*
D03*
X42682D02*
D03*
X40545Y5854D02*
D03*
X40320D02*
D03*
X40545Y7921D02*
D03*
X40320D02*
D03*
X33042Y12110D02*
D03*
X32818D02*
D03*
X41232Y5650D02*
D03*
X41008D02*
D03*
X41672D02*
D03*
X41448D02*
D03*
X41012Y7717D02*
D03*
X41237D02*
D03*
X41452D02*
D03*
X41677D02*
D03*
X43408Y3890D02*
D03*
X43632D02*
D03*
X30112Y6750D02*
D03*
X29888D02*
D03*
X7712Y11950D02*
D03*
X7488D02*
D03*
X5356Y5096D02*
D03*
X5580D02*
D03*
X3113Y13430D02*
D03*
X3337D02*
D03*
X33370Y6801D02*
D03*
X33594D02*
D03*
X33788Y6330D02*
D03*
X34012D02*
D03*
X36672Y12380D02*
D03*
X36448D02*
D03*
X35162Y12350D02*
D03*
X34938D02*
D03*
X30140Y11024D02*
D03*
X29915D02*
D03*
X11128Y6550D02*
D03*
X11352D02*
D03*
X19969Y10237D02*
D03*
X20194D02*
D03*
X18838Y6500D02*
D03*
X19062D02*
D03*
X16058Y6490D02*
D03*
X16282D02*
D03*
X42491Y17683D02*
D03*
X42715D02*
D03*
X40565Y20083D02*
D03*
X40341D02*
D03*
X40515Y19283D02*
D03*
X40291D02*
D03*
X39078Y19090D02*
D03*
X39302D02*
D03*
X39822Y15920D02*
D03*
X39598D02*
D03*
X38652Y19210D02*
D03*
X38428D02*
D03*
X38428Y17980D02*
D03*
X38652D02*
D03*
X31182Y14920D02*
D03*
X30958D02*
D03*
X30458D02*
D03*
X30682D02*
D03*
X41762Y12690D02*
D03*
X41538D02*
D03*
X41762Y13010D02*
D03*
X41538D02*
D03*
X41762Y13330D02*
D03*
X41538D02*
D03*
X21288Y11065D02*
D03*
X21512D02*
D03*
X21288Y11300D02*
D03*
X21512D02*
D03*
X20194Y11615D02*
D03*
X19969D02*
D03*
X20194Y10947D02*
D03*
X19969D02*
D03*
X20194Y10710D02*
D03*
X19969D02*
D03*
X20194Y10474D02*
D03*
X19969D02*
D03*
X20194Y9843D02*
D03*
X19969D02*
D03*
Y9449D02*
D03*
X20194D02*
D03*
Y8919D02*
D03*
X19969D02*
D03*
X20194Y8682D02*
D03*
X19969D02*
D03*
X20194Y8445D02*
D03*
X19969D02*
D03*
X20194Y8208D02*
D03*
X19969D02*
D03*
X19966Y7950D02*
D03*
X20190D02*
D03*
X19966Y7700D02*
D03*
X20190D02*
D03*
X19966Y7454D02*
D03*
X20190D02*
D03*
X9152Y10210D02*
D03*
X8928D02*
D03*
X1338Y3250D02*
D03*
X1562D02*
D03*
X11351Y6813D02*
D03*
X11127D02*
D03*
X1062Y3750D02*
D03*
X838D02*
D03*
X9318Y6440D02*
D03*
X9542D02*
D03*
X39612Y13720D02*
D03*
X39388D02*
D03*
X39612Y13140D02*
D03*
X39388D02*
D03*
X39612Y12560D02*
D03*
X39388D02*
D03*
X39612Y11980D02*
D03*
X39388D02*
D03*
X43872Y5130D02*
D03*
X43648D02*
D03*
X41318Y5050D02*
D03*
X41542D02*
D03*
X36418Y18670D02*
D03*
X36642D02*
D03*
X27388Y7970D02*
D03*
X27612D02*
D03*
X34618Y14830D02*
D03*
X34842D02*
D03*
X25888Y10500D02*
D03*
X26112D02*
D03*
X20194Y12902D02*
D03*
X19969D02*
D03*
X37298Y11640D02*
D03*
X37522D02*
D03*
X35772Y12010D02*
D03*
X35548D02*
D03*
X29012Y10480D02*
D03*
X42578Y11010D02*
D03*
X42802D02*
D03*
X41777Y15542D02*
D03*
X42002D02*
D03*
X55098Y13826D02*
D03*
X3948Y23010D02*
D03*
X4172D02*
D03*
X15282Y6120D02*
D03*
X15058D02*
D03*
X20438Y12124D02*
D03*
X20662D02*
D03*
D47*
X33386Y10750D02*
D03*
Y10975D02*
D03*
X54203Y15310D02*
D03*
Y15534D02*
D03*
X56332Y14511D02*
D03*
X56332Y14286D02*
D03*
X40600Y19548D02*
D03*
Y19772D02*
D03*
X40590Y13702D02*
D03*
Y13478D02*
D03*
X2220Y5638D02*
D03*
Y5863D02*
D03*
X11400Y15463D02*
D03*
Y15238D02*
D03*
X4325Y15623D02*
D03*
Y15398D02*
D03*
X3255Y14878D02*
D03*
Y15103D02*
D03*
X47150Y7402D02*
D03*
Y7178D02*
D03*
X47380Y7402D02*
D03*
X55427Y14288D02*
D03*
X55900D02*
D03*
X43975Y7117D02*
D03*
X43754D02*
D03*
X47380Y7178D02*
D03*
X43975Y6893D02*
D03*
X43754D02*
D03*
X44338Y9865D02*
D03*
Y10090D02*
D03*
X52413Y13373D02*
D03*
Y13148D02*
D03*
Y11718D02*
D03*
Y11494D02*
D03*
X55900Y14513D02*
D03*
X55427D02*
D03*
X55000D02*
D03*
Y14288D02*
D03*
X41430Y3747D02*
D03*
Y3972D02*
D03*
X38010Y8188D02*
D03*
Y8412D02*
D03*
Y8862D02*
D03*
Y8638D02*
D03*
X32580Y12128D02*
D03*
Y12352D02*
D03*
X42513Y4414D02*
D03*
Y4189D02*
D03*
X43000Y4568D02*
D03*
X43000Y4792D02*
D03*
X13960Y6178D02*
D03*
Y6402D02*
D03*
X41692Y24278D02*
D03*
Y24503D02*
D03*
X39770Y19258D02*
D03*
Y19482D02*
D03*
X7200Y5063D02*
D03*
Y4838D02*
D03*
X9870Y15080D02*
D03*
Y14856D02*
D03*
X35397Y13866D02*
D03*
Y14090D02*
D03*
X41680Y10659D02*
D03*
Y10435D02*
D03*
X39800Y10622D02*
D03*
Y10398D02*
D03*
X35477Y10044D02*
D03*
Y9820D02*
D03*
X22813Y10741D02*
D03*
Y10517D02*
D03*
X29290Y14872D02*
D03*
Y14648D02*
D03*
X39870Y11628D02*
D03*
Y11852D02*
D03*
Y12208D02*
D03*
Y12432D02*
D03*
Y12788D02*
D03*
Y13012D02*
D03*
Y13592D02*
D03*
Y13368D02*
D03*
X41050Y13478D02*
D03*
Y13702D02*
D03*
X26721Y7040D02*
D03*
Y7265D02*
D03*
X16647Y13784D02*
D03*
Y13559D02*
D03*
X18420Y14078D02*
D03*
Y14303D02*
D03*
X17434Y13559D02*
D03*
Y13784D02*
D03*
X12900Y8282D02*
D03*
Y8058D02*
D03*
Y9652D02*
D03*
Y9428D02*
D03*
Y11628D02*
D03*
Y11852D02*
D03*
X42503Y18771D02*
D03*
Y18995D02*
D03*
X40876Y24503D02*
D03*
Y24278D02*
D03*
X40510Y15038D02*
D03*
Y15262D02*
D03*
X38850Y15262D02*
D03*
Y15038D02*
D03*
X39303Y18471D02*
D03*
Y18695D02*
D03*
X38976Y16771D02*
D03*
Y16995D02*
D03*
X53750Y15566D02*
D03*
Y15790D02*
D03*
X53976Y15566D02*
D03*
Y15790D02*
D03*
X53297Y15566D02*
D03*
Y15790D02*
D03*
X53071Y15566D02*
D03*
Y15790D02*
D03*
X20170Y17232D02*
D03*
Y17008D02*
D03*
X53524Y15566D02*
D03*
Y15790D02*
D03*
X7600Y7288D02*
D03*
Y7513D02*
D03*
Y6913D02*
D03*
Y6688D02*
D03*
X7334Y3318D02*
D03*
Y3094D02*
D03*
X6980Y3088D02*
D03*
Y3313D02*
D03*
X6650Y3088D02*
D03*
Y3313D02*
D03*
X6152Y6163D02*
D03*
Y5938D02*
D03*
X5363Y11303D02*
D03*
Y11078D02*
D03*
Y10863D02*
D03*
Y10638D02*
D03*
X10606Y12067D02*
D03*
Y11843D02*
D03*
X12300Y11543D02*
D03*
Y11767D02*
D03*
X38330Y12128D02*
D03*
Y12352D02*
D03*
X38100Y12512D02*
D03*
Y12288D02*
D03*
X38330Y11618D02*
D03*
Y11842D02*
D03*
X38100Y12022D02*
D03*
Y11798D02*
D03*
X39440Y10692D02*
D03*
Y10468D02*
D03*
X40480Y9478D02*
D03*
Y9702D02*
D03*
X40820Y13702D02*
D03*
Y13478D02*
D03*
X40360Y13478D02*
D03*
Y13702D02*
D03*
X54429Y15534D02*
D03*
Y15310D02*
D03*
X14220Y6402D02*
D03*
Y6178D02*
D03*
X35470Y11502D02*
D03*
Y11278D02*
D03*
X34380Y12188D02*
D03*
Y12412D02*
D03*
X14730Y6002D02*
D03*
Y5778D02*
D03*
X21400Y7238D02*
D03*
Y7463D02*
D03*
X6635Y14956D02*
D03*
Y14732D02*
D03*
X16824Y14059D02*
D03*
Y14283D02*
D03*
X17061Y14059D02*
D03*
Y14283D02*
D03*
X15663Y6246D02*
D03*
Y6471D02*
D03*
X12500Y8288D02*
D03*
Y8512D02*
D03*
X3396Y22353D02*
D03*
Y22128D02*
D03*
X4955Y21242D02*
D03*
Y21467D02*
D03*
X4946Y22638D02*
D03*
Y22863D02*
D03*
X18419Y6521D02*
D03*
Y6296D02*
D03*
X17875Y6521D02*
D03*
Y6296D02*
D03*
X23800Y9388D02*
D03*
Y9613D02*
D03*
X20700Y12642D02*
D03*
Y12867D02*
D03*
X48782Y5855D02*
D03*
Y6080D02*
D03*
X44004Y5856D02*
D03*
Y6080D02*
D03*
D48*
X53437Y12738D02*
D03*
Y11577D02*
D03*
D49*
X52837Y12157D02*
D03*
D50*
X40501Y22327D02*
D03*
Y21414D02*
D03*
D51*
X40905Y22244D02*
D03*
X40098D02*
D03*
Y21496D02*
D03*
X40905Y21496D02*
D03*
D52*
X43255Y24263D02*
D03*
Y24775D02*
D03*
X42073Y24263D02*
D03*
Y24775D02*
D03*
D53*
X38612Y21000D02*
D03*
X36388D02*
D03*
X38612Y20000D02*
D03*
X36388D02*
D03*
D54*
X35029Y14406D02*
D03*
Y14249D02*
D03*
Y14091D02*
D03*
Y13934D02*
D03*
X34065D02*
D03*
Y14091D02*
D03*
Y14249D02*
D03*
Y14406D02*
D03*
X40082Y10112D02*
D03*
Y10270D02*
D03*
Y10427D02*
D03*
Y10585D02*
D03*
X41047D02*
D03*
Y10427D02*
D03*
Y10270D02*
D03*
Y10112D02*
D03*
X26475Y7799D02*
D03*
Y7956D02*
D03*
Y8114D02*
D03*
Y8271D02*
D03*
X27125D02*
D03*
Y8114D02*
D03*
Y7956D02*
D03*
Y7799D02*
D03*
X32262Y12666D02*
D03*
Y12509D02*
D03*
Y12351D02*
D03*
Y12194D02*
D03*
X31298D02*
D03*
Y12351D02*
D03*
Y12509D02*
D03*
Y12666D02*
D03*
X28613Y11181D02*
D03*
X38485Y10544D02*
D03*
Y10701D02*
D03*
Y10859D02*
D03*
Y11016D02*
D03*
X39135Y11016D02*
D03*
Y10859D02*
D03*
Y10701D02*
D03*
Y10544D02*
D03*
X41185Y12866D02*
D03*
Y12709D02*
D03*
Y12551D02*
D03*
Y12394D02*
D03*
X40535D02*
D03*
X40535Y12551D02*
D03*
Y12709D02*
D03*
Y12866D02*
D03*
X32982Y7116D02*
D03*
Y6958D02*
D03*
Y6801D02*
D03*
Y6643D02*
D03*
X32018D02*
D03*
Y6801D02*
D03*
Y6958D02*
D03*
Y7116D02*
D03*
X35804Y9346D02*
D03*
Y9503D02*
D03*
Y9661D02*
D03*
Y9818D02*
D03*
X36769D02*
D03*
Y9661D02*
D03*
Y9503D02*
D03*
Y9346D02*
D03*
X23059Y9983D02*
D03*
Y9826D02*
D03*
Y9668D02*
D03*
Y9511D02*
D03*
X22410D02*
D03*
Y9668D02*
D03*
Y9826D02*
D03*
Y9983D02*
D03*
X29578Y11339D02*
D03*
Y11181D02*
D03*
Y11024D02*
D03*
Y10866D02*
D03*
X28613D02*
D03*
Y11024D02*
D03*
Y11339D02*
D03*
X41965Y10112D02*
D03*
Y10270D02*
D03*
Y10427D02*
D03*
Y10585D02*
D03*
X42930D02*
D03*
Y10427D02*
D03*
Y10270D02*
D03*
Y10112D02*
D03*
D55*
X34783Y13845D02*
D03*
X34626D02*
D03*
X34468D02*
D03*
X34311D02*
D03*
Y14495D02*
D03*
X34468D02*
D03*
X34626D02*
D03*
X34783D02*
D03*
X40328Y10673D02*
D03*
X40486D02*
D03*
X40643D02*
D03*
X40800D02*
D03*
Y10024D02*
D03*
X40643D02*
D03*
X40486D02*
D03*
X40328D02*
D03*
X27036Y7553D02*
D03*
X26879D02*
D03*
X26721D02*
D03*
X26564D02*
D03*
Y8517D02*
D03*
X26721D02*
D03*
X26879D02*
D03*
X27036D02*
D03*
X32016Y12105D02*
D03*
X31859D02*
D03*
X31701D02*
D03*
X31544D02*
D03*
Y12755D02*
D03*
X31701Y12755D02*
D03*
X31859D02*
D03*
X32016D02*
D03*
X39046Y10298D02*
D03*
X38889D02*
D03*
X38731D02*
D03*
X38574D02*
D03*
Y11262D02*
D03*
X38731D02*
D03*
X38889D02*
D03*
X39046D02*
D03*
X40624Y13112D02*
D03*
X40781D02*
D03*
X40939D02*
D03*
X41096D02*
D03*
Y12148D02*
D03*
X40939D02*
D03*
X40781D02*
D03*
X40624D02*
D03*
X32736Y6555D02*
D03*
X32579D02*
D03*
X32421D02*
D03*
X32264D02*
D03*
Y7204D02*
D03*
X32421D02*
D03*
X32579D02*
D03*
X32736D02*
D03*
X36050Y9907D02*
D03*
X36208D02*
D03*
X36365D02*
D03*
X36523D02*
D03*
Y9257D02*
D03*
X36365D02*
D03*
X36208D02*
D03*
X36050D02*
D03*
X22498Y10229D02*
D03*
X22656D02*
D03*
X22813D02*
D03*
X22971D02*
D03*
Y9265D02*
D03*
X22813D02*
D03*
X22656D02*
D03*
X22498D02*
D03*
X29332Y10778D02*
D03*
X29174D02*
D03*
X29017D02*
D03*
X28859D02*
D03*
Y11427D02*
D03*
X29017D02*
D03*
X29174D02*
D03*
X29332D02*
D03*
X42211Y10673D02*
D03*
X42369D02*
D03*
X42526D02*
D03*
X42684D02*
D03*
Y10024D02*
D03*
X42526D02*
D03*
X42369D02*
D03*
X42211D02*
D03*
D56*
X3282Y24450D02*
D03*
X5200Y1100D02*
D03*
X53500Y24100D02*
D03*
D57*
X31000Y21424D02*
D03*
Y22577D02*
D03*
X27000Y21424D02*
D03*
X30000D02*
D03*
X29000Y21424D02*
D03*
X34000Y21424D02*
D03*
X33000D02*
D03*
X27000Y22577D02*
D03*
X30000D02*
D03*
X29000D02*
D03*
X34000D02*
D03*
X33000D02*
D03*
X28000Y21424D02*
D03*
X32000D02*
D03*
X28000Y22577D02*
D03*
X32000D02*
D03*
X7400Y21424D02*
D03*
X13400D02*
D03*
X7400Y22577D02*
D03*
X13400D02*
D03*
X8400Y21424D02*
D03*
X9400Y21424D02*
D03*
X11400D02*
D03*
X12400D02*
D03*
X15400D02*
D03*
X16400D02*
D03*
X8400Y22577D02*
D03*
X9400D02*
D03*
X11400D02*
D03*
X12400D02*
D03*
X15400D02*
D03*
X16400D02*
D03*
X10400Y21424D02*
D03*
X14400Y21424D02*
D03*
X10400Y22577D02*
D03*
X14400D02*
D03*
X14000Y3577D02*
D03*
Y2424D02*
D03*
X18000Y3577D02*
D03*
X15000D02*
D03*
X16000Y3577D02*
D03*
X11000Y3577D02*
D03*
X12000D02*
D03*
X18000Y2424D02*
D03*
X15000D02*
D03*
X16000D02*
D03*
X11000D02*
D03*
X12000D02*
D03*
X17000Y3577D02*
D03*
X13000D02*
D03*
X17000Y2424D02*
D03*
X13000D02*
D03*
X23000Y3577D02*
D03*
X23000Y2424D02*
D03*
X25000Y3577D02*
D03*
X24000D02*
D03*
X21000D02*
D03*
X20000D02*
D03*
X25000Y2424D02*
D03*
X24000D02*
D03*
X21000D02*
D03*
X20000D02*
D03*
X22000Y3577D02*
D03*
Y2424D02*
D03*
X19400Y18577D02*
D03*
Y17424D02*
D03*
X18400Y18577D02*
D03*
Y17424D02*
D03*
X17400Y18577D02*
D03*
Y17424D02*
D03*
X13400Y18577D02*
D03*
Y17424D02*
D03*
X14400Y18577D02*
D03*
Y17424D02*
D03*
X8400Y18577D02*
D03*
Y17424D02*
D03*
X9400D02*
D03*
Y18577D02*
D03*
X10400Y17424D02*
D03*
Y18577D02*
D03*
X12400Y17424D02*
D03*
Y18577D02*
D03*
X11400Y17424D02*
D03*
Y18577D02*
D03*
X7400D02*
D03*
Y17424D02*
D03*
X16400D02*
D03*
Y18577D02*
D03*
X15400Y17424D02*
D03*
Y18577D02*
D03*
X22000Y21424D02*
D03*
Y22577D02*
D03*
X18000Y21424D02*
D03*
X21000D02*
D03*
X20000Y21424D02*
D03*
X25000Y21424D02*
D03*
X24000D02*
D03*
X18000Y22577D02*
D03*
X21000D02*
D03*
X20000D02*
D03*
X25000D02*
D03*
X24000D02*
D03*
X19000Y21424D02*
D03*
X23000D02*
D03*
X19000Y22577D02*
D03*
X23000D02*
D03*
D58*
X58266Y12400D02*
D03*
Y13900D02*
D03*
D59*
X39188Y15150D02*
D03*
X40172D02*
D03*
D60*
X42183Y18666D02*
D03*
Y18469D02*
D03*
Y18272D02*
D03*
Y18075D02*
D03*
Y17878D02*
D03*
Y17681D02*
D03*
Y17485D02*
D03*
Y17288D02*
D03*
Y17091D02*
D03*
Y16894D02*
D03*
Y16697D02*
D03*
Y16500D02*
D03*
X41986Y18863D02*
D03*
Y18370D02*
D03*
Y18174D02*
D03*
Y17977D02*
D03*
Y17780D02*
D03*
Y17583D02*
D03*
Y17386D02*
D03*
Y17189D02*
D03*
Y16796D02*
D03*
X41887Y16500D02*
D03*
X41789Y18863D02*
D03*
X41691Y18666D02*
D03*
Y16500D02*
D03*
X41592Y18863D02*
D03*
Y16304D02*
D03*
X41494Y18666D02*
D03*
X41395Y18863D02*
D03*
Y16304D02*
D03*
X41297Y18666D02*
D03*
Y16500D02*
D03*
X41198Y18863D02*
D03*
Y16304D02*
D03*
X41100Y18666D02*
D03*
Y16500D02*
D03*
X41002Y18863D02*
D03*
Y16304D02*
D03*
X40903Y16500D02*
D03*
X40805Y18863D02*
D03*
Y16304D02*
D03*
X40706Y16500D02*
D03*
X40608Y18863D02*
D03*
Y16304D02*
D03*
X40509Y18666D02*
D03*
Y16500D02*
D03*
X40411Y16304D02*
D03*
X40313Y18666D02*
D03*
Y16500D02*
D03*
X40214Y18863D02*
D03*
X40116Y16500D02*
D03*
X40017Y16304D02*
D03*
X40116Y18666D02*
D03*
X39820Y18863D02*
D03*
Y18174D02*
D03*
Y17977D02*
D03*
Y17780D02*
D03*
Y17583D02*
D03*
Y17386D02*
D03*
Y17189D02*
D03*
Y16993D02*
D03*
Y16796D02*
D03*
Y16599D02*
D03*
Y16304D02*
D03*
X39624Y18666D02*
D03*
Y18272D02*
D03*
Y18075D02*
D03*
Y17878D02*
D03*
Y17681D02*
D03*
Y17485D02*
D03*
Y17288D02*
D03*
Y17091D02*
D03*
Y18469D02*
D03*
D61*
X23764Y5803D02*
D03*
X23075D02*
D03*
X22386D02*
D03*
Y7259D02*
D03*
X23075D02*
D03*
X23764D02*
D03*
X44921Y5984D02*
D03*
X45906Y5039D02*
D03*
X46890Y5984D02*
D03*
X37323Y1752D02*
D03*
X36634Y846D02*
D03*
X38012D02*
D03*
X22216Y18472D02*
D03*
X23200Y17528D02*
D03*
X24184Y18472D02*
D03*
X8048Y1880D02*
D03*
X7359Y974D02*
D03*
X8737D02*
D03*
X2500Y2573D02*
D03*
Y1628D02*
D03*
X24184Y17528D02*
D03*
X49703Y5984D02*
D03*
X50687Y5039D02*
D03*
X51672Y5984D02*
D03*
D62*
X30359Y1313D02*
D03*
Y2887D02*
D03*
X27701Y1313D02*
D03*
Y2887D02*
D03*
X49459Y2388D02*
D03*
Y813D02*
D03*
X52116Y2388D02*
D03*
Y813D02*
D03*
X44477Y2388D02*
D03*
Y813D02*
D03*
X47134Y2388D02*
D03*
Y813D02*
D03*
D63*
X4650Y17130D02*
D03*
Y18130D02*
D03*
X4670Y8300D02*
D03*
Y7300D02*
D03*
D64*
X32259Y2519D02*
D03*
X33259D02*
D03*
X34259D02*
D03*
X32299Y1270D02*
D03*
X33259D02*
D03*
X34220D02*
D03*
D65*
X32779Y542D02*
D03*
X33740D02*
D03*
D66*
X31450Y995D02*
D03*
X35850D02*
D03*
D67*
X31450Y2904D02*
D03*
X35850D02*
D03*
D68*
X31539Y3830D02*
D03*
D69*
X31647Y4538D02*
D03*
D70*
X32393Y5700D02*
D03*
X34126D02*
D03*
D71*
X33043Y5276D02*
D03*
D72*
X35850Y4932D02*
D03*
D73*
X36450Y6068D02*
D03*
X36950D02*
D03*
X37450D02*
D03*
X37950D02*
D03*
X38450D02*
D03*
X36450Y4533D02*
D03*
X36950D02*
D03*
X37450D02*
D03*
X37950D02*
D03*
X38450D02*
D03*
X31300Y17618D02*
D03*
X30800D02*
D03*
X29800D02*
D03*
X31800Y16083D02*
D03*
X31300D02*
D03*
X30800D02*
D03*
X30300D02*
D03*
X29800D02*
D03*
X31800Y17618D02*
D03*
X30300D02*
D03*
X37486Y16083D02*
D03*
X36986D02*
D03*
X36486D02*
D03*
X35986D02*
D03*
X35486D02*
D03*
X37486Y17618D02*
D03*
X36986D02*
D03*
X36486D02*
D03*
X35986D02*
D03*
X35486D02*
D03*
D74*
X24675Y14000D02*
D03*
X26425D02*
D03*
X24675Y13000D02*
D03*
X26425D02*
D03*
X24675Y12000D02*
D03*
X26425D02*
D03*
D75*
X42304Y15883D02*
D03*
X41773D02*
D03*
X39210Y16373D02*
D03*
X38679D02*
D03*
X7866Y12350D02*
D03*
X7334Y12350D02*
D03*
D76*
X18812Y13022D02*
D03*
X18615D02*
D03*
X18419D02*
D03*
X18222D02*
D03*
X18025D02*
D03*
X17828D02*
D03*
X17631D02*
D03*
X17434D02*
D03*
X17237D02*
D03*
X17041D02*
D03*
X16844D02*
D03*
X16647D02*
D03*
X16450D02*
D03*
X16253D02*
D03*
X16056D02*
D03*
X15859D02*
D03*
X15663D02*
D03*
X15466D02*
D03*
X15269D02*
D03*
X15072D02*
D03*
X14875D02*
D03*
X14678D02*
D03*
X14482D02*
D03*
X14285D02*
D03*
X14088D02*
D03*
Y7058D02*
D03*
X14285D02*
D03*
X14482D02*
D03*
X14678D02*
D03*
X14875D02*
D03*
X15072D02*
D03*
X15269D02*
D03*
X15466D02*
D03*
X15663D02*
D03*
X15859D02*
D03*
X16056D02*
D03*
X16253D02*
D03*
X16450D02*
D03*
X16647D02*
D03*
X16844D02*
D03*
X17041D02*
D03*
X17237D02*
D03*
X17434D02*
D03*
X17631D02*
D03*
X17828D02*
D03*
X18025D02*
D03*
X18222D02*
D03*
X18419D02*
D03*
X18615D02*
D03*
X18812D02*
D03*
D77*
X13468Y12402D02*
D03*
Y12205D02*
D03*
Y12008D02*
D03*
Y11811D02*
D03*
Y11615D02*
D03*
Y11418D02*
D03*
Y11221D02*
D03*
Y11024D02*
D03*
Y10827D02*
D03*
Y10630D02*
D03*
Y10433D02*
D03*
Y10237D02*
D03*
Y10040D02*
D03*
Y9843D02*
D03*
Y9646D02*
D03*
Y9449D02*
D03*
Y9252D02*
D03*
Y9056D02*
D03*
Y8859D02*
D03*
Y8662D02*
D03*
Y8465D02*
D03*
Y8268D02*
D03*
Y8071D02*
D03*
Y7874D02*
D03*
Y7678D02*
D03*
X19432D02*
D03*
Y7874D02*
D03*
Y8071D02*
D03*
Y8268D02*
D03*
Y8465D02*
D03*
Y8662D02*
D03*
Y8859D02*
D03*
Y9056D02*
D03*
Y9252D02*
D03*
Y9449D02*
D03*
Y9646D02*
D03*
Y9843D02*
D03*
Y10040D02*
D03*
Y10237D02*
D03*
Y10433D02*
D03*
Y10630D02*
D03*
Y10827D02*
D03*
Y11024D02*
D03*
Y11221D02*
D03*
Y11418D02*
D03*
Y11615D02*
D03*
Y11811D02*
D03*
Y12008D02*
D03*
Y12205D02*
D03*
Y12402D02*
D03*
D78*
X3163Y12218D02*
D03*
D79*
X3833D02*
D03*
Y13025D02*
D03*
X3085D02*
D03*
D80*
X2418Y12500D02*
D03*
Y12756D02*
D03*
Y13012D02*
D03*
Y12244D02*
D03*
Y11989D02*
D03*
D81*
X1365Y12973D02*
D03*
Y12028D02*
D03*
D82*
X2330Y11241D02*
D03*
Y13760D02*
D03*
D83*
X12500Y7382D02*
D03*
Y7932D02*
D03*
D84*
X52579Y9149D02*
D03*
Y9956D02*
D03*
X53327D02*
D03*
Y9149D02*
D03*
D85*
X52496Y9553D02*
D03*
X53409D02*
D03*
D86*
X40600Y20586D02*
D03*
X40501Y20743D02*
D03*
Y20901D02*
D03*
X40698Y20743D02*
D03*
Y20901D02*
D03*
D87*
X42245Y6201D02*
D03*
X42795D02*
D03*
X39882D02*
D03*
X40432D02*
D03*
X42245Y8268D02*
D03*
X42795D02*
D03*
X39882D02*
D03*
X40432D02*
D03*
D88*
X34355Y6729D02*
D03*
X34552D02*
D03*
X34748D02*
D03*
X34945D02*
D03*
X34453Y6557D02*
D03*
X34847D02*
D03*
X34355Y6386D02*
D03*
X34552D02*
D03*
X34748D02*
D03*
X34945D02*
D03*
D89*
X45150Y12173D02*
D03*
Y12547D02*
D03*
X38256Y16760D02*
D03*
Y16386D02*
D03*
X2925Y14727D02*
D03*
Y14353D02*
D03*
X2971Y11518D02*
D03*
Y11144D02*
D03*
D90*
X44415Y9275D02*
D03*
X43825D02*
D03*
D91*
X52030Y12866D02*
D03*
X52404D02*
D03*
X52030Y12157D02*
D03*
X52404D02*
D03*
X51939Y15846D02*
D03*
X52313D02*
D03*
X53130Y13946D02*
D03*
X52756D02*
D03*
X1448Y10600D02*
D03*
X1822D02*
D03*
D92*
X45508Y11765D02*
D03*
X45311D02*
D03*
X47280Y7734D02*
D03*
X45311D02*
D03*
X45705Y11765D02*
D03*
X45902D02*
D03*
X46099D02*
D03*
X46295D02*
D03*
X46492D02*
D03*
X46689D02*
D03*
X46886D02*
D03*
X47083D02*
D03*
X47280D02*
D03*
X47477D02*
D03*
X47673D02*
D03*
X47870D02*
D03*
X48067D02*
D03*
X48264D02*
D03*
X48461D02*
D03*
X48658D02*
D03*
X48854D02*
D03*
X49051D02*
D03*
X49248D02*
D03*
X49445D02*
D03*
X49642D02*
D03*
X49839D02*
D03*
X50036D02*
D03*
X50232D02*
D03*
X50429D02*
D03*
X50626D02*
D03*
X50823D02*
D03*
X51020D02*
D03*
X50823Y7734D02*
D03*
X50626D02*
D03*
X50429D02*
D03*
X50232D02*
D03*
X50036D02*
D03*
X49839D02*
D03*
X49642D02*
D03*
X49445D02*
D03*
X49248D02*
D03*
X49051D02*
D03*
X48854D02*
D03*
X48658D02*
D03*
X48461D02*
D03*
X48264D02*
D03*
X48067D02*
D03*
X47870D02*
D03*
X47673D02*
D03*
X47477D02*
D03*
X47083D02*
D03*
X46886D02*
D03*
X46689D02*
D03*
X46492D02*
D03*
X46295D02*
D03*
X46099D02*
D03*
X45902D02*
D03*
X45705D02*
D03*
X45508D02*
D03*
X51020D02*
D03*
D93*
X45803Y11009D02*
D03*
Y10380D02*
D03*
Y9120D02*
D03*
Y9750D02*
D03*
Y8490D02*
D03*
X46591D02*
D03*
Y9750D02*
D03*
Y9120D02*
D03*
Y10380D02*
D03*
Y11009D02*
D03*
X47378D02*
D03*
Y10380D02*
D03*
Y9120D02*
D03*
Y9750D02*
D03*
Y8490D02*
D03*
X48953Y11009D02*
D03*
Y10380D02*
D03*
Y9120D02*
D03*
Y9750D02*
D03*
Y8490D02*
D03*
X48165Y11009D02*
D03*
Y10380D02*
D03*
Y9120D02*
D03*
Y9750D02*
D03*
Y8490D02*
D03*
X49740Y11009D02*
D03*
Y10380D02*
D03*
Y9120D02*
D03*
Y9750D02*
D03*
Y8490D02*
D03*
X50528Y10380D02*
D03*
Y9120D02*
D03*
Y9750D02*
D03*
Y8490D02*
D03*
Y11009D02*
D03*
D94*
X45067Y11765D02*
D03*
X51264D02*
D03*
X45067Y7734D02*
D03*
X51264D02*
D03*
D95*
Y11521D02*
D03*
Y11324D02*
D03*
Y11128D02*
D03*
Y10931D02*
D03*
Y10734D02*
D03*
Y10537D02*
D03*
Y10340D02*
D03*
Y10143D02*
D03*
Y9946D02*
D03*
Y9750D02*
D03*
Y9553D02*
D03*
Y9159D02*
D03*
Y8962D02*
D03*
Y8765D02*
D03*
Y8569D02*
D03*
Y8372D02*
D03*
Y8175D02*
D03*
Y7978D02*
D03*
X45067Y8175D02*
D03*
Y8372D02*
D03*
Y8569D02*
D03*
Y8765D02*
D03*
Y8962D02*
D03*
Y9159D02*
D03*
Y9356D02*
D03*
Y9553D02*
D03*
Y9750D02*
D03*
Y9946D02*
D03*
Y10143D02*
D03*
Y10340D02*
D03*
Y10537D02*
D03*
Y10734D02*
D03*
Y10931D02*
D03*
Y11128D02*
D03*
Y11324D02*
D03*
Y11521D02*
D03*
X51264Y9356D02*
D03*
X45067Y7978D02*
D03*
D96*
X45902Y11462D02*
D03*
X46295D02*
D03*
X46099D02*
D03*
X46492D02*
D03*
X48067D02*
D03*
X47673D02*
D03*
X47870D02*
D03*
X47477D02*
D03*
X49445D02*
D03*
X50036D02*
D03*
X49642D02*
D03*
X49839D02*
D03*
X45902Y8037D02*
D03*
X46295D02*
D03*
X46099D02*
D03*
X46492D02*
D03*
X48067D02*
D03*
X47673D02*
D03*
X47870D02*
D03*
X47477D02*
D03*
X49445D02*
D03*
X50036D02*
D03*
X49642D02*
D03*
X49839D02*
D03*
D97*
X53500Y14282D02*
D03*
X52600D02*
D03*
Y15218D02*
D03*
X53500D02*
D03*
D98*
X53247Y14282D02*
D03*
X53050D02*
D03*
X52853D02*
D03*
Y15218D02*
D03*
X53050D02*
D03*
X53247D02*
D03*
D99*
X35153Y11827D02*
D03*
Y11670D02*
D03*
Y11513D02*
D03*
X34547D02*
D03*
Y11670D02*
D03*
Y11827D02*
D03*
X30394Y12609D02*
D03*
Y12451D02*
D03*
X29946D02*
D03*
X42113Y4567D02*
D03*
X41665D02*
D03*
Y4409D02*
D03*
X43415Y4409D02*
D03*
X43863D02*
D03*
Y4567D02*
D03*
X29385Y14181D02*
D03*
Y14024D02*
D03*
Y13866D02*
D03*
X28780D02*
D03*
Y14024D02*
D03*
Y14181D02*
D03*
X36663Y11937D02*
D03*
Y11780D02*
D03*
Y11623D02*
D03*
X36057D02*
D03*
Y11780D02*
D03*
Y11937D02*
D03*
D100*
X34929Y11446D02*
D03*
X34771D02*
D03*
Y11894D02*
D03*
X30013Y12833D02*
D03*
X30170D02*
D03*
X30327D02*
D03*
Y12227D02*
D03*
X30170D02*
D03*
X30013D02*
D03*
X42046Y4791D02*
D03*
X41889Y4791D02*
D03*
X41731Y4791D02*
D03*
Y4185D02*
D03*
X41889D02*
D03*
X42046D02*
D03*
X43481Y4185D02*
D03*
X43639D02*
D03*
X43796D02*
D03*
X43796Y4791D02*
D03*
X43639Y4791D02*
D03*
X43481D02*
D03*
X29161Y13800D02*
D03*
X29004D02*
D03*
Y14248D02*
D03*
X36439Y11556D02*
D03*
X36281D02*
D03*
Y12004D02*
D03*
D101*
X34929Y11874D02*
D03*
X29161Y14228D02*
D03*
X36439Y11984D02*
D03*
D102*
X19381Y14550D02*
D03*
D103*
X19913Y14747D02*
D03*
Y14550D02*
D03*
Y14354D02*
D03*
X18850D02*
D03*
Y14550D02*
D03*
Y14747D02*
D03*
D104*
X19578Y14019D02*
D03*
X19381D02*
D03*
X19184D02*
D03*
Y15082D02*
D03*
X19381D02*
D03*
X19578D02*
D03*
D105*
X38766Y18305D02*
D03*
X38314D02*
D03*
Y18875D02*
D03*
X38766D02*
D03*
D106*
X41043Y6398D02*
D03*
Y6201D02*
D03*
Y6004D02*
D03*
X41634D02*
D03*
Y6201D02*
D03*
Y6398D02*
D03*
X6442Y7054D02*
D03*
Y7250D02*
D03*
Y7447D02*
D03*
X7033D02*
D03*
Y7250D02*
D03*
Y7054D02*
D03*
X41634Y8268D02*
D03*
X41043D02*
D03*
Y8465D02*
D03*
Y8071D02*
D03*
X41634D02*
D03*
Y8465D02*
D03*
D107*
X13323Y6257D02*
D03*
Y6643D02*
D03*
X12160Y6257D02*
D03*
Y6643D02*
D03*
X5835Y14567D02*
D03*
Y14953D02*
D03*
X4203Y22563D02*
D03*
Y22177D02*
D03*
D108*
X12978Y6706D02*
D03*
Y6450D02*
D03*
Y6194D02*
D03*
X13667D02*
D03*
Y6450D02*
D03*
Y6706D02*
D03*
X11816D02*
D03*
Y6450D02*
D03*
Y6194D02*
D03*
X12504D02*
D03*
Y6450D02*
D03*
Y6706D02*
D03*
X5491Y15016D02*
D03*
Y14760D02*
D03*
Y14504D02*
D03*
X6180D02*
D03*
Y14760D02*
D03*
Y15016D02*
D03*
X4548Y22114D02*
D03*
Y22370D02*
D03*
Y22626D02*
D03*
X3859D02*
D03*
Y22370D02*
D03*
Y22114D02*
D03*
D109*
X6500Y17826D02*
D03*
Y17433D02*
D03*
X52362Y16575D02*
D03*
Y16181D02*
D03*
D110*
X52392Y16929D02*
D03*
X52785D02*
D03*
X14153Y13600D02*
D03*
X14547D02*
D03*
X39227Y15970D02*
D03*
X38833D02*
D03*
D111*
X39372Y11690D02*
D03*
X39628D02*
D03*
X39372Y12270D02*
D03*
X39628D02*
D03*
X39372Y12850D02*
D03*
X39628D02*
D03*
X39372Y13430D02*
D03*
X39628D02*
D03*
D112*
X11515Y11618D02*
D03*
Y11992D02*
D03*
D113*
X11871Y12061D02*
D03*
Y11805D02*
D03*
Y11549D02*
D03*
X11159D02*
D03*
Y11805D02*
D03*
Y12061D02*
D03*
D114*
X6881Y10962D02*
D03*
Y11159D02*
D03*
Y11356D02*
D03*
X7649D02*
D03*
Y11159D02*
D03*
D115*
Y10943D02*
D03*
D116*
X8488Y10936D02*
D03*
Y11802D02*
D03*
D117*
X9650Y11516D02*
D03*
Y11185D02*
D03*
X6060Y11426D02*
D03*
Y11095D02*
D03*
X2570Y5906D02*
D03*
Y5575D02*
D03*
D118*
X6471Y10916D02*
D03*
Y10522D02*
D03*
X44625Y9813D02*
D03*
Y10207D02*
D03*
X39266Y16796D02*
D03*
Y17190D02*
D03*
D119*
X5591Y6190D02*
D03*
X5335D02*
D03*
X5079D02*
D03*
Y5442D02*
D03*
X5591D02*
D03*
X1586Y4766D02*
D03*
X1330Y4766D02*
D03*
X1074Y4766D02*
D03*
Y5514D02*
D03*
X1330D02*
D03*
X1586D02*
D03*
D120*
X7716Y5863D02*
D03*
Y5607D02*
D03*
Y5351D02*
D03*
Y5096D02*
D03*
X10039Y5863D02*
D03*
Y5607D02*
D03*
Y5351D02*
D03*
Y5096D02*
D03*
D121*
X9468Y4388D02*
D03*
X8287D02*
D03*
D122*
X8877Y4329D02*
D03*
D123*
X1038Y3439D02*
D03*
Y3262D02*
D03*
D124*
X762Y3350D02*
D03*
D125*
X3484Y2573D02*
D03*
X1516D02*
D03*
X3484Y1628D02*
D03*
X1516D02*
D03*
D126*
X8359Y8413D02*
D03*
X8181D02*
D03*
D127*
X8270Y8688D02*
D03*
D128*
X10650Y15700D02*
D03*
X11024Y14874D02*
D03*
X10276D02*
D03*
D129*
X3340Y14120D02*
D03*
X3670D02*
D03*
X6935Y10060D02*
D03*
X6605D02*
D03*
D130*
X4345Y14320D02*
D03*
X12480Y15440D02*
D03*
X9040Y9400D02*
D03*
X9000Y7700D02*
D03*
X3830Y5740D02*
D03*
D131*
X4640Y14744D02*
D03*
X4443D02*
D03*
X4247D02*
D03*
X4050D02*
D03*
X4640Y13897D02*
D03*
X4443D02*
D03*
X4247D02*
D03*
X4050D02*
D03*
X12775Y15864D02*
D03*
X12578D02*
D03*
X12382D02*
D03*
X12185D02*
D03*
X12775Y15017D02*
D03*
X12578D02*
D03*
X12382D02*
D03*
X12185D02*
D03*
X9335Y9824D02*
D03*
X9138D02*
D03*
X8942D02*
D03*
X8745D02*
D03*
X9335Y8977D02*
D03*
X9138D02*
D03*
X8942D02*
D03*
X8745D02*
D03*
X8705Y7277D02*
D03*
X8902D02*
D03*
X9098D02*
D03*
X9295D02*
D03*
X8705Y8124D02*
D03*
X8902D02*
D03*
X9098D02*
D03*
X9295D02*
D03*
X4125Y6164D02*
D03*
X3928D02*
D03*
X3732D02*
D03*
X3535D02*
D03*
X4125Y5317D02*
D03*
X3928D02*
D03*
X3732D02*
D03*
X3535D02*
D03*
D132*
X30877Y14550D02*
D03*
D133*
X30680Y14548D02*
D03*
X30483D02*
D03*
X30877Y14252D02*
D03*
X30680D02*
D03*
X30483D02*
D03*
D134*
X51220Y16929D02*
D03*
D135*
X50394Y19291D02*
D03*
Y14567D02*
D03*
X48032Y19291D02*
D03*
Y16929D02*
D03*
Y14567D02*
D03*
X45669Y19291D02*
D03*
Y16929D02*
D03*
Y14567D02*
D03*
D136*
X30689Y11570D02*
D03*
Y11070D02*
D03*
Y10570D02*
D03*
Y10070D02*
D03*
X32870Y11570D02*
D03*
Y11070D02*
D03*
Y10570D02*
D03*
Y10070D02*
D03*
D137*
X39776Y4646D02*
D03*
X40776D02*
D03*
D138*
X29966Y12609D02*
D03*
X42093Y4409D02*
D03*
X43434Y4567D02*
D03*
D139*
X38548Y8313D02*
D03*
X38410D02*
D03*
X38272D02*
D03*
Y8647D02*
D03*
X38410D02*
D03*
X38548D02*
D03*
Y7633D02*
D03*
X38410D02*
D03*
X38272D02*
D03*
Y7967D02*
D03*
X38410D02*
D03*
X38548D02*
D03*
D140*
X44433Y7373D02*
D03*
Y7964D02*
D03*
X44620Y12855D02*
D03*
Y12265D02*
D03*
D141*
X4011Y23660D02*
D03*
X4396D02*
D03*
D142*
X4459Y24005D02*
D03*
X4203D02*
D03*
X3948D02*
D03*
Y23316D02*
D03*
X4203D02*
D03*
X4459D02*
D03*
D143*
X41351Y19252D02*
D03*
X41510Y19411D02*
D03*
D144*
X8894Y15209D02*
D03*
X6790Y8680D02*
D03*
D145*
X8470Y15504D02*
D03*
Y15307D02*
D03*
Y15111D02*
D03*
Y14914D02*
D03*
X9317Y15504D02*
D03*
Y15307D02*
D03*
Y15111D02*
D03*
Y14914D02*
D03*
X7213Y8385D02*
D03*
Y8582D02*
D03*
Y8779D02*
D03*
Y8976D02*
D03*
X6367Y8385D02*
D03*
Y8582D02*
D03*
Y8779D02*
D03*
Y8976D02*
D03*
D146*
X762Y22240D02*
D03*
Y22740D02*
D03*
Y23240D02*
D03*
Y23740D02*
D03*
Y24240D02*
D03*
X2298Y22240D02*
D03*
Y22740D02*
D03*
Y23240D02*
D03*
Y23740D02*
D03*
Y24240D02*
D03*
D147*
X45909Y5971D02*
D03*
X22213Y17551D02*
D03*
X44918Y5036D02*
D03*
X46887D02*
D03*
X51669D02*
D03*
X49700D02*
D03*
X23203Y18485D02*
D03*
X50691Y5971D02*
D03*
M02*
