G04*
G04 #@! TF.GenerationSoftware,Altium Limited,Altium Designer,21.1.1 (26)*
G04*
G04 Layer_Color=16711935*
%FSLAX24Y24*%
%MOIN*%
G70*
G04*
G04 #@! TF.SameCoordinates,859D0C74-6F1A-4902-9F36-B784FAE930BA*
G04*
G04*
G04 #@! TF.FilePolarity,Negative*
G04*
G01*
G75*
%ADD148C,0.0240*%
%ADD152C,0.0139*%
%ADD159R,0.0934X0.0462*%
%ADD162C,0.0787*%
%ADD163R,0.0462X0.0922*%
%ADD184R,0.1560X0.0560*%
%ADD221C,0.0651*%
%ADD239R,0.0146X0.0157*%
%ADD253R,0.0560X0.1312*%
%ADD264C,0.0761*%
%ADD265R,0.0651X0.0651*%
%ADD266O,0.0690X0.0414*%
%ADD267C,0.0354*%
%ADD268O,0.0847X0.1635*%
%ADD269C,0.1320*%
%ADD327R,0.0630X0.0709*%
%ADD328R,0.0547X0.0591*%
%ADD329R,0.0547X0.0551*%
%ADD330R,0.0709X0.0630*%
%ADD331R,0.0354X0.0701*%
%ADD332R,0.0669X0.0630*%
%ADD333R,0.0296X0.1084*%
%ADD334R,0.0157X0.0354*%
G36*
X57088Y8117D02*
X56884D01*
Y8353D01*
X57088D01*
Y8117D01*
D02*
G37*
G36*
X57691Y7959D02*
X57486D01*
Y8196D01*
X57691D01*
Y7959D01*
D02*
G37*
G36*
Y7526D02*
X57486D01*
Y7763D01*
X57691D01*
Y7526D01*
D02*
G37*
G36*
X57090Y7369D02*
X56884D01*
Y7605D01*
X57090D01*
Y7369D01*
D02*
G37*
G36*
Y6936D02*
X56884D01*
Y7172D01*
X57090D01*
Y6936D01*
D02*
G37*
G36*
X57691Y6778D02*
X57484D01*
Y7015D01*
X57691D01*
Y6778D01*
D02*
G37*
G36*
Y6345D02*
X57484D01*
Y6582D01*
X57691D01*
Y6345D01*
D02*
G37*
G36*
X57090Y6188D02*
X56884D01*
Y6424D01*
X57090D01*
Y6188D01*
D02*
G37*
G36*
Y5755D02*
X56884D01*
Y5991D01*
X57090D01*
Y5755D01*
D02*
G37*
G36*
X58596Y18857D02*
X58360D01*
Y19062D01*
X58596D01*
Y18857D01*
D02*
G37*
G36*
X58163D02*
X57927D01*
Y19062D01*
X58163D01*
Y18857D01*
D02*
G37*
G36*
X57088Y8550D02*
X56884D01*
Y8786D01*
X57088D01*
Y8550D01*
D02*
G37*
G36*
X57927Y19259D02*
Y19465D01*
X58163D01*
Y19259D01*
X57927D01*
D02*
G37*
G36*
X58360D02*
Y19465D01*
X58596D01*
Y19259D01*
X58360D01*
D02*
G37*
G36*
X57336Y19839D02*
Y20046D01*
X57572D01*
Y19839D01*
X57336D01*
D02*
G37*
G36*
X57769D02*
Y20046D01*
X58001D01*
Y19839D01*
X57769D01*
D02*
G37*
G36*
X58517D02*
Y20046D01*
X58754D01*
Y19839D01*
X58517D01*
D02*
G37*
G36*
X58950D02*
Y20046D01*
X59187D01*
Y19839D01*
X58950D01*
D02*
G37*
D148*
X45965Y10069D02*
G03*
X45965Y10069I-110J0D01*
G01*
D152*
X45733D02*
D03*
X45979D02*
D03*
D159*
X24438Y12000D02*
D03*
X26662D02*
D03*
X24438Y13000D02*
D03*
Y14000D02*
D03*
X26662Y13000D02*
D03*
Y14000D02*
D03*
D162*
X3282Y24450D02*
D03*
X5200Y1100D02*
D03*
X53500Y24100D02*
D03*
D163*
X18400Y17424D02*
D03*
Y18577D02*
D03*
X17400Y17424D02*
D03*
Y18577D02*
D03*
X13400Y17424D02*
D03*
Y18577D02*
D03*
X14400Y17424D02*
D03*
Y18577D02*
D03*
X8400Y17424D02*
D03*
Y18577D02*
D03*
X9400D02*
D03*
Y17424D02*
D03*
X10400Y18577D02*
D03*
Y17424D02*
D03*
X12400Y18577D02*
D03*
Y17424D02*
D03*
X11400Y18577D02*
D03*
Y17424D02*
D03*
X7400D02*
D03*
Y18577D02*
D03*
X16400D02*
D03*
Y17424D02*
D03*
X15400Y18577D02*
D03*
Y17424D02*
D03*
X19400Y18577D02*
D03*
Y17424D02*
D03*
X21000Y2424D02*
D03*
Y3577D02*
D03*
X22000D02*
D03*
Y2424D02*
D03*
X23000Y3577D02*
D03*
Y2424D02*
D03*
X25000Y3577D02*
D03*
Y2424D02*
D03*
X24000Y3577D02*
D03*
Y2424D02*
D03*
X20000D02*
D03*
Y3577D02*
D03*
X10400Y22577D02*
D03*
Y21424D02*
D03*
X9400Y22577D02*
D03*
Y21424D02*
D03*
X15400Y22577D02*
D03*
Y21424D02*
D03*
X14400D02*
D03*
Y22577D02*
D03*
X13400Y21424D02*
D03*
Y22577D02*
D03*
X11400Y21424D02*
D03*
Y22577D02*
D03*
X12400Y21424D02*
D03*
Y22577D02*
D03*
X16400D02*
D03*
Y21424D02*
D03*
X7400D02*
D03*
Y22577D02*
D03*
X8400Y21424D02*
D03*
Y22577D02*
D03*
X11000Y3577D02*
D03*
Y2424D02*
D03*
X15000D02*
D03*
Y3577D02*
D03*
X16000Y2424D02*
D03*
Y3577D02*
D03*
X14000Y2424D02*
D03*
Y3577D02*
D03*
X13000Y2424D02*
D03*
Y3577D02*
D03*
X12000D02*
D03*
Y2424D02*
D03*
X18000Y3577D02*
D03*
Y2424D02*
D03*
X17000Y3577D02*
D03*
Y2424D02*
D03*
X34000Y21424D02*
D03*
Y22577D02*
D03*
X30000D02*
D03*
Y21424D02*
D03*
X29000Y22577D02*
D03*
Y21424D02*
D03*
X31000Y22577D02*
D03*
Y21424D02*
D03*
X32000Y22577D02*
D03*
Y21424D02*
D03*
X33000D02*
D03*
Y22577D02*
D03*
X27000Y21424D02*
D03*
Y22577D02*
D03*
X28000Y21424D02*
D03*
Y22577D02*
D03*
X25000Y21424D02*
D03*
Y22577D02*
D03*
X21000D02*
D03*
Y21424D02*
D03*
X20000Y22577D02*
D03*
Y21424D02*
D03*
X22000Y22577D02*
D03*
Y21424D02*
D03*
X23000Y22577D02*
D03*
Y21424D02*
D03*
X24000D02*
D03*
Y22577D02*
D03*
X18000Y21424D02*
D03*
Y22577D02*
D03*
X19000Y21424D02*
D03*
Y22577D02*
D03*
D184*
X36625Y20000D02*
D03*
X38375D02*
D03*
X36625Y21000D02*
D03*
X38375D02*
D03*
D221*
X4560Y12110D02*
D03*
X2750Y9883D02*
D03*
X3886Y2800D02*
D03*
X9050Y5498D02*
D03*
X41006Y3600D02*
D03*
X9762Y8417D02*
D03*
X11460Y6057D02*
D03*
X2600Y3700D02*
D03*
X1150Y6188D02*
D03*
X26283Y10300D02*
D03*
X50050Y4400D02*
D03*
X49400Y813D02*
D03*
X32650Y3587D02*
D03*
X15500Y6615D02*
D03*
X41661Y15211D02*
D03*
X43850Y21450D02*
D03*
X45200Y19283D02*
D03*
X44600Y18350D02*
D03*
X34236Y6354D02*
D03*
X32614Y7654D02*
D03*
X34962Y7446D02*
D03*
X33000Y5800D02*
D03*
X4360Y13101D02*
D03*
X2460Y14300D02*
D03*
X21150Y8693D02*
D03*
X13450Y10450D02*
D03*
X14500Y11626D02*
D03*
X14550Y9750D02*
D03*
X14285Y8130D02*
D03*
X12649Y8800D02*
D03*
X7400Y24500D02*
D03*
Y23500D02*
D03*
X8400D02*
D03*
Y24500D02*
D03*
X10400D02*
D03*
Y23500D02*
D03*
X11400D02*
D03*
Y24500D02*
D03*
X13400Y23500D02*
D03*
Y24500D02*
D03*
X16400Y23500D02*
D03*
X15400Y24500D02*
D03*
Y23500D02*
D03*
X14400Y24500D02*
D03*
Y23500D02*
D03*
X12400Y24500D02*
D03*
Y23500D02*
D03*
X9400D02*
D03*
Y24500D02*
D03*
X25000Y1500D02*
D03*
Y500D02*
D03*
X23000Y1500D02*
D03*
Y500D02*
D03*
X20000Y1500D02*
D03*
X21000Y500D02*
D03*
Y1500D02*
D03*
X22000Y500D02*
D03*
Y1500D02*
D03*
X24000Y500D02*
D03*
Y1500D02*
D03*
X18000Y500D02*
D03*
Y1500D02*
D03*
X15000D02*
D03*
Y500D02*
D03*
X13000Y1500D02*
D03*
Y500D02*
D03*
X12000Y1500D02*
D03*
Y500D02*
D03*
X11000Y1500D02*
D03*
X14000Y500D02*
D03*
Y1500D02*
D03*
X16000Y500D02*
D03*
Y1500D02*
D03*
X17000D02*
D03*
Y500D02*
D03*
X36600Y23050D02*
D03*
X28000Y24500D02*
D03*
Y23500D02*
D03*
X29000D02*
D03*
Y24500D02*
D03*
X31000Y23500D02*
D03*
Y24500D02*
D03*
X34000Y23500D02*
D03*
X33000Y24500D02*
D03*
Y23500D02*
D03*
X32000Y24500D02*
D03*
Y23500D02*
D03*
X30000Y24500D02*
D03*
Y23500D02*
D03*
X27000D02*
D03*
Y24500D02*
D03*
X18000Y24500D02*
D03*
Y23500D02*
D03*
X21000D02*
D03*
Y24500D02*
D03*
X23000Y23500D02*
D03*
Y24500D02*
D03*
X24000Y23500D02*
D03*
Y24500D02*
D03*
X25000Y23500D02*
D03*
X22000Y24500D02*
D03*
Y23500D02*
D03*
X20000Y24500D02*
D03*
Y23500D02*
D03*
X19000D02*
D03*
Y24500D02*
D03*
D239*
X38388Y23020D02*
D03*
X38612D02*
D03*
X37688D02*
D03*
X37912D02*
D03*
D253*
X31000Y18890D02*
D03*
X30000D02*
D03*
X29000D02*
D03*
X27000D02*
D03*
X28000D02*
D03*
X32000D02*
D03*
D264*
X2880Y17630D02*
D03*
X27500Y20660D02*
D03*
X31500D02*
D03*
X40276Y2876D02*
D03*
X2900Y7800D02*
D03*
D265*
X16400Y24500D02*
D03*
X20000Y500D02*
D03*
X11000D02*
D03*
X34000Y24500D02*
D03*
X25000Y24500D02*
D03*
D266*
X1365Y11201D02*
D03*
Y13800D02*
D03*
D267*
X1161Y2100D02*
D03*
X3839D02*
D03*
D268*
X48292Y1467D02*
D03*
X42741Y1378D02*
D03*
D269*
X5500Y3000D02*
D03*
X26000Y5000D02*
D03*
Y16000D02*
D03*
X6000Y22000D02*
D03*
X38000Y3000D02*
D03*
X35500Y22000D02*
D03*
D327*
X48327Y3043D02*
D03*
X43012D02*
D03*
D328*
X42929Y5327D02*
D03*
D329*
Y8228D02*
D03*
D330*
X48209Y8858D02*
D03*
D331*
X46811Y8827D02*
D03*
X46378D02*
D03*
X45945D02*
D03*
X45512D02*
D03*
X45079D02*
D03*
X44646D02*
D03*
X44213D02*
D03*
X43780D02*
D03*
D332*
X43224Y8858D02*
D03*
D333*
X38896Y24300D02*
D03*
X37400D02*
D03*
D334*
X38345Y23395D02*
D03*
X38148D02*
D03*
X37951D02*
D03*
X37754D02*
D03*
X38542D02*
D03*
M02*
