M48
;Layer_Color=9474304
;FILE_FORMAT=2:4
INCH,TZ
;TYPE=PLATED
T2F00S00C0.0098
T3F00S00C0.0120
T5F00S00C0.0354
T6F00S00C0.0394
;TYPE=NON_PLATED
T7F00S00C0.0354
T8F00S00C0.0390
T9F00S00C0.0701
T11F00S00C0.1260
%
T02
X38603Y285
X38940Y690
X39348Y389
X40603Y285
X44603
X45603
X46150Y610
X46603Y285
X47603
X48603
X49603
X50603
X50230Y813
X51603Y285
X52603
X52848Y389
X37603Y285
X37510Y670
X37098Y389
X36603Y285
X35603
X34848Y389
X31698Y285
X31098Y389
X30348
X30698Y785
X29698
X29598Y389
X28848
X28698Y785
X28098Y389
X27348
X27698Y785
X26590Y790
X26698Y285
X25698
X19000Y250
X10500Y500
X10098Y389
X9698Y285
Y750
X8698Y285
X7698
X6698
X5698
X4698
X2450Y290
X1848Y389
X1098
X698Y285
X348Y389
X723Y1139
X1950Y1150
X2050Y1550
X1550Y2100
X1570Y3050
X1460Y3510
X2310Y3230
X3050Y3260
X3044Y2580
X3150Y1883
X3030Y1130
X4473Y1139
X4270Y2280
X4250Y3650
X4047Y3447
X3770Y4290
X3630Y4920
X2750Y5000
X2450
X2230Y4040
X3120Y4030
X4440Y4580
X4848Y4889
X5050Y5100
X5329Y5442
X5576Y5828
X5070Y5830
X4473Y5639
X4340Y6140
X4410Y6830
X4700Y6600
X5470
X5710Y7500
X6020Y7200
X6750Y7040
X6520Y7750
X5780Y8070
X5565Y8280
X5250Y7849
X4650Y7850
X4457Y9312
X4848Y9389
X5400Y9250
X5636Y9500
Y10282
X5100Y10200
X5030Y11070
X4843Y11496
X4550Y11524
X4213Y11535
X4134Y12490
Y12770
X3900Y13470
X3335Y13720
X3021Y13600
X3163Y11918
X3221Y11144
X2953Y10787
X3740Y10700
X3306Y9902
X4346Y9983
X3750Y8870
X2973Y8639
X2598Y9389
X1098
X348
X723Y8639
X1473
X1098Y7889
X348
X723Y7139
X880Y6610
X348Y6389
X723Y5639
X348Y4889
X500Y4431
X905Y4117
X348Y3389
X723Y2639
X250Y2000
X1584Y6180
X1393Y6942
X2973Y7139
X3240Y6960
X6050Y5450
X6240Y5060
X5973Y4139
X6723
X6650Y3550
X6370Y2080
X6723Y1139
X5973
X6730Y5970
X5690Y11030
X5720Y11800
X5363Y11603
X6140Y11940
X6808Y12050
X6340Y14120
X6635Y14524
X6348Y15389
X5465Y15260
X5285Y15730
X5223Y16139
X5973
X6723
X4473
X3850Y16130
X3935Y15710
X4115Y15360
X4445Y15050
X4875Y14740
X4960Y13900
X5222Y13672
X1924Y14450
X1473Y14639
X985Y14250
X1098Y15389
X1473Y16139
X723
X2973
X2598Y15389
X1960Y12754
Y11844
X1822Y10900
Y10300
X1473Y10139
X985Y10700
X2172Y10600
X7316Y10356
X8223Y10139
X8512Y10314
X9370Y10310
X9530Y10090
X9576Y9613
X10050Y8900
X10800Y8790
Y8350
X10722Y7414
X11223Y7139
X11950Y7050
X12879Y7207
X13473Y7139
X13800Y6990
X13890Y7870
X14285Y7500
X14650Y7700
X14973Y8639
X15300Y8980
X16020Y8710
X16350Y8445
X16550Y8000
X16098Y7889
X15920Y7580
X17110Y7700
X17000Y8208
X17240Y9100
X17950Y9050
X18169Y9250
X17710Y9510
X17690Y10110
Y10420
X17200Y10990
X15920Y10980
X16140Y10710
X16000Y10070
X15643Y10420
X14973Y10139
X14598Y10889
X14200Y11317
X14598Y12389
X15940Y12390
X15643Y11970
X17237Y12311
X17634Y13559
X17750Y14690
X17580Y14860
X18170Y14450
X18662Y13830
X18970Y14030
X19578Y13739
X19848Y13889
X20193Y13628
X20093Y13176
X20900Y12900
X21700Y13120
Y12620
X22010Y12640
X22130Y13530
X21700Y13628
X21590Y14240
X20830Y14320
X20193Y14354
X20600Y15180
X21000Y15170
X20680Y15640
X21460Y15670
X21600Y16150
X20970Y16300
X20390Y16470
X19900Y16360
X19770Y15760
X19820Y15250
X19381Y15362
X18940Y15400
X19370Y16140
X18050Y15820
X17900Y16350
X17470Y16450
X14920Y14400
X15320Y13950
X15200Y13622
X14550Y13900
X13860Y13600
X13840Y13070
X13473Y13139
X12723
X12348Y12389
X12072Y12472
X11370Y12340
X11040Y12440
X10600Y12320
X10871Y11865
X10850Y11050
X11598Y10889
X11900Y11110
X12330Y11210
X12348Y10889
X12649Y11615
X12900Y12070
X13019Y10433
X12650Y9556
X12360Y9200
X12961Y9191
X13950Y9450
X14223Y8639
X12950Y7800
X12070Y8020
X11940Y8340
X12229Y8330
X11450Y9250
X11350Y9850
X10722Y9862
X9871Y10630
X9650Y10960
X9290Y10720
X9360Y12460
X9861Y12387
X8200Y12350
X7500Y11750
X6990Y12260
X7848Y13889
X7900Y14180
X7800Y14524
X7300Y14700
Y15000
X7968Y15283
X8130Y15770
X7800Y16100
X7403Y16420
X9330Y15750
X9600Y15290
X10232Y15259
X10670Y15090
X11590Y15240
X11200Y15700
X11400Y16048
X10920Y16014
X10270Y15830
X9803Y16050
X9250Y14697
X9363Y14424
X10370Y14280
X11210Y14230
X12010Y14650
X12640Y14750
X13050Y14940
X13110Y16080
X12790Y16120
X16098Y9389
X16757Y9843
X17730Y8740
X17920Y7720
X18610Y7560
X18892Y7964
X18912Y8803
X18730Y9530
X18940Y10070
X19919Y10060
X20190Y10060
X20594Y9843
X21050Y9826
X20840Y10190
X20594Y10474
X20783Y9501
X20394Y9449
X21150Y9193
X21573Y9613
X21840Y9570
X22290Y9300
X21900Y8750
X21895Y8445
X22098Y7889
X22470Y7780
X21900Y7460
X21920Y6950
X21400Y7000
X21190Y6720
X20883Y6420
X19848Y6389
X19870Y6890
X19140
X19320Y6490
X18812Y6250
X18690Y5750
X18400Y5880
X18100Y5800
X17610Y5750
X17600Y6530
X17030Y6520
X16530Y6510
X16050Y6250
X16230Y5800
X15090Y5810
X15080Y6550
X14670Y6240
X14210Y5940
X14670Y5470
X14598Y4889
X15348
X16660Y4840
X16470Y4070
X17520Y4040
X17598Y3389
X18000Y3000
X17460Y2480
X16460
X15490Y2510
X15000Y3000
X14000
X14480Y2500
X13490
X12500
X11510
X10560
X11000Y3000
X12000
X11510Y3930
X12500
X12348Y4889
X13098
X13360Y5320
X13848Y4889
X11598
X10848
X10050Y4380
X10090Y3250
X10420Y3500
X10100Y2017
X10500Y1500
X10473Y1139
X8273Y1200
X7580Y2110
X7473Y2639
X7580Y3080
X8052Y2902
X8866Y2308
X9291Y4992
X9050Y5998
X8700Y6180
X8280Y6580
X7850Y6250
X7290Y6190
X7250Y5444
X7200Y4588
X8060Y4870
X8223Y5639
X8450Y7290
X8430Y8120
X8780Y8410
X9200Y8390
X8570Y8688
X7723Y8878
X7780Y8130
X7180Y7820
X7600Y7094
X9200Y6900
X10039Y7240
X10031Y7900
X9698Y7932
X10060Y6210
X10950Y6135
X11460Y5607
X13473Y1139
X16473
X18723
X19473
Y2639
X20000Y3000
X20500Y3150
X21000Y3000
X21500Y3150
X22000Y3000
X21610Y4240
X22430Y4840
X21723Y5639
X21160Y5320
X20380Y4850
X20350Y5770
X19400Y5800
X19473Y4139
X19700Y4350
X18723Y4139
X18500Y4350
X18522Y4851
X19098Y3389
X20500Y1650
X21440
X21400Y7730
X20580Y7560
X20494Y8208
X20594Y8445
X21573Y10062
X22134Y10474
X21760Y11260
X18780Y11520
X18730Y10960
X18169Y6546
X22060Y15040
X22380Y15190
X22390Y15650
X8110Y9550
X22782Y9710
X23359Y9826
X23550Y9613
X23322Y9416
X23330Y9130
X23210Y8510
X23810Y8670
X23598Y7889
X23930Y7750
X24114Y7259
X24810Y7050
X25584Y7101
X26156Y7153
X26110Y8030
X25960Y8460
X25470Y8280
X25000Y8460
X24740Y8310
X24438Y9410
X24750Y10250
X25473Y10139
X25790Y10240
X25590Y11530
X26090Y11520
X26477Y11550
X26970Y11470
X27570Y11550
X27610Y10920
X27880
X28140
X27230
X27000Y12600
X27070Y13510
X27460Y13610
X26480Y13620
X26150Y13510
X25670Y13544
X24980Y13510
X24460Y13500
X24000Y13500
X23460Y13720
X23200Y13456
X23223Y14639
X23782Y14692
X24480Y15200
X24519Y15750
X24723Y16139
X25077Y15180
X26560Y14930
X27020Y15360
X27180Y14640
X27450Y14740
X27567Y14960
X27000Y14440
X28320Y13950
X28510Y13460
X28800Y13470
X28964Y12615
X29405Y12653
X29730Y13060
X29840Y14450
X30393Y14001
X30940Y13970
X30960Y13670
X31200Y14320
X31570Y14240
X32080Y14200
X32290Y14380
X31990Y15190
X31690Y15180
X31420
X32110Y15440
X32380Y15660
X32560Y15390
X32530Y15980
X32760Y16090
X32980Y16210
X33130Y16410
X34570
X35080Y15810
X35470Y15010
X36380Y15440
X36820Y15320
X37270Y14900
X37530Y14920
X37590Y12860
X37790Y12710
X37150Y13090
X36685Y13590
X36320Y13770
X36030Y13740
X35650Y13700
X35220Y13710
X34100Y13720
X33800Y14250
X33380Y14280
X33550Y14520
X33740Y14710
X33910Y14890
X33950Y15360
X34160Y15510
X34311Y15310
X34546Y13012
X34410Y12790
X34175Y12715
X33459Y12688
X33211Y12767
X33188Y13230
X32930Y13300
X31983Y12481
X31560Y12430
X32870Y10810
X33887Y10694
X34130Y9970
X35190Y9990
X35750Y10120
X36190Y9600
X36480Y9570
X37020Y9550
X36806Y9017
X36300Y8350
X36348Y7889
X35620Y7910
X35820Y7520
X36830Y7500
X37970Y7970
X37490Y5450
X37488Y5170
X36950Y5430
X36520Y5380
X36440Y5160
X35470Y4860
X34810Y4830
X34850Y4030
X35460Y3760
X35950Y3810
X36348Y3389
X36750Y2760
X37010Y3830
X35440Y2610
X34860Y2480
X35760Y2180
X36150Y1280
X35223Y1139
X35390Y5480
X35160Y6370
X35640Y6390
X36110Y6400
X35940Y6150
X34000Y6730
X34040Y6980
X33440Y7180
X33570Y6380
X33500Y5650
X32730Y6210
X32230Y6270
X31850Y6400
X31620Y6610
X31680Y6900
X32300Y6840
X31190Y6410
X30520Y6420
X30580Y6940
X30856Y7318
X30695Y7505
X30872Y7692
X31100Y7820
X31120Y8090
X31267Y8297
X31084Y8484
X30891Y8671
X29840Y8240
X29610Y8410
X29000Y8360
X28713Y8290
X28200Y8130
X27590Y8190
X27370Y8390
X27040Y8820
X27710Y8830
X28270Y8840
X28420Y9970
X28810Y9890
X29100Y10170
X29220Y9510
X29510Y9450
X29980Y9360
X29970Y10246
X29290Y11150
X28550Y11640
X28880Y15310
X23570Y15690
X22990Y15650
X23050Y16240
X22473Y16139
X22620Y15010
X23720Y12670
X24670Y12600
X25540Y12650
X24990Y11024
X24160Y10820
X24170Y11320
X23490Y11530
X23350Y10510
X23090Y10750
X22560Y8390
X22782Y7678
X24134Y5803
X24960Y6050
X24750Y4900
X24438Y4600
X24550Y4250
X23960Y4260
X23940Y4840
X23500Y3640
X23000Y3000
X24000
X24500Y2980
X25000Y3000
X25450Y2740
X25473Y1139
X26223
X24510Y1650
X23480
X22480
X22473Y1139
X22670Y4210
X25150Y4200
X26973Y4139
X27723
X28473
X28840Y4140
X29223Y4139
X29180Y2890
X29480Y2760
X29300Y2170
X29223Y1139
X28473
X30340Y2300
X31170Y2260
X31700Y2320
X30890Y3640
X31170Y4170
X30410Y4380
X30520Y5240
X31310Y5290
X31848Y4889
X32200Y5130
X32350Y4690
X32110Y4250
X29610Y6730
X29670Y7300
X28740Y6460
X27980Y6640
X27654Y6240
X27704Y5240
X26960Y5840
X31790Y9620
X32730Y9610
X33723Y8639
X34650Y8600
X34791Y8951
X35300Y8950
X35150Y12170
X35081Y12570
X36460Y12580
X36680Y12180
X37720Y11430
X37970
X37650Y11180
X37803Y10983
X37340Y10950
X36500Y16450
X39230Y15760
X40608Y16120
X41390Y15990
X41840Y16210
X43390Y16290
Y15790
X43360Y15140
X42660Y15170
X42765Y15400
X41980Y14130
X41820Y13923
X41520Y14140
X41430Y11830
X41190Y11750
X40830
X40560
X40110Y11870
X40040Y10810
X39820Y10950
X39250Y11190
X38810Y10970
X38378Y11262
X38570Y11810
X38400Y10050
X39258Y10298
X39370Y9890
X39780Y9930
X40140Y9630
X40750Y9740
X40400Y10390
X40643Y10910
X41112Y10780
X41611Y10232
X41728Y9815
X41645Y9345
X42563Y8993
X42740Y8640
X43350Y8390
X43718Y7620
X43910Y7790
X44420Y8300
X44780Y9210
X45503Y9750
X45503Y10380
X45503Y11009
X46197
Y10380
X46250Y10059
X46197Y9750
X46984
Y10380
Y11009
X46940Y11330
X46690Y11325
X46689Y12020
X46492Y12170
X46225
X46000Y12270
X45860Y12060
X47083Y12020
X47327Y12160
X47557Y12020
X47753Y12170
X47950Y12020
X48344
X48541Y12170
X48738Y12020
X48934Y12170
X49370Y12145
X49150Y12500
X49310Y12830
X49830Y12820
X49848Y12389
X50110Y12165
X50960Y12145
X51232Y12157
X51252Y12855
X51700Y12634
X52167Y12522
X52650Y12551
X52728Y12866
X52820Y13140
X53090
X52710Y13650
X52460Y13630
X52150Y13620
X52180Y13340
X52098Y13889
X52298Y14292
X52302Y14594
X52294Y14897
X52260Y15170
X52098Y15389
X52650Y15580
X52660Y15840
X52670Y16090
X52680Y16350
X52972Y16298
X53268Y16022
X53524
X52835Y15442
X51575Y15748
Y14567
Y13376
X50394
X50580Y12830
X49213Y13376
X48650Y12840
X48050Y13376
X46850Y13976
Y14567
Y15748
X48032
X49213
Y14567
X50394Y15748
X50223Y16139
X45669Y15748
X44488
X44223Y14639
X44488Y14180
X44527Y11822
X44770
X44770Y11520
X44395Y11575
X43995Y11765
X44112Y11951
X43654Y12040
X43407Y12038
X43158Y12109
X43032Y12333
X43131Y11037
X43501Y11196
X43484Y10687
X42876Y10755
X42647Y10282
X42625Y9747
X43557Y10038
X44340Y10334
X44791Y10535
X44573Y10778
X44590Y11037
X44271Y11024
X42234Y11350
X42027Y11160
X41877Y7638
X42620Y7660
X43350Y7040
X43607Y6177
X43480Y5710
X43110Y5750
X42478Y5735
X42510Y5470
X42520Y5170
X42380Y4650
X42443Y3978
X42785Y3770
X43218Y3898
X43000Y4352
X43230Y4760
X44080Y4700
X44121Y4409
X43996Y4185
X43860Y3929
X44760Y3880
X45260Y4100
X45348Y4889
X45300Y5940
X45512Y7327
X46177Y7250
X46423
X46669
X46915
X46920Y6490
X47260Y5950
X46945Y5520
X48940Y5630
X49098Y6389
X49252Y7274
X49055Y7421
X48858Y7274
X48661Y7421
X48465Y7274
X48268Y7421
X47970Y7434
X47772Y8490
Y9120
Y9750
Y10380
Y11009
X48559
Y10380
Y9750
Y9120
Y8490
X49347
Y9120
Y9750
Y10380
Y11009
X50134
Y10380
Y9750
Y9120
Y8490
X50828
Y9120
Y9750
Y10380
Y11009
X51600Y11000
X51610Y11310
X51600Y11800
X52157Y11852
X52152Y11508
X52139Y11211
X51926Y11004
X52066Y10535
X51773Y10488
X52328Y10675
X52400Y10350
X52527Y10895
X52848Y10889
X52638Y11170
X52675Y11465
X52679Y11754
X53110Y11190
X53560Y10520
X53619Y9826
X53679Y9310
X53223Y8639
X52473
X52210Y9020
X52180Y9310
X51840
X51564Y9316
Y9800
X51840Y9800
X52160
X51564Y8569
X51720Y7620
X51723Y7139
X52473
X52848Y6389
X52098
X51120Y6510
X51170Y5980
X51180Y5010
X52098Y4889
X52848
X53598
X53223Y5639
X52473
Y4139
X53223
X53598Y3389
X52848
X52098
X51348
X51723Y4139
X50687Y4400
X49473Y4139
X48723
X48620Y4720
X48030Y3860
X47756Y2923
X47850Y2520
X47570Y1580
X46320Y1420
X46360Y2300
X45259Y2484
X45090Y1390
X44060Y1410
X43340Y1670
X43410Y910
X42047Y1063
X41620Y2014
X41370Y1812
X41120Y1620
X40714Y1000
X40523Y1185
X40333Y1370
X38780Y2020
X39920Y3520
X40249Y4161
X40300Y5090
X40760Y5480
X40750Y5770
X41400Y5290
X41830Y5130
X41550Y4790
X41300
X41407Y4567
X41531Y4185
X41983Y3770
X42241Y5801
X41934Y6174
X41339Y6398
X39723Y5639
X38710Y8140
Y8500
X39150Y9650
X39380Y9440
X39560Y9240
X39880Y9000
X40750Y8700
X44490Y6930
X44120Y5170
X43726Y2489
X48780Y3002
X49016Y1535
X50223Y1139
X50973
X51348Y1889
X52098
X52848
X53223Y2639
Y1139
X50229Y2387
X50231Y7435
X49670Y7397
X50973Y7139
X46848Y12389
X54117Y12451
Y12747
Y13044
Y13341
Y13638
X54125Y13935
X54233Y14211
X54461Y14402
X54723Y14639
X54710Y14000
X54610Y13800
X54603Y13519
Y13222
Y12925
Y12628
Y12331
Y12035
Y11738
Y11441
Y11144
Y10847
Y10550
Y10253
X54572Y9958
X54448Y9688
X54241Y9476
X53974Y9347
X53916Y9844
X54101Y10076
X54117Y10373
Y10670
Y10966
Y11263
Y11560
Y11857
Y12154
X55098Y12389
X55848
X55799Y13176
X55473Y13139
X55045Y13176
X56223Y13139
X56510Y13176
Y15080
X55799Y15062
X55848Y15389
X55380Y15157
X55045Y15062
X55098Y15389
X54930Y15657
X55380
X55473Y16139
X54723
X54350Y16298
X53957
X54409Y15747
X53850Y15280
X53880Y14880
X53770Y13690
X53780Y13150
X53760Y11200
X55098Y10889
X55848
X55473Y11639
Y10139
X55848Y9389
X55098
X55473Y8639
X54723
X53973
X55098Y7889
X55848
X55473Y7139
X54723
X55098Y6389
X55848
X55473Y5639
X54723
X53973
X54348Y4889
X55098
X55848
X55473Y4139
X54723
X53973
X54348Y3389
X55098
X55848
X55473Y2639
X54723
X53973
X54348Y1889
X55098
X55848
X55473Y1139
X54723
X53973
X57277Y5400
X55848Y16889
X55098
X54348
X54723Y17639
X55473
X55848Y18389
X55098
X54348
X54723Y19139
X55473
X55098Y19889
X54348
X53973Y20639
X54230Y21410
X53973Y22139
X53760Y22441
X54240Y22730
X54250Y23830
X53973Y23639
X54250Y24740
X53973Y19139
Y17639
X55743Y20008
X60447Y19790
X53598Y19889
X52848
X52098
X51575Y19291
X52473Y19139
X53223
X53598Y18389
X52848
X52098
X51575Y18110
X50394
X50223Y17639
X49213Y18110
Y16929
X48032Y18110
X46850
Y16929
Y19291
X47223Y20639
X47598Y21389
X48348
X49098
X49848
X50598
X51348
X52098
X52848
X53598
X53223Y22139
X52473
X51723
X50973
X50223
X49473
X48723
X47973
X47223
X46473
X45723
X44973
X44223
X43473
X43579Y22380
Y22720
Y23070
Y23420
Y23770
Y24120
Y24470
Y24790
X43848Y24389
X44598
X45348
X45500Y24740
X46098Y24389
X46848
X46500Y24740
X47500
X47598Y24389
X48348
X48500Y24740
X49098Y24389
X49848
X50598
X51348
X52098
X52473Y23639
X51723
X50973
X50223
X49473
X48723
X47973
X47223
X46473
X45723
X44973
X44223
X44598Y22889
X45348
X46098
X46848
X47598
X48348
X49098
X49848
X50598
X51348
X52098
X52848
X53598
X53223Y20639
X52473
X51723
X50223
X48723
X49213Y19291
X46848Y21389
X46098
X45348
X44598
X44223Y20639
X43473
X43400Y20260
X43848Y19889
X43640Y19270
Y19020
X42950Y18930
X42520Y19220
X42693Y19397
X42866Y19574
X42691Y19929
X42479Y19751
X42296Y20106
X42120Y20283
X41660Y20210
X41450Y19950
X41150
X40881Y19808
X40850Y20110
X40860Y20340
X40220Y20620
X40240Y21000
X39970Y21120
X39723Y20639
X39334Y20411
X38890Y20500
X38340Y20510
X38310Y21700
X38223Y22139
X38660Y22680
X38812Y23020
X38870Y23530
X39580Y23560
X39529Y23124
X39348Y22889
X39759Y22660
X39629Y22310
X39090Y22300
X38960Y21580
X39348Y21389
X39340Y20960
X39480Y19980
X39320Y19720
X39060Y19360
X38740Y19450
X39550Y19280
X40214Y19808
X41640Y19570
X42230Y18990
X42430Y18430
X42600Y18250
X42583Y17888
X42840Y17882
X42390Y18070
X42380Y17170
X42390Y16920
X42860Y16900
X42820Y17150
X42610Y17300
X43180Y17460
X44488Y17864
Y16929
Y18831
Y19508
X45723Y20639
X45669Y18110
X42723Y20639
X42730Y21120
X41943Y20883
X41598Y21389
X42270Y21720
X41973Y22139
X42106Y22380
X41736
Y22720
Y23070
Y23420
Y23770
X41223Y23639
X41270Y24007
X40969Y24020
X40744Y23827
Y23530
Y23233
Y22936
Y22640
X40258Y22785
Y23082
Y23379
Y23676
X40264Y23972
X40367Y24251
X40094Y24288
X40370Y24630
X40592Y24444
X40749Y24750
X41123Y24513
X41459Y24510
X41749Y24790
X41310Y23180
X41223Y22139
X42476Y22380
X42839
X42723Y22139
X43209Y22380
X43330Y21770
X43848Y22889
X39348Y24389
X39670Y24750
X38490Y24690
X38460Y23860
X39160Y18260
X38860Y17260
X38776Y16773
X38340Y17180
X52040Y17210
X52390Y17250
X52760Y17230
X53130Y16960
X53598Y16889
X53223Y17639
X52473
X52680Y16620
X37460Y16880
X36490Y16960
X35330Y16970
X34570Y16910
Y16660
X32650Y17130
X32330Y16840
X31830Y16980
X31470Y16880
X30750Y16940
X30471Y16820
X30120Y16720
X30060Y16980
X29800Y16700
X29550Y16850
X29271Y16809
X29084Y16986
X28897Y16807
X28710Y16990
X28450Y16980
X28290Y17770
X28470Y18680
X29492Y18690
X30580Y18610
X31480Y18590
X31500Y21250
X31473Y22139
X31000Y22000
X32000Y22000
X33000
X34000
X34360Y22330
X34450Y21210
X34473Y20639
X34420Y20010
X34098Y19889
X34848
X34660Y19410
X35840
X35370Y18880
X35590Y18330
X36110Y18620
X36420Y18260
X36990Y18310
X37480Y18317
X37570Y18730
X37930Y18260
X38060Y19500
X37480Y19580
X37430Y20400
X37790Y20410
X36680
X36420
X35650Y20690
X35150Y20480
X33570Y20370
X33470Y21110
X32500Y21250
X32223Y20639
X30470Y20400
X29973Y20639
X29500Y21250
X28500
X28490Y20430
X29160Y20050
X29000Y22000
X28473Y22139
X28000Y22000
X27000Y22000
X26223Y22139
X25473
X25000Y22000
X24000
X23000
X22473Y22139
X22500Y23000
X23500
X24500
X25480Y23160
X25848Y22889
X26598
X27500Y23000
X28500Y23000
X29500
X30500
X31500
X32500
X33500Y23000
X34540Y23690
X35223Y23639
X35530Y23510
X35973Y23639
X36723
X37400Y23530
X37488Y23020
X37098Y22889
X37473Y22139
X36723
X36630Y21500
X37500Y21400
X37790Y23820
X37848Y24389
X36348
X36670Y24750
X35670
X35598Y24389
X34848
X34670Y24750
X30000Y22000
X30500Y21250
X27500Y21250
X26598Y21389
X25848
X24560Y21000
X23500
X23598Y21389
X22500Y21000
X22760Y19000
X22720Y18340
X22700Y17690
X22848Y16889
X23598
X23620Y17800
X23600Y18590
X23733Y19330
X23989
X24245
X24560Y19530
X25473Y19139
Y17639
X26223
X26920Y17630
X26670Y17050
X27270Y16880
X25098Y16889
X24519Y16840
X24723Y17639
X24600Y18200
X26520Y18670
X26223Y23639
X25848Y24389
X36790Y19250
X36610Y18950
X21650Y18940
X21348Y18389
X20598
X19848
X19400Y18000
X18990Y18000
X18400Y18000
X17973Y17639
X17900Y17100
X17300Y16620
X16890Y17280
X15980Y17260
X15960Y17820
X16290Y18000
X16510Y18000
X16848Y18389
X16900Y19120
X15980Y19190
X15820Y20440
X15900Y21000
X14900
X14830Y20360
X13830Y20370
X13473Y20639
X12900Y21000
X12770Y20400
X11910Y20380
X11900Y21000
X11223Y20639
X10473
X10710Y20370
X9760
X9900Y21000
X8900
X8750Y20380
X7950Y21000
X7848Y21389
X7400Y22000
X8400
X8973Y22139
X9400Y22000
X9890Y22020
X10400Y22004
X10890Y22050
X11400Y22000
X11973Y22139
X12400Y22000
X12890Y21990
X13400Y22000
X13890Y22160
X14400Y22000
X14973Y22139
X15400Y22000
X15860Y22060
X16400Y22000
X17223Y22139
X18000Y22000
X18520Y22040
X19000Y22000
X19473Y22139
X20000Y22000
X21000
X22000
X21500Y21000
X20598Y21389
X20223Y20639
X20190Y18960
X20223Y17639
X19900Y17000
X18920Y16770
X21050Y16790
X21660Y16890
X22180Y16930
X18930Y19320
X18700Y19160
X17920Y19090
X17510Y18000
X17290Y18000
X15400
X14400
X13400
X12880Y17970
X12400Y18000
X11890Y17990
X11400Y18000
X10870Y18010
X10400Y18000
X9900Y17500
X9400Y18000
X8870Y18050
X8973Y17639
X8910Y16910
X8400Y18000
X7400Y18000
X6920Y17750
X7230Y16590
X7570Y20130
X7110Y20350
X6850Y20611
X6980Y23020
X7900Y23000
X8900
X9900
X10900
X11900Y23000
X12900Y23000
X13900
X14900
X15900
X16848Y22889
X17598
X18500Y23000
X19500
X20500
X21500
X17223Y23639
X17210Y24580
X16848Y21389
X16890Y21050
X17598Y21389
X18553Y21021
X13848Y21389
X14100Y19290
X14380Y19190
X12900Y18910
X11910
X10900
X9900
X8900
X10900Y17100
X11920Y17050
X12910Y17060
X10848Y21389
X6203Y20637
X6140Y20010
X5429Y19245
X4473Y19139
X3723
X2973
X3348Y18389
X2598
Y19889
X1848
X1098
X348
X723Y20639
X1473
X2223
X2973
X3880Y20650
Y20171
X4098Y19889
X3500Y21100
X2598Y21389
X1848
X1098
X348
X250Y21750
X1380Y22240
X1600Y22500
X1380Y22740
X1600Y23000
X1380Y23240
X1520Y23770
X1380Y24240
X350Y24720
X2550Y24710
X3000Y23900
X2973Y23639
X2940Y23240
X3600Y23320
X3716Y23660
X3660Y22910
X3348Y22889
X4946Y23063
X4732Y23450
X4730Y24030
X4250Y24550
X5598Y24389
X5740Y23860
X5980Y23250
X5350Y23370
X4939Y22438
X4507Y21844
X4526Y21483
X4120Y21810
X5190Y20950
X5565Y20919
X5450Y18140
X5625Y17995
X5300Y17610
X4473Y17639
X3723
X3348Y16889
X2598
X1098
X348
X723Y17639
X1473
X1098Y18389
X348
X723Y19139
X1473
X4550Y16700
X5900
X6348Y16889
X6800Y18920
X6702Y22902
X6723Y23639
X6348Y24389
T03
X14061Y10237
X31386Y10229
Y10623
Y11017
Y11411
X31780Y11411
X32174Y11411
Y11017
Y10623
X31780
Y11017
Y10229
X32174Y10229
X40194Y16874
Y17347
X40667
Y16874
X41139
Y17347
X41612
Y16874
Y17819
Y18292
X41139
Y17819
X40667
Y18292
X40194
Y17819
T05
X23000Y500
X24000
X25000
X22000
X21000
X20000
X18000
X17000
X16000
X15000
X14000
X13000
X12000
X11000
Y1500
X12000
X13000
X14000
X15000
X16000
X17000
X18000
X20000
X21000
X22000
X23000
X24000
X25000
Y23500
X24000
X23000
Y24500
X24000
X25000
X27000Y24500
X28000
Y23500
X29000
Y24500
X30000
X31000
Y23500
X32000
X33000
X34000
Y24500
X33000
X32000
X30000Y23500
X27000
X22000Y23500
X21000
Y24500
X22000
X20000
Y23500
X19000
X18000
Y24500
X19000
X16400
Y23500
X15400
Y24500
X14400
X13400
Y23500
X14400
X12400
X11400
X10400
Y24500
X11400
X12400
X9400
X8400
X7400
Y23500
X8400
X9400
T06
X36600Y23050
T07
X1161Y2100
X3839
T08
X11400Y7550
X11000Y10550
X11800
T09
X2900Y7800
X40276Y2876
X31500Y20660
X27500
X2880Y17630
T11
X5500Y3000
X26000Y5000
Y16000
X38000Y3000
X35500Y22000
X6000Y22000
M30
