M48
;Layer_Color=9474304
;FILE_FORMAT=2:4
INCH,TZ
;TYPE=PLATED
T1F00S00C0.0059
T2F00S00C0.0098
;TYPE=NON_PLATED
%
T01
X32779Y542
X33740
X4000Y1100
X3920Y5040
X4332Y5360
X4000Y5740
X3660Y5730
X2190Y5400
X1865Y5888
X1340Y5900
X6160Y5720
X5950Y7750
X5990Y8530
X6800Y8480
X6790Y8890
X6750Y10520
X5160Y10630
X4376Y10793
X4605Y13390
X5125Y13420
X4505Y14320
X4155Y14310
X5215Y15110
X3245Y15310
X2875Y15290
X6929Y14606
X8893Y15060
Y15380
X11180Y15470
X11650Y15700
X12270Y15440
X12677Y15440
X13020Y15820
X12100Y14330
X16824Y14283
X17040Y14610
X17440Y14000
X16470Y13790
X12900Y8500
X12740Y6450
X13812Y6420
X11580Y6550
X9760Y6420
X9459Y5692
X8650Y6690
X8800Y7700
X9170Y7700
X9220Y9410
X8840Y9390
X7550Y8550
X7265Y11159
X22606Y9015
X23790Y9180
X26535Y9201
X26829Y8267
X26725Y7849
X27230Y7640
X27240Y7150
X27010Y7280
X26940Y7040
X26736Y2429
X31450Y2904
X32259Y2519
X32299Y1270
X33259
X34220
X34259Y2519
X35850Y2904
Y995
Y4932
X34950Y6057
X34750
X34550
X34350Y6157
X34050Y6111
X34126Y5700
X34280Y6557
X34100Y7210
X34252Y7368
X34390Y8850
X32680Y8830
X32720Y6948
X32540Y6810
X32393Y5700
X31647Y4538
X30853Y4320
X30886Y5140
X31450Y995
X29687Y10254
X28920Y10300
X28863Y11131
X30150Y11200
X29420Y12100
X29201Y12322
X28913Y13080
X28540Y12960
X28710Y13700
X29290Y14470
X29300Y15070
X30250Y14930
X30680Y14050
X31817Y13526
X32180Y12830
X32469Y12666
X32788Y12357
X32800Y11880
X32570Y11930
X31298Y12050
X31015Y12540
X30600Y12450
X31770Y14910
X34360Y14140
X34430Y13570
X34490Y12570
X34550Y12040
X34800Y11650
X35500
X35820Y11700
X35830Y11500
X35680Y11180
X35200Y11300
X35530Y12160
X35770
X36120Y12320
X35658Y12590
X35500Y12750
X35140Y13080
X35260Y14620
X35010Y14770
X36310Y11760
X36930Y11520
X37100Y11650
X37040Y11950
X37500Y11450
X36970Y10960
X36769Y9971
X36370Y10120
X35954Y9503
X38730Y10550
X38870Y10720
X39430Y10468
X40800Y10349
X41684Y10886
X42680Y11200
X43168Y10281
X44338Y10090
X44625Y10207
X45067Y10143
Y10340
Y10537
Y10734
Y10931
X45803Y11009
Y10380
Y9750
Y9120
X45503
X45067Y9159
Y8569
X45503Y8490
X45803
X46197
X46591
X46984
X47378
Y9120
X46984
X46591
X46197
X46591Y9750
Y10380
Y11009
X47378
Y10380
X47378Y9750
X48165
X48165Y9120
Y8490
X48953
Y9120
Y9750
Y10380
Y11009
X48165
Y10380
X49740
X49740Y9750
Y9120
X49740Y8490
X50528
Y9120
Y9750
Y10380
Y11009
X49740
X49839Y11765
X49642
X49445
X49248
X48658
X47673
X46886
X46099
X46060Y12580
X45590Y12840
X45645Y13381
X45079Y13976
X44488Y13386
X44010Y13630
X43016Y13521
X43000Y14170
X43560Y14580
X43990Y15250
X44010Y16130
X45079Y16339
X46260
X47441
X48622
Y15157
X47441
Y13976
X46881Y13381
X46260Y13976
X45669Y14567
X45079Y15157
X46260
X48032Y14567
X48622Y13976
X49803
X50984
Y15157
X50394Y14567
X49803Y15157
X52696Y14868
Y14632
X52932
X53168
Y14868
X52932
X53404
Y14632
X53150Y13640
X52940Y13610
X53300Y13200
X53490Y13300
X53640Y13470
X53327Y9956
X52579
Y9149
X53327
X51264Y9356
Y9750
Y9946
Y10340
Y10537
Y10931
Y11128
Y11765
X50823
X50626
X50429
X50232
X50036
X50232Y7734
X50823
X51264
Y8569
X49642Y7734
X49051
X49220Y6960
X48620Y6420
X47250Y6250
X47270Y6910
X47083Y7734
X46295
X46260Y6740
X45960Y6460
X46470Y5770
X46390Y5270
X44450Y5780
X43297Y6201
X43110
X43754Y6893
X43975
X44433Y7964
X45067Y7734
Y9750
X43825Y9275
X43758Y12290
Y12530
X42936Y12653
X43300Y13120
X42300Y13110
X41950Y13010
Y13330
X41885Y13634
X41300Y13486
X41050Y13702
X40820Y13702
X41170Y13990
X41650Y14430
X41660Y15220
X41450Y15400
X41270Y15480
X41130Y15330
X40500Y14870
X40182Y13702
X40070Y13540
X40060Y12950
X40070Y12450
X40820Y12430
X41950Y12690
X42530Y14780
X42354Y15883
X42290Y16190
X42183Y16500
X42860Y16410
X41297Y16500
X41100
X40903
X40706
X40509
X39580Y15700
X38780Y15690
X38400Y15500
X38270Y15960
X38600Y14910
X38530Y12310
X44620Y12265
X45067Y11765
X42340Y7630
X41452Y7612
X41237Y7613
X40810Y7620
X41339Y8465
X41950Y5630
X41650Y3910
X44190Y3940
X44720Y4430
X48067Y7734
X50650Y6516
X39540Y6440
X53790Y14060
Y14310
X53800Y14570
X53750Y16007
X53986Y16013
X54606Y15550
X50984Y18701
X49803
Y19882
X50394Y19291
X50984Y19882
X48622
X47441
Y18701
X48032Y19291
X48622Y18701
Y17520
X47441
X48032Y16929
X45669
X45079Y17520
X46260
Y18701
X45079
Y19882
X45669Y19291
X46260Y19882
X42920Y20070
X43070Y19220
X42720Y18990
X43090Y18230
X43820Y18300
X43640Y17020
X41986Y17189
Y17386
Y17583
Y17780
X41986Y18174
Y18370
X41691Y18666
X41494
X41297
X41100Y18666
X39820Y18174
Y17977
Y17780
Y17583
Y17386
Y17189
Y16993
X39624Y17091
Y17288
X38760Y17000
X38190Y17990
X39303Y18695
X40341Y20333
X40905Y20744
X40915Y20922
X40717Y21151
X40905Y21476
X40905Y22224
X40098
X40099Y21470
X37030Y19960
X37730Y18530
X35870Y16950
X27800Y17618
X16610Y20570
X10240Y19880
X9310Y19720
X8030Y18010
X10500Y16750
X11400
X4847Y21837
X4717Y22370
X4575Y22870
T02
X33750Y13940
M30
